<svg viewBox="0 0 512 512" xmlns="http://www.w3.org/2000/svg"><path d="m250 484.61c-3.86-1.22-7.82-2.22-11.58-3.71-17.26-6.84-29.56-25.21-28.45-42.6h92.82a44.73 44.73 0 0 1 -10.67 29.19 45.37 45.37 0 0 1 -27.72 16.24 16.74 16.74 0 0 0 -2.52.88z"/><path d="m291.14 79.51c16.89 4.18 32.2 10.72 45.94 20.61 29.16 21 46.15 49.89 54.5 84.33 3.65 15 4.89 30.29 4.85 45.73-.08 36.38 0 72.77-.09 109.15a10.6 10.6 0 0 0 3.48 8.37c9.26 9 18.57 18.05 27.39 27.51a23.22 23.22 0 0 1 -11.84 38.51 29.63 29.63 0 0 1 -6.79.56q-152.55 0-305.09 0c-11 0-19.08-5-22.71-14.34-3.84-9.94-1.78-18.77 5.85-26.31 8.75-8.69 17.38-17.5 26.21-26.11a9.55 9.55 0 0 0 3.16-7.52q-.15-55.95 0-111.9c.09-29.83 5.84-58.36 20.66-84.58 18.12-32 44.89-53.12 80.51-62.71 2.94-.79 4.32-1.86 4.17-5.18a114.68 114.68 0 0 1 .29-15.51c1.65-18.77 17.37-32.12 36.57-31.39 17.86.63 32.51 15.68 32.92 33.92.13 5.46.02 10.93.02 16.86z"/></svg>