<svg id="Layer_1" data-name="Layer 1" xmlns="http://www.w3.org/2000/svg" viewBox="0 0 512 512"><defs><style>.cls-1{fill:#020202;}.cls-2{fill:#01539e;}.cls-3{fill:#d72032;}.cls-4{fill:#fdfdfd;}.cls-5{fill:#fcef01;}</style></defs><path class="cls-1" d="M257.25,14.32c98.29-.26,180.3,80.39,178.36,182-1.85,97.31-82.05,176.36-181.48,174.74C156.54,369.47,77.36,289,78.85,189.85,80.3,93.1,159.39,14.16,257.25,14.32Zm-1.52,344.29h1.32a104.64,104.64,0,0,0,13.6-.39A161.7,161.7,0,0,0,320,346.48c6.61-2.71,13.16-5.57,19.16-9.53l.73-.34c.75-.39,1.52-.74,2.24-1.17a165.55,165.55,0,0,0,48.36-43.65c3.72-5,7.4-10,10.12-15.67l.09-.17c.55-.83,1.17-1.62,1.65-2.48a160.21,160.21,0,0,0,15-36.58,153.61,153.61,0,0,0,5.81-44.16v-.07a112.71,112.71,0,0,0-.33-12.46,163.14,163.14,0,0,0-15.74-59.15c-1.82-3.79-3.43-7.72-6.12-11l-.46-.58c.2-.87-.4-1.45-.79-2.1a160.54,160.54,0,0,0-12.2-17.65,164,164,0,0,0-47.65-41,2.41,2.41,0,0,0-.42-.16,13.44,13.44,0,0,0-1.12-.79,162.76,162.76,0,0,0-49.11-18.06,139.71,139.71,0,0,0-32.32-2.88h-1.13c-.92,0-1.84-.12-2.76-.11a162.77,162.77,0,0,0-54.8,10.71A132.12,132.12,0,0,0,174.18,49l-1.29.71c-.75.4-1.51.76-2.23,1.2a166.27,166.27,0,0,0-44.65,40,122.45,122.45,0,0,0-12.38,18.6,2.4,2.4,0,0,0-.9,1.51,7.51,7.51,0,0,0-.54.72,165.29,165.29,0,0,0-21.11,80.14l.08,2a26.62,26.62,0,0,0,.13,5.28,158.35,158.35,0,0,0,5.76,37.72,155.1,155.1,0,0,0,15.73,37.74l1,1.7a10.84,10.84,0,0,0,.5,1,166.4,166.4,0,0,0,35.29,41.86,143.81,143.81,0,0,0,23.34,16.53l1.42.8c.57.38,1.12.8,1.72,1.14a164.44,164.44,0,0,0,54.42,19A129.84,129.84,0,0,0,255.73,358.61Z"/><path class="cls-1" d="M244.15,446.65a30.3,30.3,0,0,1-6.53,11.49c-1,1-.37,1.79,0,2.7,1.94,4.74,3.47,9.51,2.41,14.79-2.11,10.49-13.92,19.31-24.6,18.29-5.17-.49-10.08-2.08-15-3.55-1.88-.56-2.53-1.61-1.78-3.66,1.54-4.17,2.92-8.41,4.22-12.67.42-1.36,1-1.58,2.26-1.25,3.14.78,6.27,1.66,9.56,1.43a11.62,11.62,0,0,0,2.27-.33c2-.55,3.21-1.92,3-4.05s-1.66-3.07-3.64-3.22a26.49,26.49,0,0,1-11.4-3.4,25.9,25.9,0,0,1-11.7-13.78,3,3,0,0,0-1.12-1.54c0,4,0,8.05,0,12.07,0,6.9.78,5.77-5.91,5.85-3.93,0-7.86-.05-11.79,0-1.75,0-2.47-.48-2.47-2.36q.09-22.67,0-45.34c0-1.66.43-2.36,2.21-2.33,5.24.09,10.49.1,15.73,0,1.8,0,2.25.72,2.24,2.32-.05,5.08,0,10.17.13,15.34,5.2-13.16,14.67-20.12,28.84-18.74,11.91,1.17,19.36,8.47,23.06,19.79V405.24c0-2.32,0-4.63,0-6.94,0-1.42.55-1.91,1.92-1.9,5.48,0,10.95.07,16.43,0,1.7,0,2.07.73,2,2.24-.06,4.94,0,9.87,0,14.81,0,2.85.28,2.91,2.86,2,6.73-2.45,17.53-1,22.91,8.15a3.33,3.33,0,0,0,1.29,1.42c0-2.65.06-5.29,0-7.94-.05-1.87.64-2.64,2.58-2.55,1.66.07,3.95.78,4.85-.32s.28-3.23.3-4.91c0-2,.05-4,0-6,0-1.51.65-2.07,2.09-2.07,5.32,0,10.64,0,16,0,1.57,0,2.23.59,2.2,2.2-.08,2.92.09,5.86-.07,8.78-.1,1.84.27,2.64,2.32,2.43s4,0,6-.07c1.49,0,2.09.56,2.06,2,0,3.37,0,6.75,0,10.72,6.9-10.16,16-15,27.8-13.1s18.88,9.21,22.21,21.14c1-5,2.66-9.15,5.64-12.61,7.16-8.27,16.26-11,26.65-8.25s15.57,10.32,17.1,20.51c1,6.95.2,14,.38,21,.06,2.47,0,4.94,0,7.4.05,1.75-.59,2.5-2.44,2.47-5.24-.08-10.49-.09-15.73,0-1.92,0-2.56-.64-2.54-2.56q.1-12.48,0-25c0-3.75-3.21-5.8-6.28-4.13-1.94,1.06-2.33,2.93-2.33,4.94v23.6c0,3.17,0,3.17-3.21,3.17-4.93,0-9.87-.09-14.8,0-2.1.06-2.65-.74-2.62-2.7.09-5.62,0-11.24,0-17.46-3.82,12-11.32,19.24-23.44,20.53s-21-4.09-27.45-14.45c0,3.65,0,7.3,0,10.95,0,1.23-.44,1.9-1.65,2-6.14.56-12.28,1.24-18.33-.68a23.46,23.46,0,0,1-4.8-2.21c-4.19-2.45-4.79-6.48-4.78-10.79,0-5.86-.07-11.72,0-17.58,0-1.7-.36-2.23-2.13-2.17-4,.12-4,0-4,3.93,0,9.25-.06,18.51,0,27.76,0,2.15-.68,2.84-2.79,2.78-4.86-.12-9.72-.1-14.58,0-2,0-2.72-.54-2.69-2.62.11-6.94,0-13.88.05-20.82a10.79,10.79,0,0,0-1.29-5.55c-1.59-2.73-4.68-2.77-6.28-.05a8.78,8.78,0,0,0-1.16,4.64c0,7.33,0,14.65,0,22,0,1.82-.6,2.44-2.41,2.41-5.24-.08-10.49-.07-15.73,0-1.72,0-2.3-.62-2.28-2.31C244.19,457.91,244.15,452.28,244.15,446.65Zm-26.16.81a7.12,7.12,0,0,0,7.11-6.79,7,7,0,0,0-6.94-6.92,6.93,6.93,0,0,0-7.06,6.75A7,7,0,0,0,218,447.46Zm135.32-.53a6.75,6.75,0,1,0-6.82-6.73A6.81,6.81,0,0,0,353.31,446.93Zm-33.9-9.53h.09c0,.92,0,1.85,0,2.77,0,5.25,1.38,6.54,6.57,6.33,1.17-.05,1.31-.27,1.09-1.44a23.36,23.36,0,0,1,.34-11.18c.65-2.14.2-2.72-1.94-2.46-1.95.23-4.56-.83-5.71.43C318.87,432.94,319.5,435.49,319.41,437.4Z"/><path class="cls-1" d="M138.5,455.32c-3.42,7-8.95,10.52-16.43,10.62-11.79.15-23.59,0-35.38.09-2.28,0-2.92-.75-2.91-2.93.06-19.81,0-39.62,0-59.43,0-2.72.23-2.93,3.11-2.93h35.62c7,0,11.68,2.89,13.86,8.6,2.58,6.78,1.05,14.07-3.93,18.42-1.21,1.05-2.53,2-4,3.07a28.45,28.45,0,0,1,10.17,12c0-2.39.08-4.79,0-7.18-.2-4.74.56-9.17,3.56-13.06A15.84,15.84,0,0,1,154.62,416c3.92-.13,7.85.12,11.78.12,1.53,0,1.9.9,1.76,2.08-.58,5.07-.17,10.16-.32,15.24-.06,1.88-.88,2.46-2.58,2.27a14.21,14.21,0,0,0-1.84-.12c-3.4,0-4.92,1.51-4.94,4.95,0,7.24,0,14.49,0,21.73,0,3.53,0,3.53-3.41,3.54H142.34c-3.61,0-3.61,0-3.61-3.51,0-2.16,0-4.31,0-6.47C138.71,455.72,138.61,455.6,138.5,455.32Zm-29-39c-3.17,0-3.17,0-3.17,3.1v2.3c0,4.25,0,4.25,4.35,4a5,5,0,0,0,4.78-6.34C114.9,417.15,113.28,416.32,109.51,416.32Zm-3.32,29.18c0,5.06.62,5.61,5.19,4.63a6.34,6.34,0,0,0,.87-.29,4.74,4.74,0,0,0,3-5.33c-.4-2.41-1.83-3.57-4.52-3.67C106.19,440.67,106.19,440.67,106.19,445.5Z"/><path class="cls-1" d="M182,396.42c2.62,0,5.24.08,7.85,0,1.6-.07,2.27.53,2.26,2.09,0,4.24,0,8.47,0,12.71,0,1.41-.61,2.07-2.1,2.06q-8.08-.06-16.17,0c-1.53,0-2-.71-2-2.15,0-4.23.06-8.47,0-12.7,0-1.52.56-2,2-2C176.6,396.47,179.3,396.42,182,396.42Z"/><path class="cls-1" d="M429.7,481.23c0,1.07-.07,2.15,0,3.22s-.18,1.66-1.48,1.63-1.77-.39-1.54-1.59c.36-1.92-.67-2.2-2.22-2a8.09,8.09,0,0,1-1.84,0c-1.3-.15-2.09.13-1.81,1.69.23,1.27-.1,1.95-1.66,1.93s-1.43-.95-1.42-2c0-2.08.07-4.15,0-6.22,0-1.18.42-1.42,1.48-1.4s1.89,0,1.63,1.43c-.31,1.69.48,2.14,2,1.93a9.83,9.83,0,0,1,2.3,0c1.21.14,1.72-.34,1.53-1.54-.21-1.36.23-1.84,1.72-1.85,1.77,0,1.25,1.11,1.29,2S429.7,480.31,429.7,481.23Z"/><path class="cls-1" d="M416.94,486c-1.77-.05-3.31.65-4.12-1.29-.24-.56-5.7-.48-6,.08-.86,1.91-2.37,1.13-4,1.23,1.64-3,3.1-5.88,4.68-8.65.72-1.27,3.95-1.2,4.69.09C413.77,480.15,415.24,482.91,416.94,486Zm-7.08-6.87a7.57,7.57,0,0,0-1.41,3.17c1-.35,2.22.42,2.62-.44S410.4,480.19,409.86,479.11Z"/><path class="cls-1" d="M391.37,480.31c0,5.47-.41,5.88-5.86,5.87a21.49,21.49,0,0,1-2.54-.06c-2.54-.29-3.29-1.15-3.32-3.74,0-1.39.07-2.78,0-4.16s.19-1.73,1.59-1.73,1.44.68,1.38,1.7c0,.76,0,1.53,0,2.3,0,3.07,0,2.95,3,3.11,2.17.11,3.18-.54,2.91-2.83-.12-1,.05-2,0-3s.37-1.3,1.33-1.26,1.72-.09,1.57,1.26A21.34,21.34,0,0,0,391.37,480.31Z"/><path class="cls-1" d="M398.29,476.54c1.38,0,2.76,0,4.14,0,.95,0,1.15.37,1.15,1.22s-.29,1.36-1.19,1.18c-2.62-.53-3.11.82-2.79,3,.12.83-.05,1.7,0,2.53.11,1.18-.26,1.61-1.51,1.6s-1.66-.43-1.54-1.62c.08-.76-.06-1.54,0-2.3.27-2.21-.05-3.81-2.89-3.23-.92.19-1.17-.3-1.15-1.17s.1-1.29,1.1-1.24C395.21,476.6,396.75,476.54,398.29,476.54Z"/><path class="cls-2" d="M400.55,109.43c.16.19.31.39.46.58-.84.23-1.12,1-1.53,1.64l-4.58,6.94c-9.51,14.4-19,28.82-28.56,43.18-1.06,1.59-.84,2.24.85,2.95,2.12.89,4.14,2,6.21,3.07l49.8,24.87v.07c-.8.44-1.59.92-2.41,1.34q-26.73,13.4-53.47,26.74c-1.67.83-2.07,1.33-.91,3.09q17.25,26,34.33,52l-.09.17c-1.3,0-2.61,0-3.91-.08-19.36-1.15-38.72-2.29-58.06-3.54-2.24-.14-2.66.54-2.52,2.6.71,10.44,1.27,20.89,1.9,31.33q.92,15.09,1.87,30.18l-.73.34-18.71-12.33q-16.59-10.94-33.19-21.86c-.74-.49-1.52-1.73-2.42.08q-13.87,27.9-27.83,55.77h-1.32Q241.86,330.85,228,303.08c-.91-1.84-1.67-.87-2.6-.26L174.3,336.47l-1.42-.8a86.75,86.75,0,0,0,.66-9.66c1-17.05,2-34.1,3.1-51.14.12-1.95-.31-2.52-2.32-2.37-7.21.55-14.43.94-21.65,1.38l-38.92,2.37-1-1.7q17-25.69,34-51.38c.84-1.26.16-1.53-.73-2L129.79,213,91.16,193.81c0-.66,0-1.32-.08-2a7,7,0,0,0,.88-.29q27.12-13.6,54.26-27.18c1.42-.71,1-1.25.4-2.2-4.18-6.27-8.31-12.59-12.47-18.88q-10.7-16.16-21.42-32.31a2.4,2.4,0,0,1,.9-1.51q30.54,1.79,61.08,3.61c1.75.11,2-.52,1.92-2.08-.53-8-.94-16-1.43-24q-1.14-18.67-2.31-37.33l1.29-.71Q200,66,225.8,83.11c1.37.91,1.74.32,2.29-.82C231,76.35,234,70.45,237,64.53l18.85-37.77h1.13c.36.77.69,1.54,1.07,2.3l26.05,52c1.47,2.93,1.47,2.93,4.29,1.07L339.49,48.5a2.41,2.41,0,0,1,.42.16c-.15,2.15-.31,4.3-.44,6.45q-.89,14.17-1.75,28.36c-.54,9.15-1,18.31-1.58,27.45-.12,1.75.36,2.26,2.14,2.12,4.45-.36,8.92-.49,13.38-.75Q376.11,110.88,400.55,109.43Zm-187.06,102c-7.28-4.24-14.33-8.3-21.35-12.44a2.69,2.69,0,0,0-3.13-.07q-12.78,7.44-25.63,14.73A2.37,2.37,0,0,0,162,216q0,14.79-.15,29.6a2.67,2.67,0,0,0,1.59,2.69q12.71,7.32,25.35,14.73a2.7,2.7,0,0,0,3.14,0q12.66-7.38,25.43-14.59a2.83,2.83,0,0,0,1.63-2.91c-.06-7.33,0-14.66-.06-22,0-1.89.23-2.31,2.06-1.23,9.62,5.66,19.3,11.21,29,16.81.5.29,1.19.41,1.31,1.26-6.85,3.92-13.72,7.87-20.62,11.79a2.65,2.65,0,0,0-1.71,2.62q.09,14.8-.07,29.6a2.65,2.65,0,0,0,1.65,2.64q12.6,7.26,25.15,14.62a2.81,2.81,0,0,0,3.31.06q12.56-7.33,25.23-14.47a2.86,2.86,0,0,0,1.73-2.86q-.11-14.69,0-29.37a2.66,2.66,0,0,0-1.58-2.69c-6.36-3.61-12.67-7.3-19-11-.61-.36-1.45-.52-1.8-1.48L295,221.82c0,8.21,0,16,0,23.78a2.68,2.68,0,0,0,1.55,2.72q12.72,7.29,25.35,14.73a2.69,2.69,0,0,0,3.14,0q12.67-7.37,25.44-14.58a2.67,2.67,0,0,0,1.57-2.71q-.09-14.81,0-29.61a2.31,2.31,0,0,0-1.32-2.35q-12.81-7.37-25.56-14.85a2.69,2.69,0,0,0-3.12,0c-6.25,3.65-12.56,7.19-18.8,10.86-1.63,1-2.11.92-2.09-1.18.09-10.1,0-20.2,0-30.3a7.1,7.1,0,0,1,.5-3.2c6.83,4,13.49,7.8,20.1,11.73a2.84,2.84,0,0,0,3.32,0q12.66-7.38,25.43-14.59a2.63,2.63,0,0,0,1.5-2.71c-.05-9.79-.07-19.59,0-29.38a2.66,2.66,0,0,0-1.58-2.67q-12.72-7.31-25.36-14.73a2.49,2.49,0,0,0-2.91,0q-12.78,7.42-25.63,14.71a2.66,2.66,0,0,0-1.5,2.74c.05,7.17,0,14.34,0,21.51V164l-31.71-18.36c7.16-4.11,13.93-8,20.75-11.88a3,3,0,0,0,1.82-3q-.12-14.46,0-28.92a3.2,3.2,0,0,0-1.92-3.2q-12.53-7.17-24.95-14.5a2.67,2.67,0,0,0-3.11,0q-12.67,7.36-25.43,14.58a2.68,2.68,0,0,0-1.59,2.69q.06,14.7-.07,29.38a2.65,2.65,0,0,0,1.56,2.69c6.49,3.69,12.93,7.47,19.37,11.25.47.27,1.23.32,1.27,1.24l-32.11,18.46v-1.89c0-7.4,0-14.81,0-22.21a2.72,2.72,0,0,0-1.54-2.75q-12.72-7.28-25.36-14.71a2.48,2.48,0,0,0-2.91-.13q-12.87,7.49-25.82,14.83a2.36,2.36,0,0,0-1.36,2.37q0,14.69-.15,29.37a2.86,2.86,0,0,0,1.64,2.91c7,3.95,14.1,7.66,20.7,12.15,4.51,3.08,8.23,3.54,12.35-.08a13.49,13.49,0,0,1,2.39-1.4l14.58-8.33Z"/><path class="cls-3" d="M423.2,192.66l-49.8-24.87c-2.07-1-4.09-2.18-6.21-3.07-1.69-.71-1.91-1.36-.85-2.95,9.57-14.36,19.05-28.78,28.56-43.18l4.58-6.94c.41-.64.69-1.41,1.53-1.64,2.69,3.32,4.3,7.25,6.12,11a163.14,163.14,0,0,1,15.74,59.15A112.71,112.71,0,0,1,423.2,192.66Z"/><path class="cls-3" d="M400.74,276q-17.14-26-34.33-52c-1.16-1.76-.76-2.26.91-3.09q26.78-13.31,53.47-26.74c.82-.42,1.61-.9,2.41-1.34a153.61,153.61,0,0,1-5.81,44.16,160.21,160.21,0,0,1-15,36.58C401.91,274.33,401.29,275.12,400.74,276Z"/><path class="cls-3" d="M400.55,109.43q-24.43,1.42-48.89,2.86c-4.46.26-8.93.39-13.38.75-1.78.14-2.26-.37-2.14-2.12.58-9.14,1-18.3,1.58-27.45q.84-14.18,1.75-28.36c.13-2.15.29-4.3.44-6.45a164,164,0,0,1,47.65,41,160.54,160.54,0,0,1,12.2,17.65C400.15,108,400.75,108.56,400.55,109.43Z"/><path class="cls-3" d="M339.93,336.61q-.93-15.09-1.87-30.18c-.63-10.44-1.19-20.89-1.9-31.33-.14-2.06.28-2.74,2.52-2.6,19.34,1.25,38.7,2.39,58.06,3.54,1.3.08,2.61.06,3.91.08-2.72,5.64-6.4,10.68-10.12,15.67a165.55,165.55,0,0,1-48.36,43.65C341.45,335.87,340.68,336.22,339.93,336.61Z"/><path class="cls-3" d="M339.49,48.5,288.35,82.18c-2.82,1.86-2.82,1.86-4.29-1.07L258,29.07c-.38-.76-.71-1.53-1.07-2.3a139.71,139.71,0,0,1,32.32,2.88,162.76,162.76,0,0,1,49.11,18.06A13.44,13.44,0,0,1,339.49,48.5Z"/><path class="cls-3" d="M257.05,358.61q13.93-27.89,27.83-55.77c.9-1.81,1.68-.57,2.42-.08q16.6,10.9,33.19,21.86L339.2,337c-6,4-12.55,6.82-19.16,9.53a161.7,161.7,0,0,1-49.39,11.74A104.64,104.64,0,0,1,257.05,358.61Z"/><path class="cls-3" d="M255.81,26.76,237,64.53c-3,5.92-6,11.82-8.87,17.76-.55,1.14-.92,1.73-2.29.82Q200,66,174.18,49a132.12,132.12,0,0,1,24.07-11.62,162.77,162.77,0,0,1,54.8-10.71C254,26.64,254.89,26.72,255.81,26.76Z"/><path class="cls-3" d="M174.3,336.47l51.11-33.65c.93-.61,1.69-1.58,2.6.26q13.8,27.8,27.72,55.53a129.84,129.84,0,0,1-25.29-2,164.44,164.44,0,0,1-54.42-19C175.42,337.27,174.87,336.85,174.3,336.47Z"/><path class="cls-3" d="M172.89,49.69Q174,68.35,175.2,87c.49,8,.9,16,1.43,24,.11,1.56-.17,2.19-1.92,2.08q-30.54-1.86-61.08-3.61A122.45,122.45,0,0,1,126,90.86a166.27,166.27,0,0,1,44.65-40C171.38,50.45,172.14,50.09,172.89,49.69Z"/><path class="cls-3" d="M113.75,276.25l38.92-2.37c7.22-.44,14.44-.83,21.65-1.38,2-.15,2.44.42,2.32,2.37-1.09,17-2.06,34.09-3.1,51.14a86.75,86.75,0,0,1-.66,9.66,143.81,143.81,0,0,1-23.34-16.53,166.4,166.4,0,0,1-35.29-41.86A10.84,10.84,0,0,1,113.75,276.25Z"/><path class="cls-3" d="M112.73,111q10.71,16.16,21.42,32.31c4.16,6.29,8.29,12.61,12.47,18.88.63,1,1,1.49-.4,2.2Q119.06,177.89,92,191.54a7,7,0,0,1-.88.29,165.29,165.29,0,0,1,21.11-80.14A7.51,7.51,0,0,1,112.73,111Z"/><path class="cls-3" d="M91.16,193.81,129.79,213l16.3,8.15c.89.45,1.57.72.73,2q-17.07,25.65-34,51.38a155.1,155.1,0,0,1-15.73-37.74,158.35,158.35,0,0,1-5.76-37.72A26.62,26.62,0,0,1,91.16,193.81Z"/><path class="cls-4" d="M218,447.46a7,7,0,0,1-6.89-7,6.93,6.93,0,0,1,7.06-6.75,7,7,0,0,1,6.94,6.92A7.12,7.12,0,0,1,218,447.46Z"/><path class="cls-4" d="M353.31,446.93a6.86,6.86,0,0,1-6.82-6.73,6.9,6.9,0,1,1,6.82,6.73Z"/><path class="cls-4" d="M319.41,437.4c.09-1.91-.54-4.46.44-5.55,1.15-1.26,3.76-.2,5.71-.43,2.14-.26,2.59.32,1.94,2.46a23.36,23.36,0,0,0-.34,11.18c.22,1.17.08,1.39-1.09,1.44-5.19.21-6.57-1.08-6.57-6.33,0-.92,0-1.85,0-2.77Z"/><path class="cls-4" d="M109.51,416.32c3.77,0,5.39.83,6,3.06a5,5,0,0,1-4.78,6.34c-4.35.25-4.35.25-4.35-4v-2.3C106.34,416.32,106.34,416.32,109.51,416.32Z"/><path class="cls-4" d="M106.19,445.5c0-4.83,0-4.83,4.59-4.66,2.69.1,4.12,1.26,4.52,3.67a4.74,4.74,0,0,1-3,5.33,6.34,6.34,0,0,1-.87.29C106.81,451.11,106.19,450.56,106.19,445.5Z"/><path class="cls-4" d="M409.86,479.11c.54,1.08,1.57,1.93,1.21,2.73s-1.62.09-2.62.44A7.57,7.57,0,0,1,409.86,479.11Z"/><path class="cls-5" d="M213.49,211.44V174.56l-14.58,8.33a13.49,13.49,0,0,0-2.39,1.4c-4.12,3.62-7.84,3.16-12.35.08-6.6-4.49-13.74-8.2-20.7-12.15a2.86,2.86,0,0,1-1.64-2.91q.16-14.69.15-29.37a2.36,2.36,0,0,1,1.36-2.37q12.94-7.35,25.82-14.83a2.48,2.48,0,0,1,2.91.13q12.65,7.42,25.36,14.71a2.72,2.72,0,0,1,1.54,2.75c-.06,7.4,0,14.81,0,22.21v1.89L251.05,146c0-.92-.8-1-1.27-1.24-6.44-3.78-12.88-7.56-19.37-11.25a2.65,2.65,0,0,1-1.56-2.69q.12-14.68.07-29.38a2.68,2.68,0,0,1,1.59-2.69q12.75-7.23,25.43-14.58a2.67,2.67,0,0,1,3.11,0q12.43,7.32,24.95,14.5a3.2,3.2,0,0,1,1.92,3.2q-.15,14.46,0,28.92a3,3,0,0,1-1.82,3c-6.82,3.84-13.59,7.77-20.75,11.88L295.05,164v-2.28c0-7.17,0-14.34,0-21.51a2.66,2.66,0,0,1,1.5-2.74q12.86-7.26,25.63-14.71a2.49,2.49,0,0,1,2.91,0q12.63,7.44,25.36,14.73a2.66,2.66,0,0,1,1.58,2.67c-.08,9.79-.06,19.59,0,29.38a2.63,2.63,0,0,1-1.5,2.71q-12.78,7.2-25.43,14.59a2.84,2.84,0,0,1-3.32,0c-6.61-3.93-13.27-7.76-20.1-11.73a7.1,7.1,0,0,0-.5,3.2c0,10.1.05,20.2,0,30.3,0,2.1.46,2.14,2.09,1.18,6.24-3.67,12.55-7.21,18.8-10.86a2.69,2.69,0,0,1,3.12,0q12.74,7.5,25.56,14.85a2.31,2.31,0,0,1,1.32,2.35q-.08,14.81,0,29.61a2.67,2.67,0,0,1-1.57,2.71q-12.76,7.2-25.44,14.58a2.69,2.69,0,0,1-3.14,0q-12.63-7.44-25.35-14.73a2.68,2.68,0,0,1-1.55-2.72c.06-7.78,0-15.57,0-23.78l-31.43,18.07c.35,1,1.19,1.12,1.8,1.48,6.31,3.7,12.62,7.39,19,11a2.66,2.66,0,0,1,1.58,2.69q-.09,14.69,0,29.37a2.86,2.86,0,0,1-1.73,2.86q-12.66,7.15-25.23,14.47a2.81,2.81,0,0,1-3.31-.06q-12.54-7.38-25.15-14.62a2.65,2.65,0,0,1-1.65-2.64q.15-14.79.07-29.6a2.65,2.65,0,0,1,1.71-2.62c6.9-3.92,13.77-7.87,20.62-11.79-.12-.85-.81-1-1.31-1.26-9.66-5.6-19.34-11.15-29-16.81-1.83-1.08-2.07-.66-2.06,1.23.08,7.32,0,14.65.06,22a2.83,2.83,0,0,1-1.63,2.91q-12.76,7.2-25.43,14.59a2.7,2.7,0,0,1-3.14,0q-12.63-7.44-25.35-14.73a2.67,2.67,0,0,1-1.59-2.69q.16-14.81.15-29.6a2.37,2.37,0,0,1,1.4-2.35q12.85-7.29,25.63-14.73a2.69,2.69,0,0,1,3.13.07C199.16,203.14,206.21,207.2,213.49,211.44Z"/></svg>