<svg xmlns="http://www.w3.org/2000/svg" xmlns:xlink="http://www.w3.org/1999/xlink" viewBox="0 0 512 512"><defs><style>.cls-1,.cls-21{fill:none;}.cls-2{fill:#2d6076;opacity:0.79;}.cls-3{clip-path:url(#clip-path);}.cls-4{fill:#70acc2;}.cls-5{fill:#2e8d4b;}.cls-6{fill:#1c7d3a;}.cls-7{fill:#fff;}.cls-8{fill:#7a5728;}.cls-9{fill:#6b4d22;}.cls-10{fill:#dbf6ff;}.cls-11{fill:#ae392d;}.cls-12{fill:#e64c3c;}.cls-13{fill:#d34232;}.cls-14{fill:#88d3e3;}.cls-15{fill:#c0e6f0;}.cls-16{fill:#c9e0da;}.cls-17{fill:#58595b;}.cls-18{fill:#4f5052;}.cls-19{fill:#ff9e53;}.cls-20{fill:#f2f2f2;opacity:0.15;}.cls-21{stroke:#71a6ba;stroke-miterlimit:10;stroke-width:3.4px;}.cls-22{fill:#5a3a1b;}.cls-23{opacity:0.16;}.cls-24{fill:#704d2e;}.cls-25{fill:#745638;}.cls-26{opacity:0.2;}.cls-27{fill:#eebc5a;}.cls-28{opacity:0.05;}.cls-29{fill:#c69a4b;}</style><clipPath id="clip-path"><ellipse class="cls-1" cx="259.85" cy="218.8" rx="171.5" ry="173.5"/></clipPath></defs><g id="Globe"><ellipse class="cls-2" cx="260.03" cy="218.54" rx="170.69" ry="175.3"/><g class="cls-3"><path class="cls-4" d="M324.89,326l-42.63-174.7c-1.8-7.6-6-8.27-6-8.27s-4.18.67-6,8.27L227.67,326S223.8,337,238.12,337h76.32c14.32,0,10.45-11.08,10.45-11.08Z"/><path class="cls-4" d="M422.77,339.88l-36-147.37c-1.51-6.4-5-7-5-7s-3.53.57-5,7l-36,147.37s-3.27,9.34,8.81,9.34H414c12.08,0,8.81-9.34,8.81-9.34Z"/><path class="cls-4" d="M275.72,333.08l-36-147.37c-1.52-6.41-5.05-7-5.05-7s-3.52.57-5,7l-36,147.37s-3.26,9.34,8.82,9.34h64.37c12.08,0,8.81-9.34,8.81-9.34Z"/><path class="cls-4" d="M170.59,319.37,134.63,172c-1.51-6.4-5-7-5-7s-3.53.57-5,7L88.59,319.37s-3.27,9.34,8.81,9.34h64.38c12.07,0,8.81-9.34,8.81-9.34Z"/><path class="cls-5" d="M168.48,114.33,125.85,289S122,300.11,136.3,300.11h38.16v-194s-4.18.67-6,8.27Z"/><path class="cls-6" d="M223.07,289l-42.63-174.7c-1.8-7.6-6-8.27-6-8.27V300.11h38.16c14.32,0,10.45-11.08,10.45-11.08Z"/><path class="cls-7" d="M329.11,122.88a6.23,6.23,0,1,1-6.23-6.3,6.27,6.27,0,0,1,6.23,6.3Z"/><polygon class="cls-8" points="162.82 300.11 162.82 323.89 174.46 323.89 174.46 300.11 162.82 300.11 162.82 300.11"/><polygon class="cls-9" points="186.09 300.11 174.46 300.11 174.46 323.89 186.09 323.89 186.09 300.11 186.09 300.11"/><path class="cls-7" d="M396,324H123.47a174.62,174.62,0,0,0,23.25,25.12h226A174.06,174.06,0,0,0,396,324Z"/><path class="cls-10" d="M372.72,349.09h-226a170,170,0,0,0,226,0Z"/><path class="cls-7" d="M176.74,210.67a1.88,1.88,0,0,0,0,3.76c1.52,0,1.66-1.59,1.66-1.87s-.14-1.89-1.66-1.89Z"/><path class="cls-7" d="M151.74,190.67a1.88,1.88,0,0,0,0,3.76c1.52,0,1.66-1.59,1.66-1.87s-.14-1.89-1.66-1.89Z"/><path class="cls-7" d="M193.29,288.17a1.74,1.74,0,0,0-1.75,2,1.65,1.65,0,0,0,1.75,1.84c1.5,0,1.64-1.54,1.64-1.84s-.14-2-1.64-2Z"/><path class="cls-7" d="M105,224c0-.48,0-2-1.49-2a1.7,1.7,0,0,0-1.77,2,1.6,1.6,0,0,0,1.77,1.76c1.49,0,1.49-1.44,1.49-1.76Z"/><path class="cls-7" d="M240.48,241.66a1.84,1.84,0,0,0,0,3.68,1.84,1.84,0,0,0,0-3.68Z"/><path class="cls-7" d="M244.55,131.15a1.84,1.84,0,0,0,0,3.67,1.84,1.84,0,0,0,0-3.67Z"/><path class="cls-7" d="M269.55,81.15a1.84,1.84,0,0,0,0,3.67,1.84,1.84,0,0,0,0-3.67Z"/><path class="cls-7" d="M157.35,235.8a1.84,1.84,0,0,0,0,3.68,1.84,1.84,0,0,0,0-3.68Z"/><path class="cls-7" d="M151.68,157.6a1.87,1.87,0,0,0,0-3.73,1.74,1.74,0,0,0-1.67,1.86c0,.35.17,1.87,1.67,1.87Z"/><path class="cls-7" d="M170.68,144.6a1.87,1.87,0,0,0,0-3.73,1.74,1.74,0,0,0-1.67,1.86c0,.35.17,1.87,1.67,1.87Z"/><path class="cls-7" d="M230.32,144.38a1.67,1.67,0,0,0-1.65-1.84,1.63,1.63,0,0,0-1.67,1.84,1.6,1.6,0,0,0,1.67,1.79,1.64,1.64,0,0,0,1.65-1.79Z"/><path class="cls-7" d="M164.32,131.38a1.67,1.67,0,0,0-1.65-1.84,1.63,1.63,0,0,0-1.67,1.84,1.6,1.6,0,0,0,1.67,1.79,1.64,1.64,0,0,0,1.65-1.79Z"/><path class="cls-7" d="M137.3,326.6a1.88,1.88,0,0,0,0,3.75c1.52,0,1.66-1.59,1.66-1.86s-.14-1.89-1.66-1.89Z"/><path class="cls-7" d="M121.27,278.65a1.67,1.67,0,0,0-1.64-1.84,1.63,1.63,0,0,0-1.67,1.84,1.6,1.6,0,0,0,1.67,1.79,1.64,1.64,0,0,0,1.64-1.79Z"/><path class="cls-7" d="M127.57,148.36c.23-.07-.17-.12,0,0Z"/><path class="cls-7" d="M127.7,148.47c-.07-.08-.07-.08-.13-.11h-.09c.15,0,.15,0,.22.11Z"/><path class="cls-7" d="M127.3,170a1.62,1.62,0,0,0-1.72,1.79A1.74,1.74,0,1,0,127.3,170Z"/><path class="cls-7" d="M121.54,161.5a1.66,1.66,0,0,0-1.77,1.86,1.64,1.64,0,0,0,1.77,1.84,1.73,1.73,0,0,0,1.67-1.84c0-.32-.17-1.86-1.67-1.86Z"/><path class="cls-7" d="M206.23,79a1.87,1.87,0,0,0,0-3.73c-1.5,0-1.67,1.51-1.67,1.86s.17,1.87,1.67,1.87Z"/><path class="cls-7" d="M181.85,91.39a1.82,1.82,0,0,0,0,3.64,1.82,1.82,0,0,0,0-3.64Z"/><path class="cls-7" d="M176.09,82.9a1.67,1.67,0,0,0-1.77,1.87,1.64,1.64,0,0,0,1.77,1.83,1.73,1.73,0,0,0,1.67-1.83c0-.33-.17-1.87-1.67-1.87Z"/><path class="cls-7" d="M220.48,108.2c-4.76,0-4.76,7.38,0,7.38,4.55,0,4.55-7.38,0-7.38Z"/><path class="cls-7" d="M232.48,68.2c-4.76,0-4.76,7.38,0,7.38,4.55,0,4.55-7.38,0-7.38Z"/><path class="cls-7" d="M278.14,129.53a1.83,1.83,0,0,0,0,3.65,1.83,1.83,0,0,0,0-3.65Z"/><path class="cls-7" d="M300.14,63.53a1.83,1.83,0,0,0,0,3.65,1.83,1.83,0,0,0,0-3.65Z"/><path class="cls-7" d="M388.24,149.7a1.8,1.8,0,0,0-1.74,1.81,1.77,1.77,0,0,0,1.74,1.84,1.83,1.83,0,0,0,0-3.65Z"/><path class="cls-7" d="M392.2,162.66a1.64,1.64,0,0,0,1.72,1.86,1.79,1.79,0,0,0,1.74-1.86,1.82,1.82,0,0,0-1.74-1.82,1.65,1.65,0,0,0-1.72,1.82Z"/><path class="cls-7" d="M346.23,106.67a1.72,1.72,0,0,0-1.77,2,1.66,1.66,0,0,0,1.77,1.82c1.49,0,1.62-1.57,1.62-1.82,0-.41-.13-2-1.62-2Z"/><path class="cls-7" d="M346.23,88.67a1.72,1.72,0,0,0-1.77,2,1.66,1.66,0,0,0,1.77,1.82c1.49,0,1.62-1.57,1.62-1.82,0-.41-.13-2-1.62-2Z"/><path class="cls-7" d="M293.7,122a1.64,1.64,0,0,0,1.71,1.87,1.85,1.85,0,0,0,0-3.69A1.64,1.64,0,0,0,293.7,122Z"/><path class="cls-7" d="M219.7,60a1.64,1.64,0,0,0,1.71,1.87,1.85,1.85,0,0,0,0-3.69A1.64,1.64,0,0,0,219.7,60Z"/><path class="cls-7" d="M316,83.55a1.64,1.64,0,0,0,1.72,1.86,1.8,1.8,0,0,0,1.75-1.86,1.82,1.82,0,0,0-1.75-1.82A1.64,1.64,0,0,0,316,83.55Z"/><path class="cls-7" d="M286,94.55a1.64,1.64,0,0,0,1.72,1.86,1.8,1.8,0,0,0,1.75-1.86,1.82,1.82,0,0,0-1.75-1.82A1.64,1.64,0,0,0,286,94.55Z"/><path class="cls-7" d="M207.58,166.84a1.65,1.65,0,0,0,1.72,1.87,1.85,1.85,0,0,0,0-3.69,1.64,1.64,0,0,0-1.72,1.82Z"/><path class="cls-7" d="M373.39,119.24a1.83,1.83,0,0,0,0,3.66,1.83,1.83,0,0,0,0-3.66Z"/><path class="cls-7" d="M404.36,137.24c-1.54,0-1.74,1.6-1.74,2a1.81,1.81,0,0,0,1.74,1.83,1.64,1.64,0,0,0,1.67-1.83c0-.4,0-2-1.67-2Z"/><path class="cls-7" d="M357.2,136.81c0,4.82,7.19,4.82,7.19,0,0-4.64-7.19-4.64-7.19,0Z"/><path class="cls-7" d="M101.34,201c0,4.69,7.23,4.69,7.23,0s-7.23-4.59-7.23,0Z"/><path class="cls-7" d="M136.88,137.48c0,4.68,7.23,4.68,7.23,0s-7.23-4.6-7.23,0Z"/><path class="cls-7" d="M146.88,106.48c0,4.68,7.23,4.68,7.23,0s-7.23-4.6-7.23,0Z"/><path class="cls-7" d="M255.35,86.93a1.65,1.65,0,0,0,1.72,1.87,1.85,1.85,0,0,0,0-3.69,1.64,1.64,0,0,0-1.72,1.82Z"/><path class="cls-7" d="M155.63,267.08c-4.76,0-4.76,7.37,0,7.37,4.58,0,4.58-7.37,0-7.37Z"/><path class="cls-7" d="M129.63,240.08c-4.76,0-4.76,7.37,0,7.37,4.58,0,4.58-7.37,0-7.37Z"/><path class="cls-7" d="M263.9,56.37c-4.76,0-4.76,7.37,0,7.37,4.58,0,4.58-7.37,0-7.37Z"/><path class="cls-7" d="M254.37,367.35a5.5,5.5,0,0,1-5.47,5.53H202.11a5.5,5.5,0,0,1-5.47-5.53h0a5.51,5.51,0,0,1,5.47-5.54H248.9a5.51,5.51,0,0,1,5.47,5.54Z"/><path class="cls-7" d="M300.78,367.35a5.5,5.5,0,0,1-5.47,5.53H276.83a5.5,5.5,0,0,1-5.47-5.53h0a5.51,5.51,0,0,1,5.47-5.54h18.48a5.51,5.51,0,0,1,5.47,5.54Z"/></g><polygon class="cls-11" points="342.39 158.84 323.64 158.84 323.64 190.1 342.39 190.1 342.39 158.84 342.39 158.84"/><path class="cls-7" d="M391.22,245.76a1.92,1.92,0,0,1-1.92,1.92h0a1.92,1.92,0,0,1-1.92-1.92v-5.44a1.92,1.92,0,0,1,1.92-1.92h0a1.92,1.92,0,0,1,1.92,1.92v5.44Z"/><path class="cls-7" d="M385.68,245.76a1.92,1.92,0,0,1-1.92,1.92h0a1.91,1.91,0,0,1-1.91-1.92v-5.44a1.91,1.91,0,0,1,1.91-1.92h0a1.92,1.92,0,0,1,1.92,1.92v5.44Z"/><path class="cls-7" d="M242.86,246.81a1.92,1.92,0,0,1-1.92,1.92h0a1.92,1.92,0,0,1-1.92-1.92v-5.45a1.92,1.92,0,0,1,1.92-1.92h0a1.92,1.92,0,0,1,1.92,1.92v5.45Z"/><path class="cls-7" d="M236.56,244.09a1.91,1.91,0,0,1-1.92,1.91h0a1.91,1.91,0,0,1-1.92-1.91v-5.45a1.92,1.92,0,0,1,1.92-1.92h0a1.92,1.92,0,0,1,1.92,1.92v5.45Z"/><polygon class="cls-11" points="235.76 241.71 244.31 241.71 312.28 186.02 380.69 241.71 389.24 241.71 389.3 241.62 312.59 178.57 235.76 241.71 235.76 241.71"/><polygon class="cls-12" points="244.31 241.71 245.52 241.71 244.31 241.71 244.31 324.07 380.69 324.07 380.69 241.71 379.71 241.71 380.69 241.71 312.28 186.02 244.31 241.71 244.31 241.71"/><polygon class="cls-13" points="308.43 309.92 258.11 309.92 258.11 255.04 308.43 255.04 308.43 309.92 308.43 309.92"/><polygon class="cls-13" points="366.9 309.92 316.58 309.92 316.58 255.04 366.9 255.04 366.9 309.92 366.9 309.92"/><path class="cls-7" d="M391.22,241.71a5.26,5.26,0,0,1-3.34-1.19L312.5,178.58l-75.37,61.94a5.27,5.27,0,0,1-6.68-8.14l78.71-64.68a5.27,5.27,0,0,1,6.68,0l78.72,64.68a5.26,5.26,0,0,1-3.34,9.33Z"/><path class="cls-7" d="M303.17,181.65a7.68,7.68,0,1,1-7.68-7.68,7.67,7.67,0,0,1,7.68,7.68Z"/><path class="cls-7" d="M364.85,202.46a7.67,7.67,0,1,1-7.67-7.67,7.67,7.67,0,0,1,7.67,7.67Z"/><path class="cls-7" d="M388.72,223.94a5,5,0,1,1-5-4.94,5,5,0,0,1,5,4.94Z"/><path class="cls-7" d="M275.09,196a7,7,0,0,1-.87,9.84l-13.84,11.57a7,7,0,0,1-9.84-.88h0a7,7,0,0,1,.88-9.83l13.84-11.57a7,7,0,0,1,9.83.87Z"/><path class="cls-7" d="M323.3,174.21A5.55,5.55,0,0,0,324,182l11,9.2a5.54,5.54,0,0,0,7.81-.7h0a5.54,5.54,0,0,0-.69-7.81l-11-9.2a5.55,5.55,0,0,0-7.82.7Z"/><path class="cls-7" d="M396.48,249.33a3.24,3.24,0,0,1-3.24,3.25h0a3.24,3.24,0,0,1-3.24-3.25V236.75a3.24,3.24,0,0,1,3.24-3.25h0a3.24,3.24,0,0,1,3.24,3.25v12.58Z"/><path class="cls-7" d="M235,246a3.24,3.24,0,0,1-3.24,3.24h0a3.24,3.24,0,0,1-3.24-3.24v-9.23a3.24,3.24,0,0,1,3.24-3.25h0a3.24,3.24,0,0,1,3.24,3.25V246Z"/><path class="cls-7" d="M345.56,155.58a3.27,3.27,0,0,1-3.27,3.26H323.83a3.26,3.26,0,0,1-3.27-3.26h0a3.26,3.26,0,0,1,3.27-3.27h18.46a3.27,3.27,0,0,1,3.27,3.27Z"/><path class="cls-14" d="M354.68,302.12h-27c-3.5,0-3.92-.67-3.92-3V266.76c0-2.32.42-4.2,3.92-4.2h27.65c3.49,0,3.91,1.27,3.91,3.59v32.37c0,2.32-.42,3.6-3.91,3.6"/><polyline class="cls-15" points="323.76 288.7 323.76 282.54 350.74 262.8 358.6 264.01 323.76 288.7"/><path class="cls-15" d="M324.12,294.25c-.25-.09.22-1.05,0-1.21v-1.81l35.08-24.47v3.46l-35.08,24"/><path class="cls-14" d="M296.68,302.32H269.63c-3.5,0-3.91-.67-3.91-3V267c0-2.32.41-4.2,3.91-4.2h27.65c3.5,0,3.92,1.28,3.92,3.59v32.38c0,2.32-.42,3.59-3.92,3.59"/><polyline class="cls-15" points="265.76 288.9 265.76 282.74 292.73 263 300.59 264.21 265.76 288.9"/><path class="cls-15" d="M266.12,294.46c-.26-.1.21-1.06,0-1.21v-1.82L301.2,267v3.46l-35.08,24"/><path class="cls-7" d="M349.59,214.83a6.23,6.23,0,1,1-6.23-6.3,6.27,6.27,0,0,1,6.23,6.3Z"/><path class="cls-7" d="M369,232.48a4,4,0,1,1-4-4.06,4,4,0,0,1,4,4.06Z"/><path class="cls-7" d="M244.14,258.88a2.63,2.63,0,1,1-2.63-2.66,2.65,2.65,0,0,1,2.63,2.66Z"/><path class="cls-7" d="M225.49,183.11a1.88,1.88,0,0,0,0,3.75c1.53,0,1.67-1.59,1.67-1.86s-.14-1.89-1.67-1.89Z"/><path class="cls-7" d="M370.68,237.37a1.84,1.84,0,0,0-1.91,1.8,1.84,1.84,0,1,0,3.67,0c0-.2-.23-1.8-1.76-1.8Z"/><path class="cls-7" d="M300.27,145.65a1.73,1.73,0,0,0-1.77,2,1.66,1.66,0,0,0,1.77,1.81c1.49,0,1.62-1.56,1.62-1.81,0-.41-.13-2-1.62-2Z"/><path class="cls-7" d="M319.63,146.8c-1.57,0-1.77,1.67-1.77,1.82a1.8,1.8,0,0,0,1.77,1.89,1.64,1.64,0,0,0,1.67-1.89,1.67,1.67,0,0,0-1.67-1.82Z"/><path class="cls-7" d="M360,294.15a1.83,1.83,0,0,0,0,3.66,1.83,1.83,0,0,0,0-3.66Z"/><path class="cls-7" d="M323.77,238.48a1.83,1.83,0,0,0,0,3.66,1.83,1.83,0,0,0,0-3.66Z"/><path class="cls-7" d="M389.36,206.59c0,4.81,7.18,4.81,7.18,0,0-4.64-7.18-4.64-7.18,0Z"/><path class="cls-7" d="M375.55,286.63a1.65,1.65,0,0,0,1.72,1.87,1.84,1.84,0,0,0,0-3.68,1.64,1.64,0,0,0-1.72,1.81Z"/><path class="cls-7" d="M291.53,243a1.65,1.65,0,0,0,1.72,1.87,1.84,1.84,0,0,0,0-3.68,1.64,1.64,0,0,0-1.72,1.81Z"/><path class="cls-7" d="M334.88,305.11c-1.57,0-1.78,1.67-1.78,1.82a1.81,1.81,0,0,0,1.78,1.89,1.64,1.64,0,0,0,1.66-1.89,1.67,1.67,0,0,0-1.66-1.82Z"/><path class="cls-7" d="M255.35,194.64c-4.76,0-4.76,7.36,0,7.36,4.58,0,4.58-7.36,0-7.36Z"/><path class="cls-7" d="M279.71,167.68a1.83,1.83,0,1,0,1.72,1.82,1.63,1.63,0,0,0-1.72-1.82Z"/><path class="cls-7" d="M331,210c0-.48,0-2-1.49-2a1.7,1.7,0,0,0-1.77,2,1.59,1.59,0,0,0,1.77,1.76c1.49,0,1.49-1.43,1.49-1.76Z"/><path class="cls-7" d="M226.65,324.67V290.86a25.21,25.21,0,0,0-25.07,25.36,25.66,25.66,0,0,0,1.43,8.45Z"/><path class="cls-16" d="M250.28,324.67a25.66,25.66,0,0,0,1.43-8.45,25.21,25.21,0,0,0-25.06-25.36v33.81Z"/><path class="cls-7" d="M209.47,282.89a17.28,17.28,0,0,0,17.18,17.37V265.51a17.28,17.28,0,0,0-17.18,17.38Z"/><path class="cls-16" d="M226.65,265.51v34.75a17.38,17.38,0,0,0,0-34.75Z"/><path class="cls-7" d="M216.08,258.34A10.63,10.63,0,0,0,226.65,269V247.64a10.63,10.63,0,0,0-10.57,10.7Z"/><path class="cls-16" d="M226.65,247.64V269a10.7,10.7,0,0,0,0-21.39Z"/><path class="cls-7" d="M216.21,287.7a4.07,4.07,0,0,1-4,4.09h-5.41a4.06,4.06,0,0,1-4-4.09v-6.35a4.06,4.06,0,0,1,4-4.09h5.41a4.07,4.07,0,0,1,4,4.09v6.35Z"/><path class="cls-7" d="M250.56,287.7a4.06,4.06,0,0,1-4,4.09h-5.41a4.07,4.07,0,0,1-4-4.09v-6.35a4.07,4.07,0,0,1,4-4.09h5.41a4.06,4.06,0,0,1,4,4.09v6.35Z"/><path class="cls-17" d="M229.08,289.33a2.44,2.44,0,1,1-2.43-2.46,2.45,2.45,0,0,1,2.43,2.46Z"/><path class="cls-17" d="M229.08,277.26a2.44,2.44,0,1,1-2.43-2.46,2.45,2.45,0,0,1,2.43,2.46Z"/><path class="cls-17" d="M225.47,257a.79.79,0,0,1-.78.79h-3.35a.79.79,0,0,1-.78-.79h0a.79.79,0,0,1,.78-.8h3.35a.79.79,0,0,1,.78.8Z"/><path class="cls-18" d="M232.73,257a.79.79,0,0,1-.78.79H228.6a.79.79,0,0,1-.78-.79h0a.79.79,0,0,1,.78-.8H232a.79.79,0,0,1,.78.8Z"/><path class="cls-19" d="M233.31,261.35l-6.26-1.42a1.59,1.59,0,0,0-.65-.15,1.58,1.58,0,0,0,0,3.15,1.44,1.44,0,0,0,.65-.15l6.26-1.43Z"/><path class="cls-17" d="M221.24,248.1h-1.77a1.11,1.11,0,0,0,0,2.21h7.18V248.1Z"/><path class="cls-18" d="M233.82,248.1h-7.17v2.21h7.17a1.11,1.11,0,0,0,0-2.21Z"/><path class="cls-18" d="M232.05,248.1s0,0,0-.08v-4.66a2.56,2.56,0,0,0-2.54-2.57h-2.87v7.31Z"/><path class="cls-17" d="M226.65,240.79h-2.88a2.56,2.56,0,0,0-2.54,2.57V248s0,0,0,.08h5.41v-7.31Z"/><path class="cls-20" d="M271.74,51.11a1.56,1.56,0,0,0-.35-3.08c-36.5-.66-151.6,12.91-173.59,151.78,0,0-18.57,125.55,102.82,170.75a3.22,3.22,0,0,0,3.32-5.35c-22.2-21.32-64.28-78.28-53.86-165.4C150.08,199.81,155.8,81.67,271.74,51.11Z"/><ellipse class="cls-21" cx="260.03" cy="218.54" rx="170.69" ry="175.3"/><polygon class="cls-22" points="160.07 361.55 155.46 384.61 366.13 386.15 361.52 361.55 160.07 361.55"/><ellipse class="cls-23" cx="261.57" cy="436.13" rx="166.08" ry="29.99"/><path class="cls-24" d="M151.69,380,144,431.61a4.51,4.51,0,0,0,4.29,5.29H377.82a3.27,3.27,0,0,0,3.11-3.84l-8.22-54.86a3.23,3.23,0,0,0-3.13-2.81H156.85A5.31,5.31,0,0,0,151.69,380Z"/><path class="cls-25" d="M156.85,375.39a5.31,5.31,0,0,0-5.16,4.63l-.23,1.52H373.21l-.51-3.34a3.21,3.21,0,0,0-3.12-2.81Z"/><g class="cls-26"><path class="cls-27" d="M204.67,393.84s0,9.23-7.69,7.69v13.84s9.23-1.54,7.69,9.22H326.15s-1.54-9.22,7.69-7.69V403.07s-9.23,0-7.69-9.23Z"/><circle class="cls-27" cx="183.14" cy="409.22" r="4.61"/><circle class="cls-27" cx="346.14" cy="410.75" r="4.61"/></g><path class="cls-27" d="M206.21,392.3s0,9.23-7.69,7.69v13.84s9.23-1.54,7.69,9.23H327.69s-1.54-9.23,7.69-7.69V401.53s-9.23,0-7.69-9.23Z"/><circle class="cls-27" cx="184.68" cy="407.68" r="4.61"/><circle class="cls-27" cx="347.68" cy="409.22" r="4.61"/><g class="cls-28"><path d="M230.15,414.66V400.5h3a4.14,4.14,0,0,1,1.66.3,3,3,0,0,1,1.12.79,3,3,0,0,1,.63,1.14,4.69,4.69,0,0,1,.19,1.35v.51a4.54,4.54,0,0,1-.09,1,2.26,2.26,0,0,1-.27.69,2.82,2.82,0,0,1-1,1,2.3,2.3,0,0,1,1,1,3.93,3.93,0,0,1,.34,1.8v.79a4.1,4.1,0,0,1-.91,2.87,3.73,3.73,0,0,1-2.89,1Zm2-12.25v3.9h.92a1.55,1.55,0,0,0,1.36-.51,2.63,2.63,0,0,0,.35-1.48,2.25,2.25,0,0,0-.39-1.44,1.76,1.76,0,0,0-1.4-.47Zm0,5.69v4.53h.88a2.1,2.1,0,0,0,1-.18,1.22,1.22,0,0,0,.53-.5,1.89,1.89,0,0,0,.22-.75c0-.29,0-.61,0-1a6.31,6.31,0,0,0-.06-.93,1.71,1.71,0,0,0-.24-.68,1.18,1.18,0,0,0-.54-.41,2.69,2.69,0,0,0-.89-.12Z"/><path d="M238.51,403.84a3.57,3.57,0,0,1,.3-1.51,3.11,3.11,0,0,1,1.88-1.73,3.49,3.49,0,0,1,2.44,0,3.4,3.4,0,0,1,1.11.63,3.29,3.29,0,0,1,.77,1.1,3.57,3.57,0,0,1,.3,1.51v7.48a3.57,3.57,0,0,1-.3,1.53,3.08,3.08,0,0,1-.77,1,3.31,3.31,0,0,1-1.11.66,3.49,3.49,0,0,1-2.44,0,3.13,3.13,0,0,1-1.09-.66,3,3,0,0,1-.79-1,3.57,3.57,0,0,1-.3-1.53Zm2,7.48a1.31,1.31,0,0,0,.41,1.08,1.44,1.44,0,0,0,1,.35,1.48,1.48,0,0,0,1-.35,1.34,1.34,0,0,0,.4-1.08v-7.48a1.38,1.38,0,0,0-.4-1.09,1.47,1.47,0,0,0-1-.34,1.43,1.43,0,0,0-1,.34,1.35,1.35,0,0,0-.41,1.09Z"/><path d="M253.67,400.5v11a3.36,3.36,0,0,1-.25,1.28,3.21,3.21,0,0,1-.71,1,3.24,3.24,0,0,1-2.33,1,3.12,3.12,0,0,1-1.26-.26,3.54,3.54,0,0,1-1.76-1.76,3.18,3.18,0,0,1-.26-1.28v-11h2v10.78a1.51,1.51,0,0,0,.36,1.11,1.29,1.29,0,0,0,1.79,0,1.51,1.51,0,0,0,.36-1.11V400.5Z"/><path d="M255.58,414.66V400.5h3a3.45,3.45,0,0,1,2.65.95,3.76,3.76,0,0,1,.91,2.71v6.62a3.89,3.89,0,0,1-1,2.93,3.74,3.74,0,0,1-2.77,1Zm2-12.25v10.34h.94a1.48,1.48,0,0,0,1.21-.43,2,2,0,0,0,.36-1.34v-6.82a2.14,2.14,0,0,0-.34-1.3,1.44,1.44,0,0,0-1.23-.45Z"/><path d="M274.19,410.62v.88a3.26,3.26,0,0,1-.24,1.24,3.5,3.5,0,0,1-.69,1,3.16,3.16,0,0,1-1,.73,3,3,0,0,1-1.26.27,4.39,4.39,0,0,1-1.17-.16,2.79,2.79,0,0,1-1.08-.56,3,3,0,0,1-.78-1,3.56,3.56,0,0,1-.31-1.6v-7.8a3.4,3.4,0,0,1,.24-1.29,3.05,3.05,0,0,1,.67-1,3.12,3.12,0,0,1,1-.68,3.4,3.4,0,0,1,1.34-.25,3.09,3.09,0,0,1,2.33.93,3.49,3.49,0,0,1,.69,1.09,3.74,3.74,0,0,1,.24,1.36v.79h-2v-.67a1.71,1.71,0,0,0-.34-1,1.1,1.1,0,0,0-.92-.43,1,1,0,0,0-1,.46,2.47,2.47,0,0,0-.25,1.19v7.24a1.86,1.86,0,0,0,.27,1,1.05,1.05,0,0,0,1,.42,1.41,1.41,0,0,0,.86-.3A1,1,0,0,0,272,412a1.55,1.55,0,0,0,.13-.69v-.7Z"/><path d="M274.93,414.66l3.16-14.16h1.69L283,414.66h-2l-.6-3h-2.77l-.59,3Zm5-5-1-5.14h0l-1,5.14Z"/><path d="M283.94,414.66V400.5h3a4.19,4.19,0,0,1,1.67.3,3,3,0,0,1,1.75,1.93,5.05,5.05,0,0,1,.18,1.35v.51a5.38,5.38,0,0,1-.08,1,2.26,2.26,0,0,1-.27.69,2.78,2.78,0,0,1-1,1,2.27,2.27,0,0,1,1.06,1,4.07,4.07,0,0,1,.33,1.8v.79a4.15,4.15,0,0,1-.9,2.87,3.74,3.74,0,0,1-2.89,1Zm2-12.25v3.9h.91a1.57,1.57,0,0,0,1.37-.51,2.63,2.63,0,0,0,.34-1.48,2.25,2.25,0,0,0-.38-1.44,1.77,1.77,0,0,0-1.41-.47Zm0,5.69v4.53h.87a2.15,2.15,0,0,0,1-.18,1.22,1.22,0,0,0,.53-.5,1.73,1.73,0,0,0,.21-.75,9.46,9.46,0,0,0,0-1,6.43,6.43,0,0,0,0-.93,1.71,1.71,0,0,0-.24-.68,1.3,1.3,0,0,0-.54-.41,2.76,2.76,0,0,0-.9-.12Z"/><path d="M292.47,414.66V400.5h2v14.16Z"/><path d="M296.39,414.66V400.5h1.95l3.07,8.53h0V400.5h2v14.16h-1.91l-3.1-8.51h0v8.51Z"/></g><path class="cls-29" d="M231.29,413.56V399.39h3a4.14,4.14,0,0,1,1.66.3,3.12,3.12,0,0,1,1.12.8,2.78,2.78,0,0,1,.63,1.14,4.62,4.62,0,0,1,.19,1.34v.52a4.54,4.54,0,0,1-.09,1,2.37,2.37,0,0,1-.27.69,2.83,2.83,0,0,1-1,1,2.11,2.11,0,0,1,1,1,3.91,3.91,0,0,1,.34,1.79v.8a4.12,4.12,0,0,1-.9,2.86,3.77,3.77,0,0,1-2.9,1Zm2-12.26v3.9h.92a1.53,1.53,0,0,0,1.36-.51,2.61,2.61,0,0,0,.35-1.48,2.24,2.24,0,0,0-.39-1.43,1.71,1.71,0,0,0-1.4-.48Zm0,5.69v4.54h.88a2.18,2.18,0,0,0,1-.18,1.26,1.26,0,0,0,.52-.5,1.89,1.89,0,0,0,.22-.75c0-.3,0-.62,0-1a6.22,6.22,0,0,0-.06-.93,1.66,1.66,0,0,0-.24-.68,1.14,1.14,0,0,0-.53-.41,2.52,2.52,0,0,0-.9-.13Z"/><path class="cls-29" d="M239.64,402.73a3.6,3.6,0,0,1,.3-1.51,3.26,3.26,0,0,1,.79-1.09,3.41,3.41,0,0,1,1.09-.64,3.49,3.49,0,0,1,2.44,0,3.62,3.62,0,0,1,1.11.64,3.21,3.21,0,0,1,.77,1.09,3.6,3.6,0,0,1,.3,1.51v7.48a3.62,3.62,0,0,1-.3,1.54,3,3,0,0,1-.77,1.05,3.48,3.48,0,0,1-1.11.66,3.49,3.49,0,0,1-2.44,0,3.28,3.28,0,0,1-1.09-.66,3.09,3.09,0,0,1-.79-1.05,3.62,3.62,0,0,1-.3-1.54Zm2,7.48a1.32,1.32,0,0,0,.41,1.09,1.44,1.44,0,0,0,1,.35,1.48,1.48,0,0,0,1-.35,1.35,1.35,0,0,0,.4-1.09v-7.48a1.34,1.34,0,0,0-.4-1.08,1.48,1.48,0,0,0-1-.35,1.44,1.44,0,0,0-1,.35,1.31,1.31,0,0,0-.41,1.08Z"/><path class="cls-29" d="M254.8,399.39v11a3.41,3.41,0,0,1-.25,1.29,3.21,3.21,0,0,1-.71,1,3.33,3.33,0,0,1-1.05.72,3.21,3.21,0,0,1-1.27.26,3.13,3.13,0,0,1-1.27-.26,3.4,3.4,0,0,1-1-.72,3.2,3.2,0,0,1-1-2.33v-11h2v10.78a1.52,1.52,0,0,0,.36,1.12,1.29,1.29,0,0,0,1.79,0,1.52,1.52,0,0,0,.36-1.12V399.39Z"/><path class="cls-29" d="M256.71,413.56V399.39h3a3.49,3.49,0,0,1,2.66,1,3.78,3.78,0,0,1,.9,2.7v6.63a4,4,0,0,1-1,2.93,3.82,3.82,0,0,1-2.78.95Zm2-12.26v10.35h.93a1.5,1.5,0,0,0,1.21-.43,2.06,2.06,0,0,0,.36-1.34v-6.83a2.13,2.13,0,0,0-.34-1.29,1.44,1.44,0,0,0-1.23-.46Z"/><path class="cls-29" d="M275.33,409.52v.87a3.28,3.28,0,0,1-.25,1.25,3.5,3.5,0,0,1-.69,1,3.23,3.23,0,0,1-1,.73,3,3,0,0,1-1.27.27,4.84,4.84,0,0,1-1.17-.16,2.82,2.82,0,0,1-1.07-.56,3.18,3.18,0,0,1-.79-1,3.54,3.54,0,0,1-.31-1.6v-7.79a3.46,3.46,0,0,1,.24-1.3,3,3,0,0,1,.68-1,3.26,3.26,0,0,1,1-.69,3.63,3.63,0,0,1,1.34-.25,3.1,3.1,0,0,1,2.33.94,3.44,3.44,0,0,1,.69,1.08,3.79,3.79,0,0,1,.25,1.37v.79h-2v-.68a1.68,1.68,0,0,0-.34-1,1.11,1.11,0,0,0-.92-.44,1,1,0,0,0-1,.47,2.46,2.46,0,0,0-.25,1.18v7.24a1.87,1.87,0,0,0,.27,1,1.05,1.05,0,0,0,1,.42,1.68,1.68,0,0,0,.43-.07,1.49,1.49,0,0,0,.43-.23,1.22,1.22,0,0,0,.3-.44,1.79,1.79,0,0,0,.12-.7v-.69Z"/><path class="cls-29" d="M276.06,413.56l3.16-14.17h1.7l3.16,14.17h-2l-.6-3.05h-2.76l-.6,3.05Zm5-5-1-5.13h0l-1,5.13Z"/><path class="cls-29" d="M285.07,413.56V399.39h3a4.14,4.14,0,0,1,1.66.3,3.21,3.21,0,0,1,1.12.8,3,3,0,0,1,.63,1.14,5,5,0,0,1,.19,1.34v.52a4.54,4.54,0,0,1-.09,1,2.37,2.37,0,0,1-.27.69,2.86,2.86,0,0,1-1,1,2.18,2.18,0,0,1,1.06,1,4,4,0,0,1,.34,1.79v.8a4.08,4.08,0,0,1-.91,2.86,3.75,3.75,0,0,1-2.89,1Zm2-12.26v3.9H288a1.55,1.55,0,0,0,1.36-.51,2.61,2.61,0,0,0,.35-1.48,2.24,2.24,0,0,0-.39-1.43,1.73,1.73,0,0,0-1.4-.48Zm0,5.69v4.54H288a2.1,2.1,0,0,0,1-.18,1.28,1.28,0,0,0,.53-.5,1.89,1.89,0,0,0,.22-.75c0-.3,0-.62,0-1a6.22,6.22,0,0,0-.06-.93,1.66,1.66,0,0,0-.24-.68,1.12,1.12,0,0,0-.54-.41A2.43,2.43,0,0,0,288,407Z"/><path class="cls-29" d="M293.61,413.56V399.39h2v14.17Z"/><path class="cls-29" d="M297.52,413.56V399.39h2l3.07,8.54h0v-8.54h2v14.17H302.7L299.59,405h0v8.52Z"/></g></svg>