<svg viewBox="0 0 512 512" xmlns="http://www.w3.org/2000/svg" xmlns:xlink="http://www.w3.org/1999/xlink"><clipPath id="a"><ellipse cx="259.85" cy="218.8" rx="171.5" ry="173.5"/></clipPath><ellipse cx="260.03" cy="218.54" fill="#2d6076" opacity=".79" rx="170.69" ry="175.3"/><g clip-path="url(#a)"><path d="m324.89 326-42.63-174.7c-1.8-7.6-6-8.27-6-8.27s-4.18.67-6 8.27l-42.59 174.7s-3.87 11 10.45 11h76.32c14.32 0 10.45-11.08 10.45-11.08z" fill="#70acc2"/><path d="m422.77 339.88-36-147.37c-1.51-6.4-5-7-5-7s-3.53.57-5 7l-36 147.37s-3.27 9.34 8.81 9.34h64.42c12.08 0 8.81-9.34 8.81-9.34z" fill="#70acc2"/><path d="m275.72 333.08-36-147.37c-1.52-6.41-5.05-7-5.05-7s-3.52.57-5 7l-36 147.37s-3.26 9.34 8.82 9.34h64.37c12.08 0 8.81-9.34 8.81-9.34z" fill="#70acc2"/><path d="m170.59 319.37-35.96-147.37c-1.51-6.4-5-7-5-7s-3.53.57-5 7l-36.04 147.37s-3.27 9.34 8.81 9.34h64.38c12.07 0 8.81-9.34 8.81-9.34z" fill="#70acc2"/><path d="m168.48 114.33-42.63 174.67s-3.85 11.11 10.45 11.11h38.16v-194s-4.18.67-6 8.27z" fill="#2e8d4b"/><path d="m223.07 289-42.63-174.7c-1.8-7.6-6-8.27-6-8.27v194.08h38.16c14.32 0 10.45-11.08 10.45-11.08z" fill="#1c7d3a"/><path d="m329.11 122.88a6.23 6.23 0 1 1 -6.23-6.3 6.27 6.27 0 0 1 6.23 6.3z" fill="#fff"/><path d="m162.82 300.11v23.78h11.64v-23.78z" fill="#7a5728"/><path d="m186.09 300.11h-11.63v23.78h11.63z" fill="#6b4d22"/><path d="m396 324h-272.53a174.62 174.62 0 0 0 23.25 25.12h226a174.06 174.06 0 0 0 23.28-25.12z" fill="#fff"/><path d="m372.72 349.09h-226a170 170 0 0 0 226 0z" fill="#dbf6ff"/><g fill="#fff"><path d="m176.74 210.67a1.88 1.88 0 0 0 0 3.76c1.52 0 1.66-1.59 1.66-1.87s-.14-1.89-1.66-1.89z"/><path d="m151.74 190.67a1.88 1.88 0 0 0 0 3.76c1.52 0 1.66-1.59 1.66-1.87s-.14-1.89-1.66-1.89z"/><path d="m193.29 288.17a1.74 1.74 0 0 0 -1.75 2 1.65 1.65 0 0 0 1.75 1.84c1.5 0 1.64-1.54 1.64-1.84s-.14-2-1.64-2z"/><path d="m105 224c0-.48 0-2-1.49-2a1.7 1.7 0 0 0 -1.77 2 1.6 1.6 0 0 0 1.77 1.76c1.49 0 1.49-1.44 1.49-1.76z"/><path d="m240.48 241.66a1.84 1.84 0 0 0 0 3.68 1.84 1.84 0 0 0 0-3.68z"/><path d="m244.55 131.15a1.84 1.84 0 0 0 0 3.67 1.84 1.84 0 0 0 0-3.67z"/><path d="m269.55 81.15a1.84 1.84 0 0 0 0 3.67 1.84 1.84 0 0 0 0-3.67z"/><path d="m157.35 235.8a1.84 1.84 0 0 0 0 3.68 1.84 1.84 0 0 0 0-3.68z"/><path d="m151.68 157.6a1.87 1.87 0 0 0 0-3.73 1.74 1.74 0 0 0 -1.67 1.86c0 .35.17 1.87 1.67 1.87z"/><path d="m170.68 144.6a1.87 1.87 0 0 0 0-3.73 1.74 1.74 0 0 0 -1.67 1.86c0 .35.17 1.87 1.67 1.87z"/><path d="m230.32 144.38a1.67 1.67 0 0 0 -1.65-1.84 1.63 1.63 0 0 0 -1.67 1.84 1.6 1.6 0 0 0 1.67 1.79 1.64 1.64 0 0 0 1.65-1.79z"/><path d="m164.32 131.38a1.67 1.67 0 0 0 -1.65-1.84 1.63 1.63 0 0 0 -1.67 1.84 1.6 1.6 0 0 0 1.67 1.79 1.64 1.64 0 0 0 1.65-1.79z"/><path d="m137.3 326.6a1.88 1.88 0 0 0 0 3.75c1.52 0 1.66-1.59 1.66-1.86s-.14-1.89-1.66-1.89z"/><path d="m121.27 278.65a1.67 1.67 0 0 0 -1.64-1.84 1.63 1.63 0 0 0 -1.67 1.84 1.6 1.6 0 0 0 1.67 1.79 1.64 1.64 0 0 0 1.64-1.79z"/><path d="m127.57 148.36c.23-.07-.17-.12 0 0z"/><path d="m127.7 148.47c-.07-.08-.07-.08-.13-.11h-.09c.15 0 .15 0 .22.11z"/><path d="m127.3 170a1.62 1.62 0 0 0 -1.72 1.79 1.74 1.74 0 1 0 1.72-1.79z"/><path d="m121.54 161.5a1.66 1.66 0 0 0 -1.77 1.86 1.64 1.64 0 0 0 1.77 1.84 1.73 1.73 0 0 0 1.67-1.84c0-.32-.17-1.86-1.67-1.86z"/><path d="m206.23 79a1.87 1.87 0 0 0 0-3.73c-1.5 0-1.67 1.51-1.67 1.86s.17 1.87 1.67 1.87z"/><path d="m181.85 91.39a1.82 1.82 0 0 0 0 3.64 1.82 1.82 0 0 0 0-3.64z"/><path d="m176.09 82.9a1.67 1.67 0 0 0 -1.77 1.87 1.64 1.64 0 0 0 1.77 1.83 1.73 1.73 0 0 0 1.67-1.83c0-.33-.17-1.87-1.67-1.87z"/><path d="m220.48 108.2c-4.76 0-4.76 7.38 0 7.38 4.55 0 4.55-7.38 0-7.38z"/><path d="m232.48 68.2c-4.76 0-4.76 7.38 0 7.38 4.55 0 4.55-7.38 0-7.38z"/><path d="m278.14 129.53a1.83 1.83 0 0 0 0 3.65 1.83 1.83 0 0 0 0-3.65z"/><path d="m300.14 63.53a1.83 1.83 0 0 0 0 3.65 1.83 1.83 0 0 0 0-3.65z"/><path d="m388.24 149.7a1.8 1.8 0 0 0 -1.74 1.81 1.77 1.77 0 0 0 1.74 1.84 1.83 1.83 0 0 0 0-3.65z"/><path d="m392.2 162.66a1.64 1.64 0 0 0 1.72 1.86 1.79 1.79 0 0 0 1.74-1.86 1.82 1.82 0 0 0 -1.74-1.82 1.65 1.65 0 0 0 -1.72 1.82z"/><path d="m346.23 106.67a1.72 1.72 0 0 0 -1.77 2 1.66 1.66 0 0 0 1.77 1.82c1.49 0 1.62-1.57 1.62-1.82 0-.41-.13-2-1.62-2z"/><path d="m346.23 88.67a1.72 1.72 0 0 0 -1.77 2 1.66 1.66 0 0 0 1.77 1.82c1.49 0 1.62-1.57 1.62-1.82 0-.41-.13-2-1.62-2z"/><path d="m293.7 122a1.64 1.64 0 0 0 1.71 1.87 1.85 1.85 0 0 0 0-3.69 1.64 1.64 0 0 0 -1.71 1.82z"/><path d="m219.7 60a1.64 1.64 0 0 0 1.71 1.87 1.85 1.85 0 0 0 0-3.69 1.64 1.64 0 0 0 -1.71 1.82z"/><path d="m316 83.55a1.64 1.64 0 0 0 1.72 1.86 1.8 1.8 0 0 0 1.75-1.86 1.82 1.82 0 0 0 -1.75-1.82 1.64 1.64 0 0 0 -1.72 1.82z"/><path d="m286 94.55a1.64 1.64 0 0 0 1.72 1.86 1.8 1.8 0 0 0 1.75-1.86 1.82 1.82 0 0 0 -1.75-1.82 1.64 1.64 0 0 0 -1.72 1.82z"/><path d="m207.58 166.84a1.65 1.65 0 0 0 1.72 1.87 1.85 1.85 0 0 0 0-3.69 1.64 1.64 0 0 0 -1.72 1.82z"/><path d="m373.39 119.24a1.83 1.83 0 0 0 0 3.66 1.83 1.83 0 0 0 0-3.66z"/><path d="m404.36 137.24c-1.54 0-1.74 1.6-1.74 2a1.81 1.81 0 0 0 1.74 1.83 1.64 1.64 0 0 0 1.67-1.83c0-.4 0-2-1.67-2z"/><path d="m357.2 136.81c0 4.82 7.19 4.82 7.19 0 0-4.64-7.19-4.64-7.19 0z"/><path d="m101.34 201c0 4.69 7.23 4.69 7.23 0s-7.23-4.59-7.23 0z"/><path d="m136.88 137.48c0 4.68 7.23 4.68 7.23 0s-7.23-4.6-7.23 0z"/><path d="m146.88 106.48c0 4.68 7.23 4.68 7.23 0s-7.23-4.6-7.23 0z"/><path d="m255.35 86.93a1.65 1.65 0 0 0 1.72 1.87 1.85 1.85 0 0 0 0-3.69 1.64 1.64 0 0 0 -1.72 1.82z"/><path d="m155.63 267.08c-4.76 0-4.76 7.37 0 7.37 4.58 0 4.58-7.37 0-7.37z"/><path d="m129.63 240.08c-4.76 0-4.76 7.37 0 7.37 4.58 0 4.58-7.37 0-7.37z"/><path d="m263.9 56.37c-4.76 0-4.76 7.37 0 7.37 4.58 0 4.58-7.37 0-7.37z"/><path d="m254.37 367.35a5.5 5.5 0 0 1 -5.47 5.53h-46.79a5.5 5.5 0 0 1 -5.47-5.53 5.51 5.51 0 0 1 5.47-5.54h46.79a5.51 5.51 0 0 1 5.47 5.54z"/><path d="m300.78 367.35a5.5 5.5 0 0 1 -5.47 5.53h-18.48a5.5 5.5 0 0 1 -5.47-5.53 5.51 5.51 0 0 1 5.47-5.54h18.48a5.51 5.51 0 0 1 5.47 5.54z"/></g></g><path d="m342.39 158.84h-18.75v31.26h18.75z" fill="#ae392d"/><path d="m391.22 245.76a1.92 1.92 0 0 1 -1.92 1.92 1.92 1.92 0 0 1 -1.92-1.92v-5.44a1.92 1.92 0 0 1 1.92-1.92 1.92 1.92 0 0 1 1.92 1.92z" fill="#fff"/><path d="m385.68 245.76a1.92 1.92 0 0 1 -1.92 1.92 1.91 1.91 0 0 1 -1.91-1.92v-5.44a1.91 1.91 0 0 1 1.91-1.92 1.92 1.92 0 0 1 1.92 1.92z" fill="#fff"/><path d="m242.86 246.81a1.92 1.92 0 0 1 -1.92 1.92 1.92 1.92 0 0 1 -1.92-1.92v-5.45a1.92 1.92 0 0 1 1.92-1.92 1.92 1.92 0 0 1 1.92 1.92z" fill="#fff"/><path d="m236.56 244.09a1.91 1.91 0 0 1 -1.92 1.91 1.91 1.91 0 0 1 -1.92-1.91v-5.45a1.92 1.92 0 0 1 1.92-1.92 1.92 1.92 0 0 1 1.92 1.92z" fill="#fff"/><path d="m235.76 241.71h8.55l67.97-55.69 68.41 55.69h8.55l.06-.09-76.71-63.05z" fill="#ae392d"/><path d="m244.31 241.71h1.21-1.21v82.36h136.38v-82.36h-.98.98l-68.41-55.69z" fill="#e64c3c"/><path d="m308.43 309.92h-50.32v-54.88h50.32z" fill="#d34232"/><path d="m366.9 309.92h-50.32v-54.88h50.32z" fill="#d34232"/><path d="m391.22 241.71a5.26 5.26 0 0 1 -3.34-1.19l-75.38-61.94-75.37 61.94a5.27 5.27 0 0 1 -6.68-8.14l78.71-64.68a5.27 5.27 0 0 1 6.68 0l78.72 64.68a5.26 5.26 0 0 1 -3.34 9.33z" fill="#fff"/><path d="m303.17 181.65a7.68 7.68 0 1 1 -7.68-7.68 7.67 7.67 0 0 1 7.68 7.68z" fill="#fff"/><path d="m364.85 202.46a7.67 7.67 0 1 1 -7.67-7.67 7.67 7.67 0 0 1 7.67 7.67z" fill="#fff"/><path d="m388.72 223.94a5 5 0 1 1 -5-4.94 5 5 0 0 1 5 4.94z" fill="#fff"/><path d="m275.09 196a7 7 0 0 1 -.87 9.84l-13.84 11.57a7 7 0 0 1 -9.84-.88 7 7 0 0 1 .88-9.83l13.84-11.57a7 7 0 0 1 9.83.87z" fill="#fff"/><path d="m323.3 174.21a5.55 5.55 0 0 0 .7 7.79l11 9.2a5.54 5.54 0 0 0 7.81-.7 5.54 5.54 0 0 0 -.69-7.81l-11-9.2a5.55 5.55 0 0 0 -7.82.7z" fill="#fff"/><path d="m396.48 249.33a3.24 3.24 0 0 1 -3.24 3.25 3.24 3.24 0 0 1 -3.24-3.25v-12.58a3.24 3.24 0 0 1 3.24-3.25 3.24 3.24 0 0 1 3.24 3.25z" fill="#fff"/><path d="m235 246a3.24 3.24 0 0 1 -3.24 3.24 3.24 3.24 0 0 1 -3.24-3.24v-9.23a3.24 3.24 0 0 1 3.24-3.25 3.24 3.24 0 0 1 3.24 3.25z" fill="#fff"/><path d="m345.56 155.58a3.27 3.27 0 0 1 -3.27 3.26h-18.46a3.26 3.26 0 0 1 -3.27-3.26 3.26 3.26 0 0 1 3.27-3.27h18.46a3.27 3.27 0 0 1 3.27 3.27z" fill="#fff"/><path d="m354.68 302.12h-27c-3.5 0-3.92-.67-3.92-3v-32.36c0-2.32.42-4.2 3.92-4.2h27.65c3.49 0 3.91 1.27 3.91 3.59v32.37c0 2.32-.42 3.6-3.91 3.6" fill="#88d3e3"/><path d="m323.76 288.7v-6.16l26.98-19.74 7.86 1.21z" fill="#c0e6f0"/><path d="m324.12 294.25c-.25-.09.22-1.05 0-1.21v-1.81l35.08-24.47v3.46l-35.08 24" fill="#c0e6f0"/><path d="m296.68 302.32h-27.05c-3.5 0-3.91-.67-3.91-3v-32.32c0-2.32.41-4.2 3.91-4.2h27.65c3.5 0 3.92 1.28 3.92 3.59v32.38c0 2.32-.42 3.59-3.92 3.59" fill="#88d3e3"/><path d="m265.76 288.9v-6.16l26.97-19.74 7.86 1.21z" fill="#c0e6f0"/><path d="m266.12 294.46c-.26-.1.21-1.06 0-1.21v-1.82l35.08-24.43v3.46z" fill="#c0e6f0"/><g fill="#fff"><path d="m349.59 214.83a6.23 6.23 0 1 1 -6.23-6.3 6.27 6.27 0 0 1 6.23 6.3z"/><path d="m369 232.48a4 4 0 1 1 -4-4.06 4 4 0 0 1 4 4.06z"/><path d="m244.14 258.88a2.63 2.63 0 1 1 -2.63-2.66 2.65 2.65 0 0 1 2.63 2.66z"/><path d="m225.49 183.11a1.88 1.88 0 0 0 0 3.75c1.53 0 1.67-1.59 1.67-1.86s-.14-1.89-1.67-1.89z"/><path d="m370.68 237.37a1.84 1.84 0 0 0 -1.91 1.8 1.84 1.84 0 1 0 3.67 0c0-.2-.23-1.8-1.76-1.8z"/><path d="m300.27 145.65a1.73 1.73 0 0 0 -1.77 2 1.66 1.66 0 0 0 1.77 1.81c1.49 0 1.62-1.56 1.62-1.81 0-.41-.13-2-1.62-2z"/><path d="m319.63 146.8c-1.57 0-1.77 1.67-1.77 1.82a1.8 1.8 0 0 0 1.77 1.89 1.64 1.64 0 0 0 1.67-1.89 1.67 1.67 0 0 0 -1.67-1.82z"/><path d="m360 294.15a1.83 1.83 0 0 0 0 3.66 1.83 1.83 0 0 0 0-3.66z"/><path d="m323.77 238.48a1.83 1.83 0 0 0 0 3.66 1.83 1.83 0 0 0 0-3.66z"/><path d="m389.36 206.59c0 4.81 7.18 4.81 7.18 0 0-4.64-7.18-4.64-7.18 0z"/><path d="m375.55 286.63a1.65 1.65 0 0 0 1.72 1.87 1.84 1.84 0 0 0 0-3.68 1.64 1.64 0 0 0 -1.72 1.81z"/><path d="m291.53 243a1.65 1.65 0 0 0 1.72 1.87 1.84 1.84 0 0 0 0-3.68 1.64 1.64 0 0 0 -1.72 1.81z"/><path d="m334.88 305.11c-1.57 0-1.78 1.67-1.78 1.82a1.81 1.81 0 0 0 1.78 1.89 1.64 1.64 0 0 0 1.66-1.89 1.67 1.67 0 0 0 -1.66-1.82z"/><path d="m255.35 194.64c-4.76 0-4.76 7.36 0 7.36 4.58 0 4.58-7.36 0-7.36z"/><path d="m279.71 167.68a1.83 1.83 0 1 0 1.72 1.82 1.63 1.63 0 0 0 -1.72-1.82z"/><path d="m331 210c0-.48 0-2-1.49-2a1.7 1.7 0 0 0 -1.77 2 1.59 1.59 0 0 0 1.77 1.76c1.49 0 1.49-1.43 1.49-1.76z"/><path d="m226.65 324.67v-33.81a25.21 25.21 0 0 0 -25.07 25.36 25.66 25.66 0 0 0 1.43 8.45z"/></g><path d="m250.28 324.67a25.66 25.66 0 0 0 1.43-8.45 25.21 25.21 0 0 0 -25.06-25.36v33.81z" fill="#c9e0da"/><path d="m209.47 282.89a17.28 17.28 0 0 0 17.18 17.37v-34.75a17.28 17.28 0 0 0 -17.18 17.38z" fill="#fff"/><path d="m226.65 265.51v34.75a17.38 17.38 0 0 0 0-34.75z" fill="#c9e0da"/><path d="m216.08 258.34a10.63 10.63 0 0 0 10.57 10.66v-21.36a10.63 10.63 0 0 0 -10.57 10.7z" fill="#fff"/><path d="m226.65 247.64v21.36a10.7 10.7 0 0 0 0-21.39z" fill="#c9e0da"/><path d="m216.21 287.7a4.07 4.07 0 0 1 -4 4.09h-5.41a4.06 4.06 0 0 1 -4-4.09v-6.35a4.06 4.06 0 0 1 4-4.09h5.41a4.07 4.07 0 0 1 4 4.09z" fill="#fff"/><path d="m250.56 287.7a4.06 4.06 0 0 1 -4 4.09h-5.41a4.07 4.07 0 0 1 -4-4.09v-6.35a4.07 4.07 0 0 1 4-4.09h5.41a4.06 4.06 0 0 1 4 4.09z" fill="#fff"/><path d="m229.08 289.33a2.44 2.44 0 1 1 -2.43-2.46 2.45 2.45 0 0 1 2.43 2.46z" fill="#58595b"/><path d="m229.08 277.26a2.44 2.44 0 1 1 -2.43-2.46 2.45 2.45 0 0 1 2.43 2.46z" fill="#58595b"/><path d="m225.47 257a.79.79 0 0 1 -.78.79h-3.35a.79.79 0 0 1 -.78-.79.79.79 0 0 1 .78-.8h3.35a.79.79 0 0 1 .78.8z" fill="#58595b"/><path d="m232.73 257a.79.79 0 0 1 -.78.79h-3.35a.79.79 0 0 1 -.78-.79.79.79 0 0 1 .78-.8h3.4a.79.79 0 0 1 .78.8z" fill="#4f5052"/><path d="m233.31 261.35-6.26-1.42a1.59 1.59 0 0 0 -.65-.15 1.58 1.58 0 0 0 0 3.15 1.44 1.44 0 0 0 .65-.15z" fill="#ff9e53"/><path d="m221.24 248.1h-1.77a1.11 1.11 0 0 0 0 2.21h7.18v-2.21z" fill="#58595b"/><path d="m233.82 248.1h-7.17v2.21h7.17a1.11 1.11 0 0 0 0-2.21z" fill="#4f5052"/><path d="m232.05 248.1s0 0 0-.08v-4.66a2.56 2.56 0 0 0 -2.54-2.57h-2.87v7.31z" fill="#4f5052"/><path d="m226.65 240.79h-2.88a2.56 2.56 0 0 0 -2.54 2.57v4.64s0 0 0 .08h5.41v-7.31z" fill="#58595b"/><path d="m271.74 51.11a1.56 1.56 0 0 0 -.35-3.08c-36.5-.66-151.6 12.91-173.59 151.78 0 0-18.57 125.55 102.82 170.75a3.22 3.22 0 0 0 3.32-5.35c-22.2-21.32-64.28-78.28-53.86-165.4 0 0 5.72-118.14 121.66-148.7z" fill="#f2f2f2" opacity=".15"/><ellipse cx="260.03" cy="218.54" fill="none" rx="170.69" ry="175.3" stroke="#71a6ba" stroke-miterlimit="10" stroke-width="3.4"/><path d="m160.07 361.55-4.61 23.06 210.67 1.54-4.61-24.6z" fill="#5a3a1b"/><ellipse cx="261.57" cy="436.13" opacity=".16" rx="166.08" ry="29.99"/><path d="m151.69 380-7.69 51.61a4.51 4.51 0 0 0 4.29 5.29h229.53a3.27 3.27 0 0 0 3.11-3.84l-8.22-54.86a3.23 3.23 0 0 0 -3.13-2.81h-212.73a5.31 5.31 0 0 0 -5.16 4.61z" fill="#704d2e"/><path d="m156.85 375.39a5.31 5.31 0 0 0 -5.16 4.63l-.23 1.52h221.75l-.51-3.34a3.21 3.21 0 0 0 -3.12-2.81z" fill="#745638"/><g fill="#eebc5a" opacity=".2"><path d="m204.67 393.84s0 9.23-7.69 7.69v13.84s9.23-1.54 7.69 9.22h121.48s-1.54-9.22 7.69-7.69v-13.83s-9.23 0-7.69-9.23z"/><circle cx="183.14" cy="409.22" r="4.61"/><circle cx="346.14" cy="410.75" r="4.61"/></g><path d="m206.21 392.3s0 9.23-7.69 7.69v13.84s9.23-1.54 7.69 9.23h121.48s-1.54-9.23 7.69-7.69v-13.84s-9.23 0-7.69-9.23z" fill="#eebc5a"/><circle cx="184.68" cy="407.68" fill="#eebc5a" r="4.61"/><circle cx="347.68" cy="409.22" fill="#eebc5a" r="4.61"/><g opacity=".05"><path d="m230.15 414.66v-14.16h3a4.14 4.14 0 0 1 1.66.3 3 3 0 0 1 1.12.79 3 3 0 0 1 .63 1.14 4.69 4.69 0 0 1 .19 1.35v.51a4.54 4.54 0 0 1 -.09 1 2.26 2.26 0 0 1 -.27.69 2.82 2.82 0 0 1 -1 1 2.3 2.3 0 0 1 1 1 3.93 3.93 0 0 1 .34 1.8v.79a4.1 4.1 0 0 1 -.91 2.87 3.73 3.73 0 0 1 -2.89 1zm2-12.25v3.9h.92a1.55 1.55 0 0 0 1.36-.51 2.63 2.63 0 0 0 .35-1.48 2.25 2.25 0 0 0 -.39-1.44 1.76 1.76 0 0 0 -1.4-.47zm0 5.69v4.53h.88a2.1 2.1 0 0 0 1-.18 1.22 1.22 0 0 0 .53-.5 1.89 1.89 0 0 0 .22-.75c0-.29 0-.61 0-1a6.31 6.31 0 0 0 -.06-.93 1.71 1.71 0 0 0 -.24-.68 1.18 1.18 0 0 0 -.54-.41 2.69 2.69 0 0 0 -.89-.12z"/><path d="m238.51 403.84a3.57 3.57 0 0 1 .3-1.51 3.11 3.11 0 0 1 1.88-1.73 3.49 3.49 0 0 1 2.44 0 3.4 3.4 0 0 1 1.11.63 3.29 3.29 0 0 1 .77 1.1 3.57 3.57 0 0 1 .3 1.51v7.48a3.57 3.57 0 0 1 -.3 1.53 3.08 3.08 0 0 1 -.77 1 3.31 3.31 0 0 1 -1.11.66 3.49 3.49 0 0 1 -2.44 0 3.13 3.13 0 0 1 -1.09-.66 3 3 0 0 1 -.79-1 3.57 3.57 0 0 1 -.3-1.53zm2 7.48a1.31 1.31 0 0 0 .41 1.08 1.44 1.44 0 0 0 1 .35 1.48 1.48 0 0 0 1-.35 1.34 1.34 0 0 0 .4-1.08v-7.48a1.38 1.38 0 0 0 -.4-1.09 1.47 1.47 0 0 0 -1-.34 1.43 1.43 0 0 0 -1 .34 1.35 1.35 0 0 0 -.41 1.09z"/><path d="m253.67 400.5v11a3.36 3.36 0 0 1 -.25 1.28 3.21 3.21 0 0 1 -.71 1 3.24 3.24 0 0 1 -2.33 1 3.12 3.12 0 0 1 -1.26-.26 3.54 3.54 0 0 1 -1.76-1.76 3.18 3.18 0 0 1 -.26-1.28v-11h2v10.78a1.51 1.51 0 0 0 .36 1.11 1.29 1.29 0 0 0 1.79 0 1.51 1.51 0 0 0 .36-1.11v-10.76z"/><path d="m255.58 414.66v-14.16h3a3.45 3.45 0 0 1 2.65.95 3.76 3.76 0 0 1 .91 2.71v6.62a3.89 3.89 0 0 1 -1 2.93 3.74 3.74 0 0 1 -2.77 1zm2-12.25v10.34h.94a1.48 1.48 0 0 0 1.21-.43 2 2 0 0 0 .36-1.34v-6.82a2.14 2.14 0 0 0 -.34-1.3 1.44 1.44 0 0 0 -1.23-.45z"/><path d="m274.19 410.62v.88a3.26 3.26 0 0 1 -.24 1.24 3.5 3.5 0 0 1 -.69 1 3.16 3.16 0 0 1 -1 .73 3 3 0 0 1 -1.26.27 4.39 4.39 0 0 1 -1.17-.16 2.79 2.79 0 0 1 -1.08-.56 3 3 0 0 1 -.78-1 3.56 3.56 0 0 1 -.31-1.6v-7.8a3.4 3.4 0 0 1 .24-1.29 3.05 3.05 0 0 1 .67-1 3.12 3.12 0 0 1 1-.68 3.4 3.4 0 0 1 1.34-.25 3.09 3.09 0 0 1 2.33.93 3.49 3.49 0 0 1 .69 1.09 3.74 3.74 0 0 1 .24 1.36v.79h-2v-.67a1.71 1.71 0 0 0 -.34-1 1.1 1.1 0 0 0 -.92-.43 1 1 0 0 0 -1 .46 2.47 2.47 0 0 0 -.25 1.19v7.24a1.86 1.86 0 0 0 .27 1 1.05 1.05 0 0 0 1 .42 1.41 1.41 0 0 0 .86-.3 1 1 0 0 0 .21-.48 1.55 1.55 0 0 0 .13-.69v-.7z"/><path d="m274.93 414.66 3.16-14.16h1.69l3.22 14.16h-2l-.6-3h-2.77l-.59 3zm5-5-1-5.14-1 5.14z"/><path d="m283.94 414.66v-14.16h3a4.19 4.19 0 0 1 1.67.3 3 3 0 0 1 1.75 1.93 5.05 5.05 0 0 1 .18 1.35v.51a5.38 5.38 0 0 1 -.08 1 2.26 2.26 0 0 1 -.27.69 2.78 2.78 0 0 1 -1 1 2.27 2.27 0 0 1 1.06 1 4.07 4.07 0 0 1 .33 1.8v.79a4.15 4.15 0 0 1 -.9 2.87 3.74 3.74 0 0 1 -2.89 1zm2-12.25v3.9h.91a1.57 1.57 0 0 0 1.37-.51 2.63 2.63 0 0 0 .34-1.48 2.25 2.25 0 0 0 -.38-1.44 1.77 1.77 0 0 0 -1.41-.47zm0 5.69v4.53h.87a2.15 2.15 0 0 0 1-.18 1.22 1.22 0 0 0 .53-.5 1.73 1.73 0 0 0 .21-.75 9.46 9.46 0 0 0 0-1 6.43 6.43 0 0 0 0-.93 1.71 1.71 0 0 0 -.24-.68 1.3 1.3 0 0 0 -.54-.41 2.76 2.76 0 0 0 -.9-.12z"/><path d="m292.47 414.66v-14.16h2v14.16z"/><path d="m296.39 414.66v-14.16h1.95l3.07 8.53v-8.53h2v14.16h-1.91l-3.1-8.51v8.51z"/></g><path d="m231.29 413.56v-14.17h3a4.14 4.14 0 0 1 1.66.3 3.12 3.12 0 0 1 1.12.8 2.78 2.78 0 0 1 .63 1.14 4.62 4.62 0 0 1 .19 1.34v.52a4.54 4.54 0 0 1 -.09 1 2.37 2.37 0 0 1 -.27.69 2.83 2.83 0 0 1 -1 1 2.11 2.11 0 0 1 1 1 3.91 3.91 0 0 1 .34 1.79v.8a4.12 4.12 0 0 1 -.9 2.86 3.77 3.77 0 0 1 -2.9 1zm2-12.26v3.9h.92a1.53 1.53 0 0 0 1.36-.51 2.61 2.61 0 0 0 .35-1.48 2.24 2.24 0 0 0 -.39-1.43 1.71 1.71 0 0 0 -1.4-.48zm0 5.69v4.54h.88a2.18 2.18 0 0 0 1-.18 1.26 1.26 0 0 0 .52-.5 1.89 1.89 0 0 0 .22-.75c0-.3 0-.62 0-1a6.22 6.22 0 0 0 -.06-.93 1.66 1.66 0 0 0 -.24-.68 1.14 1.14 0 0 0 -.53-.41 2.52 2.52 0 0 0 -.9-.13z" fill="#c69a4b"/><path d="m239.64 402.73a3.6 3.6 0 0 1 .3-1.51 3.26 3.26 0 0 1 .79-1.09 3.41 3.41 0 0 1 1.09-.64 3.49 3.49 0 0 1 2.44 0 3.62 3.62 0 0 1 1.11.64 3.21 3.21 0 0 1 .77 1.09 3.6 3.6 0 0 1 .3 1.51v7.48a3.62 3.62 0 0 1 -.3 1.54 3 3 0 0 1 -.77 1.05 3.48 3.48 0 0 1 -1.11.66 3.49 3.49 0 0 1 -2.44 0 3.28 3.28 0 0 1 -1.09-.66 3.09 3.09 0 0 1 -.79-1.05 3.62 3.62 0 0 1 -.3-1.54zm2 7.48a1.32 1.32 0 0 0 .41 1.09 1.44 1.44 0 0 0 1 .35 1.48 1.48 0 0 0 1-.35 1.35 1.35 0 0 0 .4-1.09v-7.48a1.34 1.34 0 0 0 -.4-1.08 1.48 1.48 0 0 0 -1-.35 1.44 1.44 0 0 0 -1 .35 1.31 1.31 0 0 0 -.41 1.08z" fill="#c69a4b"/><path d="m254.8 399.39v11a3.41 3.41 0 0 1 -.25 1.29 3.21 3.21 0 0 1 -.71 1 3.33 3.33 0 0 1 -1.05.72 3.21 3.21 0 0 1 -1.27.26 3.13 3.13 0 0 1 -1.27-.26 3.4 3.4 0 0 1 -1-.72 3.2 3.2 0 0 1 -1-2.33v-11h2v10.78a1.52 1.52 0 0 0 .36 1.12 1.29 1.29 0 0 0 1.79 0 1.52 1.52 0 0 0 .36-1.12v-10.74z" fill="#c69a4b"/><path d="m256.71 413.56v-14.17h3a3.49 3.49 0 0 1 2.66 1 3.78 3.78 0 0 1 .9 2.7v6.63a4 4 0 0 1 -1 2.93 3.82 3.82 0 0 1 -2.78.95zm2-12.26v10.35h.93a1.5 1.5 0 0 0 1.21-.43 2.06 2.06 0 0 0 .36-1.34v-6.83a2.13 2.13 0 0 0 -.34-1.29 1.44 1.44 0 0 0 -1.23-.46z" fill="#c69a4b"/><path d="m275.33 409.52v.87a3.28 3.28 0 0 1 -.25 1.25 3.5 3.5 0 0 1 -.69 1 3.23 3.23 0 0 1 -1 .73 3 3 0 0 1 -1.27.27 4.84 4.84 0 0 1 -1.17-.16 2.82 2.82 0 0 1 -1.07-.56 3.18 3.18 0 0 1 -.79-1 3.54 3.54 0 0 1 -.31-1.6v-7.79a3.46 3.46 0 0 1 .24-1.3 3 3 0 0 1 .68-1 3.26 3.26 0 0 1 1-.69 3.63 3.63 0 0 1 1.34-.25 3.1 3.1 0 0 1 2.33.94 3.44 3.44 0 0 1 .69 1.08 3.79 3.79 0 0 1 .25 1.37v.79h-2v-.68a1.68 1.68 0 0 0 -.34-1 1.11 1.11 0 0 0 -.92-.44 1 1 0 0 0 -1 .47 2.46 2.46 0 0 0 -.25 1.18v7.24a1.87 1.87 0 0 0 .27 1 1.05 1.05 0 0 0 1 .42 1.68 1.68 0 0 0 .43-.07 1.49 1.49 0 0 0 .43-.23 1.22 1.22 0 0 0 .3-.44 1.79 1.79 0 0 0 .12-.7v-.69z" fill="#c69a4b"/><path d="m276.06 413.56 3.16-14.17h1.7l3.16 14.17h-2l-.6-3.05h-2.76l-.6 3.05zm5-5-1-5.13-1 5.13z" fill="#c69a4b"/><path d="m285.07 413.56v-14.17h3a4.14 4.14 0 0 1 1.66.3 3.21 3.21 0 0 1 1.12.8 3 3 0 0 1 .63 1.14 5 5 0 0 1 .19 1.34v.52a4.54 4.54 0 0 1 -.09 1 2.37 2.37 0 0 1 -.27.69 2.86 2.86 0 0 1 -1 1 2.18 2.18 0 0 1 1.06 1 4 4 0 0 1 .34 1.79v.8a4.08 4.08 0 0 1 -.91 2.86 3.75 3.75 0 0 1 -2.89 1zm2-12.26v3.9h.93a1.55 1.55 0 0 0 1.36-.51 2.61 2.61 0 0 0 .35-1.48 2.24 2.24 0 0 0 -.39-1.43 1.73 1.73 0 0 0 -1.4-.48zm0 5.69v4.54h.93a2.1 2.1 0 0 0 1-.18 1.28 1.28 0 0 0 .53-.5 1.89 1.89 0 0 0 .22-.75c0-.3 0-.62 0-1a6.22 6.22 0 0 0 -.06-.93 1.66 1.66 0 0 0 -.24-.68 1.12 1.12 0 0 0 -.54-.41 2.43 2.43 0 0 0 -.91-.08z" fill="#c69a4b"/><path d="m293.61 413.56v-14.17h2v14.17z" fill="#c69a4b"/><path d="m297.52 413.56v-14.17h2l3.07 8.54v-8.54h2v14.17h-1.89l-3.11-8.56v8.52z" fill="#c69a4b"/></svg>