<svg viewBox="0 0 512 512" xmlns="http://www.w3.org/2000/svg"><path d="m464.77 228c17.13 16.61 21.66 36.11 20.59 57.62-.74 14.67-.15 29.46-1.8 44-.85 7.57-4.23 15.39-8.35 21.9-3.7 5.85-5.45 11.32-5.29 18.07.32 13.58.24 27.18.05 40.76-.25 18-13.2 30.81-31.24 31.09-9.9.15-19.82.19-29.72 0a30.54 30.54 0 0 1 -30.37-30.23c-.23-9.87 0-19.75 0-30.24h-244.98c0 9.1.05 18.33 0 27.55-.15 20.17-12.73 32.81-32.82 33q-13.17.11-26.33 0c-19.52-.2-32.13-12.94-32.26-32.66-.1-14.43.16-28.88-.15-43.31-.08-3.42-1.6-6.89-2.81-10.21-3.92-10.81-10.29-21.27-11.47-32.29-1.94-18.19-1.41-36.78-.32-55.11.89-15.05 7.8-28.18 20.49-40.5h-16.45c-7.83 0-12.88-3.52-14.66-11.35-1.31-5.78-2.76-11.54-4-17.34-2.42-11.16 1.92-16.72 13.49-16.84 15.85-.16 31.71-.27 47.56.09 5.15.12 7.32-1.87 9.17-6.37 6.76-16.46 12.32-33.7 21.32-48.88 20.35-34.35 52.08-51.08 91.7-51.75 39.91-.66 79.85-.91 119.74 0 48.8 1.18 82.68 25.3 101.55 70.31q6.39 15.25 12 30.81c1.6 4.44 4 5.91 8.68 5.82 15.57-.31 31.14-.2 46.71-.09 13.08.08 17.3 5.39 14.26 18.26-6.63 28.15-3.61 27.14-34.29 27.89zm-86.11-15.87c-7.47-18.23-13.66-35.54-21.56-52-7.41-15.48-21.2-23.85-38.17-24.1-41.83-.62-83.69-.51-125.53 0-14.94.16-28.42 6.61-35.43 19.83-9.45 17.79-16.43 36.9-24.86 56.36zm-265.66 107.92c8.32-.65 14.62-.51 20.66-1.73q22-4.45 12.91-24.71a63.1 63.1 0 0 0 -34.38-33.51 28.78 28.78 0 0 0 -38 17.26c-5.9 17.37 1.94 35.27 18.24 39.87 7.23 2.04 15.01 2.11 20.57 2.82zm285.1.21c7-.93 14.83-1 22-3.09 16-4.69 23.53-21.94 18.05-39.28-4.78-15.13-21.49-23.9-36.75-18.2-17.85 6.67-30.34 19.51-37 37.4-3.89 10.5.17 17.8 11.21 20.42 7.09 1.67 14.51 1.83 22.46 2.75z"/></svg>