<svg id="Layer_1" data-name="Layer 1" xmlns="http://www.w3.org/2000/svg" viewBox="0 0 512 512"><path d="M206.57,329.88c14.48-21.32,28.58-42.08,42.66-62.84Q312.62,173.56,376,80.1c7.4-10.9,19.38-13.21,30.45-5.92q16.86,11.1,33.43,22.66c10.88,7.64,12.89,19.42,5.37,30.53Q371.75,236,298.15,344.5q-27.69,40.88-55.41,81.72c-14,20.57-35.7,22.86-53.33,5.38-27.63-27.4-55.06-55-82.57-82.52Q88.5,330.74,70.17,312.37c-9.71-9.74-9.85-22-.25-31.76q13.81-14,27.87-27.87c9.66-9.49,21.83-9.46,31.39.06q36.39,36.29,72.7,72.64C203.27,326.83,204.73,328.15,206.57,329.88Z"/></svg>