<svg viewBox="0 0 512 512" xmlns="http://www.w3.org/2000/svg"><path d="m174.72 89.57c0-8.35 0-16.14 0-23.93.12-25.67 19-44.52 44.71-44.55q41.28-.06 82.57 0c26.19 0 44.93 19 44.9 45.29v23.42h7.16q46.56 0 93.11 0c10.69 0 17.65 9 14.6 18.73a14.21 14.21 0 0 1 -12.94 10 42.07 42.07 0 0 1 -5.5 0c-2.51-.19-3.4.77-3.64 3.34q-3.54 39-7.33 78.06-4.39 45.87-8.84 91.73c-2.89 30.28-5.69 60.56-8.58 90.84-2 21.15-3.74 42.33-6.27 63.42-2.67 22.23-20.63 37.71-43.07 37.74q-74.31.12-148.63 0-29.58 0-59.17 0c-25-.05-42.78-17.18-44.85-42.15-2.21-26.8-5.18-53.54-7.79-80.31q-3.87-39.71-7.7-79.41-4.36-44.71-8.75-89.44c-2.24-22.81-4.7-45.61-6.54-68.46-.41-5-2.31-5.54-6.41-5.43-8.15.23-13.51-3.14-15.74-9.28-3.46-9.55 3.3-19.27 13.73-19.37 15.9-.14 31.8 0 47.7 0h49.09c1.2-.02 2.39-.14 4.18-.24zm235.68 29.27h-299.72c.06 1.31.06 2.35.16 3.39l5.94 60.7q4.31 43.81 8.6 87.63 4.4 44.71 8.82 89.44c2.57 26.17 5 52.35 7.77 78.49 1.29 12.35 6.07 16.32 18.66 16.32q66.08 0 132.14 0 35.1 0 70.2 0c10 0 15.32-4.78 16.47-14.63.61-5.31 1.09-10.64 1.6-16q4.35-45.2 8.68-90.39 4.36-45.42 8.75-90.84 3.91-40.62 7.83-81.25c1.36-14.1 2.7-28.24 4.1-42.86zm-92.55-29.29c0-7.69 0-15.14 0-22.59 0-11.65-5.37-17-17.15-17q-28.89 0-57.78 0c-8.1 0-16.2-.12-24.3.05-7.57.16-14 4.75-14.44 11.52-.67 9.23-.17 18.53-.17 28z"/><path d="m295.65 375.42c1.91-19.51 3.9-39.89 5.92-60.28q4.38-44.49 8.81-89c1.09-10.95 1.89-21.95 3.49-32.82a14.35 14.35 0 0 1 16.46-12.45c7.56 1.14 12.63 7.89 12.12 16.35-.25 4.12-.76 8.22-1.16 12.33q-5.39 54.52-10.79 109.06c-2 20.08-3.92 40.16-6.08 60.22-1 8.87-7.74 14.6-15.73 13.84s-13.43-7.38-13.04-17.25z"/><path d="m226 375.57c.38 9.79-5 16.46-13.17 17.12-7.92.65-14.66-4.93-15.57-13.51-2.48-23.4-4.73-46.83-7.06-70.26q-4.86-49.05-9.69-98.11c-.47-4.72-1.09-9.42-1.33-14.15-.42-8.11 4.83-14.72 12.25-15.79a14.29 14.29 0 0 1 16.24 12.13c1.67 11 2.48 22.17 3.58 33.27q4.45 44.49 8.83 89c2.01 20.39 4 40.73 5.92 60.3z"/></svg>