<svg viewBox="0 0 512 512" xmlns="http://www.w3.org/2000/svg"><path d="m278.29 33.31c12.2 2.34 24.54 4.09 36.56 7.11 35 8.78 65.47 26 91.41 50l-62.54 62.58c-15.79-14.2-34.49-24.66-56.23-29.46-74.29-16.4-148.75 34.4-160.49 109.66-11.48 73.18 34.45 141.8 106.38 155.8 45.13 8.78 86.6-.83 120.06-34.69 14.28-14.44 24.28-35.89 25.52-52.81h-119.73v-86.65h208.7c.88 5.71 2.09 11.58 2.65 17.51 5.88 62.54-5 120.92-44.81 171.35-33.9 42.94-79.49 66-133 72.93-74.48 9.68-140.43-10.13-192.9-64.51-61.62-63.88-80.11-140.65-52.7-224.9 27.26-83.93 87.41-133.64 174.18-150.72 5.62-1.1 11.27-2.13 16.9-3.2z" fill="#fff"/></svg>