<svg viewBox="0 0 512 512" xmlns="http://www.w3.org/2000/svg"><path d="m183.88 477.6h-103.44c-1.76-.24-3.54-.42-5.29-.74-5.84-1.07-9.57-4.45-10.68-10.34a41.06 41.06 0 0 1 -.68-7.51q0-66.58.05-133.19c0-4.71 0-9.44.06-14.15.06-3.45 1.1-6.52 3.94-8.76.9-.72 1.74-1.53 2.61-2.3q29.88-26.31 59.75-52.61 29-25.51 58-51 29.46-25.87 58.91-51.78l8.42-7.39 2 1.79q14.75 13 29.5 26 40.38 35.52 80.79 71 38.06 33.45 76.12 66.91a9.12 9.12 0 0 1 3.19 6.95c.07 2.51.08 5 .09 7.55 0 10.28.08 20.56.08 30.84q0 55.79-.09 111.59c0 1.19 0 2.39-.12 3.59-.43 6.56-4 11.16-10.19 12.64a46.57 46.57 0 0 1 -6.17.67l-2.11.2h-101.7c-1.45-.16-2.91-.28-4.35-.48-6-.81-9.92-4.22-11.23-10.09a37.75 37.75 0 0 1 -.82-8.08q-.09-49.8-.07-99.59a48 48 0 0 0 -.6-7.39c-.94-5.87-4.24-9.66-10.2-10.75a44 44 0 0 0 -7.5-.75q-36.78-.08-73.55 0a37.83 37.83 0 0 0 -6.55.61c-5.85 1-9.6 4.38-10.68 10.31a42.25 42.25 0 0 0 -.7 7.61q-.07 49.92 0 99.84a46.23 46.23 0 0 1 -.45 6.33c-.91 6.78-4.52 10.53-11.23 11.74-1.72.34-3.42.5-5.11.73z"/><path d="m254 38.88h3.6c.14.06.27.18.41.19 7.95.58 14.63 4 20.52 9.15q10.86 9.54 21.73 19.07 44.58 39.3 89.14 78.61 49.18 43.48 98.32 87c5.41 4.78 10.75 9.58 14.26 16 0 .06.12.09.18.14v1a32.8 32.8 0 0 1 -4 9.55 78.37 78.37 0 0 1 -14.24 17.41 86.9 86.9 0 0 1 -8.8 6.79 8.19 8.19 0 0 1 -7.46.88 25.33 25.33 0 0 1 -9.31-5.27q-41.87-36.83-83.74-73.66-51.45-45.3-102.87-90.6a100.48 100.48 0 0 0 -9.44-7.56c-4.29-2.92-8.88-2.86-13.32-.13a36.3 36.3 0 0 0 -4.92 3.6q-18 15.72-35.84 31.53-38.83 34.24-77.65 68.42-37.29 32.9-74.57 65.74a70.51 70.51 0 0 1 -8.85 6.74c-4.67 2.93-9.42 2.61-13.87-.72a25.74 25.74 0 0 1 -3.55-3c-4.6-5-9.13-10.07-13.66-15.13-3.3-3.68-6.35-7.5-7.12-12.61v-1.2c.21-.84.37-1.7.63-2.52a18.66 18.66 0 0 1 5.86-8.19q21.83-19.41 43.7-38.75 8.63-7.64 17.27-15.24a1.38 1.38 0 0 0 .47-1.7 18 18 0 0 1 -.82-4.68q-.06-59.18-.06-118.33c0-7.28 5.18-12.41 12.47-12.41h45.12a12 12 0 0 1 12.41 12.35v63.13c.42-.33.61-.46.79-.61q18.6-16.44 37.21-32.87 23.55-20.8 47.11-41.58c4.92-4.34 10.31-7.84 16.76-9.42 2-.5 4.06-.76 6.13-1.12z"/></svg>