<svg id="Layer_1" data-name="Layer 1" xmlns="http://www.w3.org/2000/svg" viewBox="0 0 512 512"><defs><style>.cls-1{fill:#fff;}</style></defs><path d="M183.88,477.6H80.44c-1.76-.24-3.54-.42-5.29-.74-5.84-1.07-9.57-4.45-10.68-10.34a41.06,41.06,0,0,1-.68-7.51q0-66.58.05-133.19c0-4.71,0-9.44.06-14.15.06-3.45,1.1-6.52,3.94-8.76.9-.72,1.74-1.53,2.61-2.3Q100.33,274.3,130.2,248q29-25.51,58-51,29.46-25.87,58.91-51.78l8.42-7.39,2,1.79q14.75,13,29.5,26,40.38,35.52,80.79,71,38.06,33.45,76.12,66.91a9.12,9.12,0,0,1,3.19,6.95c.07,2.51.08,5,.09,7.55,0,10.28.08,20.56.08,30.84q0,55.79-.09,111.59c0,1.19,0,2.39-.12,3.59-.43,6.56-4,11.16-10.19,12.64a46.57,46.57,0,0,1-6.17.67l-2.11.2H326.92c-1.45-.16-2.91-.28-4.35-.48-6-.81-9.92-4.22-11.23-10.09a37.75,37.75,0,0,1-.82-8.08q-.09-49.8-.07-99.59a48,48,0,0,0-.6-7.39c-.94-5.87-4.24-9.66-10.2-10.75a44,44,0,0,0-7.5-.75q-36.78-.08-73.55,0a37.83,37.83,0,0,0-6.55.61c-5.85,1-9.6,4.38-10.68,10.31a42.25,42.25,0,0,0-.7,7.61q-.07,49.92,0,99.84a46.23,46.23,0,0,1-.45,6.33c-.91,6.78-4.52,10.53-11.23,11.74C187.27,477.21,185.57,477.37,183.88,477.6Z"/><path d="M254,38.88h3.6c.14.06.27.18.41.19,7.95.58,14.63,4,20.52,9.15q10.86,9.54,21.73,19.07,44.58,39.3,89.14,78.61,49.18,43.48,98.32,87c5.41,4.78,10.75,9.58,14.26,16,0,.06.12.09.18.14v1a32.8,32.8,0,0,1-4,9.55A78.37,78.37,0,0,1,483.92,277a86.9,86.9,0,0,1-8.8,6.79,8.19,8.19,0,0,1-7.46.88,25.33,25.33,0,0,1-9.31-5.27q-41.87-36.83-83.74-73.66-51.45-45.3-102.87-90.6a100.48,100.48,0,0,0-9.44-7.56c-4.29-2.92-8.88-2.86-13.32-.13a36.3,36.3,0,0,0-4.92,3.6q-18,15.72-35.84,31.53Q169.39,176.82,130.57,211,93.28,243.9,56,276.74a70.51,70.51,0,0,1-8.85,6.74c-4.67,2.93-9.42,2.61-13.87-.72a25.74,25.74,0,0,1-3.55-3c-4.6-5-9.13-10.07-13.66-15.13-3.3-3.68-6.35-7.5-7.12-12.61v-1.2c.21-.84.37-1.7.63-2.52a18.66,18.66,0,0,1,5.86-8.19q21.83-19.41,43.7-38.75,8.63-7.64,17.27-15.24a1.38,1.38,0,0,0,.47-1.7,18,18,0,0,1-.82-4.68Q76,120.56,76,61.41C76,54.13,81.18,49,88.47,49h45.12A12,12,0,0,1,146,61.35v63.13c.42-.33.61-.46.79-.61Q165.39,107.43,184,91q23.55-20.8,47.11-41.58c4.92-4.34,10.31-7.84,16.76-9.42C249.87,39.5,251.93,39.24,254,38.88Z"/><path class="cls-1" d="M183.88,477.6c1.69-.23,3.39-.39,5.06-.69,6.71-1.21,10.32-5,11.23-11.74a46.23,46.23,0,0,0,.45-6.33q0-49.92,0-99.84a42.25,42.25,0,0,1,.7-7.61c1.08-5.93,4.83-9.3,10.68-10.31a37.83,37.83,0,0,1,6.55-.61q36.77-.08,73.55,0a44,44,0,0,1,7.5.75c6,1.09,9.26,4.88,10.2,10.75a48,48,0,0,1,.6,7.39q.06,49.8.07,99.59a37.75,37.75,0,0,0,.82,8.08c1.31,5.87,5.26,9.28,11.23,10.09,1.44.2,2.9.32,4.35.48Z"/></svg>