<svg viewBox="0 0 512 512" xmlns="http://www.w3.org/2000/svg"><path d="m242.09 21h27.61c1.49.28 3 .62 4.46.82 8.65 1.15 17.39 1.81 25.94 3.46q77.47 15 130.58 73.46a229.21 229.21 0 0 1 57.23 117.76c1.48 8.72 2.41 17.53 3.59 26.3v27.61c-.72 6-1.3 12.13-2.18 18.16-7.38 50.85-28.18 95.39-64.42 131.92-55.43 55.89-122.9 79.03-200.9 69.38-50.66-6.27-95-27.65-131.27-63.6-59.73-59.16-82.53-130.92-68.06-213.69 9-51.81 34.31-95.38 73.27-130.71a229.47 229.47 0 0 1 117.8-57.27c8.74-1.49 17.57-2.41 26.35-3.6zm46.78 287.53q0-47.37 0-94.73c0-7.5-2.11-9.65-9.5-9.65q-23 0-46 0c-8.69 0-10.42 1.74-10.42 10.56q0 94.05 0 188.08c0 7.8 2 9.9 9.75 9.92q23 0 46 0c8.28 0 10.2-2 10.2-10.4zm-71-170.27c-.53 20.54 16.17 37.79 37.13 38.36s38.09-15.7 38.83-37.07c.73-20.91-16.2-38.49-37.52-39-20.65-.4-37.87 16.45-38.42 37.71z"/></svg>