<svg id="Layer_1" data-name="Layer 1" xmlns="http://www.w3.org/2000/svg" viewBox="0 0 512 512"><path d="M263.21,24.17c3.36.68,6.78,1.17,10.07,2.09,24.9,7,41.15,28.89,41.19,55.5q.09,54,0,108.06V193c1.22.06,2.25.15,3.28.15q54.38,0,108.75,0c27.55,0,50.07,18.28,55.8,45.15,6.65,31.25-15.53,62.7-47.22,66.82a74.39,74.39,0,0,1-10.76.55q-53.56-.9-107.12-1.9c-.83,0-1.66,0-2.81,0v3.06q0,55.19,0,110.36c0,20.15-8.14,36.27-24.67,47.74-33.87,23.49-81.43,2.62-87.27-38.17a59,59,0,0,1-.66-9.38q.78-49.32,1.68-98.62c.09-4.89,0-9.78,0-15-.73,0-1.62,0-2.5,0q-55.17,1-110.33,2a56.39,56.39,0,0,1-57.44-49.71,10.61,10.61,0,0,0-.41-1.54V244.44c.39-2.1.72-4.22,1.17-6.3,5.81-26.73,28.32-44.91,55.73-44.94q55.5-.06,111,0h3.11c0-1.12,0-1.94,0-2.77-.66-36.23-1.26-72.46-2-108.69a56.38,56.38,0,0,1,44.3-56.24c2.31-.5,4.64-.88,7-1.32Z"/></svg>