<svg viewBox="0 0 512 512" xmlns="http://www.w3.org/2000/svg"><path d="m256.61 275c-1 4.8-2.32 8.95-2.6 13.18-.82 12.84 5.14 22.12 15.92 28.66 6.8 4.13 6.76 7.21 0 11.41-14.57 9.06-19.33 23-13.48 39.31 6.26 17.46 15.07 33.39 27.42 47.37 11.38 12.87 24.93 15.65 40.22 7.73 7.75-4 10-2.74 10.26 5.88.39 12-.86 13.59-12.85 15.85a47 47 0 0 1 -8.81.56q-131.69.05-263.47.05c-25.23 0-40.63-15-40.11-40.25.37-18.06-.39-36.73 3.86-54 11.4-46.32 50.63-75.79 98.44-77.07a59.19 59.19 0 0 1 23.18 3.77c31.43 11.89 63 11.62 94.23-.93 9.3-3.8 18.36-3.52 27.79-1.52z"/><path d="m180.36 248.87c-53.67 0-97.89-44.28-97.87-98s44.28-97.89 98-97.87 97.89 44.27 97.86 98-44.35 97.89-97.99 97.87z"/><path d="m446.93 254.74c5.74-3.33 11.69-6.59 17.42-10.21 3.94-2.49 7-2.21 10.07 1.39 10.34 12 18.4 25.21 23.44 40.3 1.51 4.52.84 8-3.48 9.49-14.63 4.94-18.41 14.47-17.53 29.7.61 10.62 2.48 16.67 12.35 21.15 11.34 5.16 11.92 6.4 6.4 17.48-6.11 12.26-14.06 23.62-21.43 35.23-2.34 3.67-5.71 3.8-9.45 1.47-5.58-3.47-11.26-9.07-17-9.26-5.23-.17-10.29 7-16.07 8.66-12.31 3.55-14.55 11.36-13.51 22.79 1 10.88.18 10.79-10.81 12.82a109.23 109.23 0 0 1 -41.21-.41c-5.08-1-8-3.5-7.13-8.77 2.26-13.8-2.39-21.68-15.76-28.57-10.78-5.57-17.62-6.6-27.17.38-8.61 6.3-10 6.13-15.79-2.74-7.66-11.66-13.91-24.26-20.63-36.52-2.27-4.15-1.05-8.14 3.2-9.57 15.29-5.17 18.95-15.4 17.8-30.93-.69-9.42-1.59-15.84-11-19.1-2.32-.81-4.35-2.43-6.53-3.64-4.25-2.36-5.35-5.51-3.53-10.22 5.46-14.07 12.37-27.2 22.25-38.74 3.6-4.2 7.17-5.6 11.56-2 10.49 8.68 20.85 11.22 31.4.19a2.6 2.6 0 0 1 1.19-.64c11.53-2.83 14.25-10.31 13.17-21.52-1.12-11.69-.23-11.69 11.25-13.76a108.59 108.59 0 0 1 40.54.44c5.08 1 8.22 3.38 7.29 8.63-2.53 14.3 1.62 24.07 16.58 28.36 4.33 1.29 7.89 5.21 12.12 8.12zm-21.13 67.88a37.06 37.06 0 1 0 -37.15 37 36.9 36.9 0 0 0 37.15-37z"/></svg>