<svg viewBox="0 0 512 512" xmlns="http://www.w3.org/2000/svg"><path d="m254.24 288.24c-20.17 5.06-40 10.08-59.9 15-8.45 2.1-16.84 4.68-25.41 6-15.42 2.33-26.79-3.07-33.09-17.39-10.76-24.44-21.08-49.14-30.07-74.27-7.21-20.2.73-40.48 17.82-51.75 16.41-10.83 39.6-9.83 54.09 3.56 6 5.55 10.65 13.07 14.34 20.48 7.51 15.06 13.93 30.65 21 46.57 20.47-5.17 40.54-10.28 60.63-15.3 24.76-6.19 41.85 7 41.9 32.54.08 39.69 0 79.39 0 119.09v9.83c3.46-1 5.87-1.63 8.18-2.48q53.4-19.8 106.8-39.64c14-5.16 21-15.3 22.17-29.86 1.16-14.12 11.21-23.75 24-23 13.11.79 22.41 11.89 21.1 26.37-3 33.75-20.3 57.42-52.14 69.28q-154.19 57.47-308.66 114.32c-10 3.7-19.28 3.82-27.23-4.5-7-7.3-9.37-16.34-4.26-24.7a34.94 34.94 0 0 1 16.26-13.39c42.23-16.26 84.75-31.73 127.23-47.36 3.6-1.32 6.27-2.31 6.24-7.28-.26-36-.15-72.07-.19-108.11a25 25 0 0 0 -.81-4.01z"/><path d="m143.09 385.65c-28-1.73-53.29-16.75-68.19-46.87-20.43-41.33-40.13-83-59.91-124.66-6.19-13-1.88-26.46 9.48-31.82 12.23-5.78 24.81-1 31.31 12.49 18.57 38.48 37.69 76.73 55.14 115.71 13.34 29.78 35.06 35.58 61.63 25.33a42.63 42.63 0 0 1 19.45-2.71c9.43 1.09 15.64 9 17.05 18.51 1.23 8.33-3.65 19.31-11.77 22.54-15.64 6.24-31.54 12.14-54.19 11.48z"/><path d="m118.32 135.12a45.41 45.41 0 1 1 45.16-45.22 45.7 45.7 0 0 1 -45.16 45.22z"/><path d="m225.17 14.14h29.09v166.73l-29.09 7.28z"/></svg>