<svg viewBox="0 0 512 512" xmlns="http://www.w3.org/2000/svg" xmlns:xlink="http://www.w3.org/1999/xlink"><clipPath id="a"><ellipse cx="261.62" cy="217.91" rx="133.41" ry="134.97"/></clipPath><path d="m220.18 153.11a6.48 6.48 0 0 0 -1.41-.15h-.08a14.81 14.81 0 0 0 .92-5.08 14.63 14.63 0 0 0 -29.21-1.12h-22.09a6.36 6.36 0 0 0 -1.19 12.61 5.79 5.79 0 0 0 1.19.12h2.89a6.53 6.53 0 0 0 6.53 6.53h41a6.53 6.53 0 0 0 1.41-12.91z" fill="#fff" opacity=".88"/><path d="m293.15 117.25a5.59 5.59 0 0 0 -2.95-.85h-13.32a8.11 8.11 0 0 0 -7.5-8.07 12.18 12.18 0 0 0 -24-.06h-5.71a8.13 8.13 0 0 0 -8.13 8.13h-3.16a5.64 5.64 0 0 0 -5.64 5.64 5.36 5.36 0 0 0 .23 1.51 5.62 5.62 0 0 0 5.41 4.14h17.29a14.65 14.65 0 0 0 23.44 0h21.09a5.63 5.63 0 0 0 2.95-10.44z" fill="#fff" opacity=".88"/><path d="m352.3 138a10.21 10.21 0 0 0 -4.38-2.42 3.31 3.31 0 0 0 0-.33 5.62 5.62 0 0 0 -5.62-5.61 5.45 5.45 0 0 0 -2.14.43 11.55 11.55 0 0 0 -21 6.68 12.35 12.35 0 0 0 .12 1.62h-1.77a6 6 0 0 0 -1.29 11.95 6.14 6.14 0 0 0 1.29.14h4.49a7.79 7.79 0 0 0 -.18 1.61 7.22 7.22 0 0 0 13.61 3.36h10a10.07 10.07 0 0 0 6.87-17.43z" fill="#fff" opacity=".88"/><ellipse cx="261.62" cy="217.91" fill="#e6e6e6" opacity=".1" rx="133.41" ry="134.97"/><g clip-path="url(#a)"><g fill="#fff" opacity=".44"><path d="m312.21 301.27-33.16-135.91c-1.4-5.9-4.65-6.43-4.65-6.43s-3.26.53-4.65 6.43l-33.16 135.91s-3 8.62 8.13 8.62h59.36c11.14 0 8.13-8.62 8.13-8.62z"/><path d="m388.36 312.1-28-114.64c-1.17-5-3.92-5.43-3.92-5.43s-2.74.45-3.92 5.43l-28 114.64s-2.54 7.27 6.85 7.27h50.13c9.4 0 6.86-7.27 6.86-7.27z"/><path d="m274 306.81-28-114.65c-1.18-5-3.93-5.42-3.93-5.42s-2.74.44-3.92 5.42l-28 114.65s-2.54 7.27 6.85 7.27h50.08c9.4 0 6.86-7.27 6.86-7.27z"/><path d="m192.18 296.14-28-114.64c-1.18-5-3.92-5.43-3.92-5.43s-2.75.45-3.93 5.43l-28 114.64s-2.54 7.27 6.86 7.27h50.08c9.39 0 6.85-7.27 6.85-7.27z"/></g><path d="m190.54 136.64-33.16 135.9s-3 8.62 8.13 8.62h29.68v-151s-3.25.52-4.65 6.43z" fill="#2e8d4b"/><path d="m233 272.54-33.16-135.9c-1.39-5.91-4.65-6.43-4.65-6.43v151h29.69c11.14 0 8.12-8.62 8.12-8.62z" fill="#1c7d3a"/><path d="m186.14 281.16v18.5h9.05v-18.5z" fill="#7a5728"/><path d="m204.24 281.16h-9.05v18.5h9.05z" fill="#6b4d22"/><path d="m367.51 299.72h-212a135.58 135.58 0 0 0 18.08 19.54h175.83a135.08 135.08 0 0 0 18.09-19.54z" fill="#2e8d4b"/><path d="m349.42 319.26h-175.81a132.26 132.26 0 0 0 175.81 0z" fill="#1c7d3a"/><g fill="#fff"><path d="m158.72 163.11c.18-.05-.14-.09 0 0z"/><path d="m158.82 163.19-.1-.08h-.07a.3.3 0 0 1 .17.08z"/><path d="m257.35 333.46a4.28 4.28 0 0 1 -4.25 4.31h-36.4a4.28 4.28 0 0 1 -4.25-4.31 4.27 4.27 0 0 1 4.25-4.3h36.4a4.27 4.27 0 0 1 4.25 4.3z"/><path d="m293.46 333.46a4.29 4.29 0 0 1 -4.26 4.31h-14.37a4.29 4.29 0 0 1 -4.26-4.31 4.28 4.28 0 0 1 4.26-4.3h14.37a4.28 4.28 0 0 1 4.26 4.3z"/></g></g><path d="m325.83 171.27h-14.59v24.31h14.59z" fill="#ae392d"/><path d="m242.88 235.73h6.65l52.87-43.32 53.22 43.32h6.65l.05-.07-59.68-49.05z" fill="#ae392d"/><path d="m249.53 235.73h.94-.94v64.07h106.09v-64.07h-.76.76l-53.22-43.32z" fill="#e64c3c"/><path d="m299.41 288.79h-39.15v-42.69h39.15z" fill="#d34232"/><path d="m344.89 288.79h-39.14v-42.69h39.14z" fill="#d34232"/><path d="m363.81 235.73a4.07 4.07 0 0 1 -2.6-.93l-58.63-48.18-58.64 48.18a4.09 4.09 0 1 1 -5.19-6.33l61.25-50.31a4.1 4.1 0 0 1 5.2 0l61.23 50.31a4.1 4.1 0 0 1 -2.6 7.26z" fill="#3a322c"/><path d="m328.29 168.73a2.54 2.54 0 0 1 -2.54 2.54h-14.36a2.55 2.55 0 0 1 -2.55-2.54 2.54 2.54 0 0 1 2.55-2.54h14.36a2.54 2.54 0 0 1 2.54 2.54z" fill="#3a322c"/><path d="m335.39 282.72h-21c-2.72 0-3.05-.52-3.05-2.32v-25.19c0-1.8.33-3.26 3.05-3.26h21.51c2.72 0 3.05 1 3.05 2.79v25.19c0 1.8-.33 2.79-3.05 2.79" fill="#88d3e3"/><path d="m311.34 272.29v-4.8l20.98-15.35 6.12.94z" fill="#c0e6f0"/><path d="m311.62 276.6c-.2-.07.16-.82 0-.94v-1.41l27.29-19v2.69z" fill="#c0e6f0"/><path d="m290.27 282.88h-21c-2.72 0-3.05-.52-3.05-2.33v-25.18c0-1.8.33-3.26 3.05-3.26h21.51c2.71 0 3 1 3 2.79v25.18c0 1.81-.33 2.8-3 2.8" fill="#88d3e3"/><path d="m266.21 272.44v-4.79l20.98-15.36 6.12.95z" fill="#c0e6f0"/><path d="m266.49 276.76c-.19-.07.17-.82 0-.94v-1.41l27.29-19v2.69l-27.29 18.7" fill="#c0e6f0"/><path d="m268.45 87.49a1.22 1.22 0 0 0 -.27-2.4c-28.39-.51-117.94 10-135 118.08 0 0-14.45 97.67 80 132.82a2.5 2.5 0 0 0 2.58-4.16c-17.27-16.58-50-60.89-41.9-128.66-.05 0 4.4-91.9 94.59-115.68z" fill="#f2f2f2" opacity=".15"/><ellipse cx="259.34" cy="217.73" fill="none" opacity=".65" rx="132.78" ry="136.37" stroke="#fff" stroke-miterlimit="10" stroke-width="3.4"/><path d="m181.59 328.98-3.59 17.95 163.88 1.19-3.59-19.14z" fill="#5a3a1b"/><ellipse cx="260.54" cy="387" opacity=".16" rx="129.19" ry="23.33"/><path d="m175.06 343.35-6 40.14a3.51 3.51 0 0 0 3.34 4.11h178.6a2.54 2.54 0 0 0 2.42-3l-6.42-42.66a2.51 2.51 0 0 0 -2.43-2.19h-165.5a4.14 4.14 0 0 0 -4.01 3.6z" fill="#704d2e"/><path d="m179.07 339.75a4.14 4.14 0 0 0 -4 3.6l-.17 1.18h172.48l-.39-2.59a2.51 2.51 0 0 0 -2.43-2.19z" fill="#745638"/><g fill="#eebc5a" opacity=".2"><path d="m216.28 354.1s0 7.18-6 6v10.77s7.17-1.2 6 7.18h94.5s-1.2-7.18 6-6v-10.77s-7.18 0-6-7.18z"/><circle cx="199.53" cy="366.07" r="3.59"/><circle cx="326.33" cy="367.26" r="3.59"/></g><path d="m217.47 352.91s0 7.17-6 6v10.76s7.18-1.19 6 7.18h94.53s-1.19-7.18 6-6v-10.77s-7.18 0-6-7.17z" fill="#eebc5a"/><circle cx="200.73" cy="364.87" fill="#eebc5a" r="3.59"/><circle cx="327.53" cy="366.07" fill="#eebc5a" r="3.59"/><g opacity=".05"><path d="m236.1 370.3v-11h2.31a3.34 3.34 0 0 1 1.29.23 2.49 2.49 0 0 1 .87.62 2.36 2.36 0 0 1 .49.89 3.7 3.7 0 0 1 .15 1.05v.4a4 4 0 0 1 -.07.76 2 2 0 0 1 -.21.54 2.09 2.09 0 0 1 -.81.74 1.69 1.69 0 0 1 .82.78 3 3 0 0 1 .27 1.39v.62a3.21 3.21 0 0 1 -.71 2.23 2.93 2.93 0 0 1 -2.25.77zm1.58-9.53v3h.71a1.21 1.21 0 0 0 1.06-.39 2.07 2.07 0 0 0 .27-1.16 1.75 1.75 0 0 0 -.3-1.11 1.33 1.33 0 0 0 -1.09-.37zm0 4.42v3.53h.68a1.7 1.7 0 0 0 .75-.14 1 1 0 0 0 .41-.38 1.56 1.56 0 0 0 .17-.59q0-.35 0-.75a5.1 5.1 0 0 0 0-.72 1.58 1.58 0 0 0 -.19-.53.91.91 0 0 0 -.42-.32 2.15 2.15 0 0 0 -.69-.1z"/><path d="m242.6 361.88a2.87 2.87 0 0 1 .23-1.17 2.46 2.46 0 0 1 .62-.85 2.57 2.57 0 0 1 .84-.5 2.94 2.94 0 0 1 1-.17 2.89 2.89 0 0 1 .95.17 2.77 2.77 0 0 1 .86.5 2.55 2.55 0 0 1 .6.85 2.72 2.72 0 0 1 .23 1.17v5.82a2.72 2.72 0 0 1 -.23 1.19 2.42 2.42 0 0 1 -.6.82 2.61 2.61 0 0 1 -.86.51 2.65 2.65 0 0 1 -.95.17 2.7 2.7 0 0 1 -1-.17 2.43 2.43 0 0 1 -.84-.51 2.34 2.34 0 0 1 -.62-.82 2.87 2.87 0 0 1 -.23-1.19zm1.58 5.82a1 1 0 0 0 .32.84 1.18 1.18 0 0 0 1.5 0 1 1 0 0 0 .31-.84v-5.82a1 1 0 0 0 -.31-.88 1.18 1.18 0 0 0 -1.5 0 1 1 0 0 0 -.32.84z"/><path d="m254.39 359.28v8.54a2.51 2.51 0 0 1 -.19 1 2.38 2.38 0 0 1 -.55.81 2.55 2.55 0 0 1 -.82.56 2.37 2.37 0 0 1 -1 .2 2.29 2.29 0 0 1 -1-.2 2.64 2.64 0 0 1 -1.37-1.37 2.35 2.35 0 0 1 -.2-1v-8.54h1.57v8.39a1.23 1.23 0 0 0 .28.87 1 1 0 0 0 .7.27.93.93 0 0 0 .69-.27 1.18 1.18 0 0 0 .28-.87v-8.39z"/><path d="m255.88 370.3v-11h2.33a2.71 2.71 0 0 1 2.07.75 2.91 2.91 0 0 1 .7 2.1v5.15a3.05 3.05 0 0 1 -.75 2.28 2.92 2.92 0 0 1 -2.16.74zm1.57-9.53v8h.73a1.19 1.19 0 0 0 .95-.33 1.64 1.64 0 0 0 .27-1v-5.31a1.66 1.66 0 0 0 -.26-1 1.13 1.13 0 0 0 -1-.35z"/><path d="m270.36 367.16v.68a2.47 2.47 0 0 1 -.19 1 2.73 2.73 0 0 1 -.54.81 2.47 2.47 0 0 1 -.79.56 2.38 2.38 0 0 1 -1 .21 3.61 3.61 0 0 1 -.91-.12 2.13 2.13 0 0 1 -.83-.43 2.49 2.49 0 0 1 -.62-.8 2.84 2.84 0 0 1 -.24-1.25v-6.06a2.79 2.79 0 0 1 .19-1 2.2 2.2 0 0 1 .53-.8 2.3 2.3 0 0 1 .81-.54 2.68 2.68 0 0 1 1-.19 2.36 2.36 0 0 1 1.81.73 2.53 2.53 0 0 1 .54.84 2.85 2.85 0 0 1 .19 1.06v.62h-1.58v-.53a1.3 1.3 0 0 0 -.26-.8.85.85 0 0 0 -.71-.34.79.79 0 0 0 -.78.36 1.93 1.93 0 0 0 -.2.92v5.64a1.47 1.47 0 0 0 .21.8.81.81 0 0 0 .75.32 1 1 0 0 0 .33-.05 1 1 0 0 0 .34-.18.88.88 0 0 0 .23-.34 1.38 1.38 0 0 0 .09-.54v-.54z"/><path d="m270.93 370.3 2.46-11h1.32l2.46 11h-1.58l-.46-2.37h-2.13l-.47 2.37zm3.9-3.85-.77-4-.78 4z"/><path d="m277.94 370.3v-11h2.31a3.34 3.34 0 0 1 1.29.23 2.49 2.49 0 0 1 .87.62 2.36 2.36 0 0 1 .49.89 3.7 3.7 0 0 1 .15 1.05v.4a3.33 3.33 0 0 1 -.07.76 2 2 0 0 1 -.21.54 2.13 2.13 0 0 1 -.8.74 1.78 1.78 0 0 1 .82.78 3.13 3.13 0 0 1 .26 1.39v.62a3.21 3.21 0 0 1 -.71 2.23 2.92 2.92 0 0 1 -2.25.77zm1.58-9.53v3h.71a1.21 1.21 0 0 0 1.06-.39 2.07 2.07 0 0 0 .27-1.16 1.75 1.75 0 0 0 -.3-1.11 1.33 1.33 0 0 0 -1.09-.37zm0 4.42v3.53h.68a1.7 1.7 0 0 0 .75-.14 1 1 0 0 0 .41-.38 1.4 1.4 0 0 0 .17-.59q0-.35 0-.75a5.1 5.1 0 0 0 0-.72 1.39 1.39 0 0 0 -.19-.53.91.91 0 0 0 -.42-.32 2.1 2.1 0 0 0 -.69-.1z"/><path d="m284.58 370.3v-11h1.58v11z"/><path d="m287.63 370.3v-11h1.52l2.38 6.64v-6.64h1.58v11h-1.49l-2.41-6.62v6.62z"/></g><g fill="#c69a4b"><path d="m237 369.44v-11h2.31a3.16 3.16 0 0 1 1.29.24 2.29 2.29 0 0 1 1.36 1.51 3.58 3.58 0 0 1 .15 1v.4a3.33 3.33 0 0 1 -.07.76 1.9 1.9 0 0 1 -.21.54 2.13 2.13 0 0 1 -.8.74 1.78 1.78 0 0 1 .82.78 3.13 3.13 0 0 1 .26 1.39v.62a3.21 3.21 0 0 1 -.71 2.23 2.92 2.92 0 0 1 -2.25.77zm1.58-9.53v3h.71a1.21 1.21 0 0 0 1.06-.39 2.07 2.07 0 0 0 .27-1.16 1.75 1.75 0 0 0 -.3-1.11 1.33 1.33 0 0 0 -1.09-.37zm0 4.42v3.53h.68a1.57 1.57 0 0 0 .75-.14 1 1 0 0 0 .41-.38 1.51 1.51 0 0 0 .17-.59c0-.23 0-.48 0-.74a5.25 5.25 0 0 0 0-.73 1.39 1.39 0 0 0 -.19-.53.83.83 0 0 0 -.42-.31 1.84 1.84 0 0 0 -.69-.11z"/><path d="m243.48 361a2.87 2.87 0 0 1 .23-1.17 2.46 2.46 0 0 1 .62-.85 2.69 2.69 0 0 1 .85-.5 2.84 2.84 0 0 1 .95-.17 2.89 2.89 0 0 1 1 .17 3 3 0 0 1 .86.5 2.42 2.42 0 0 1 .6.85 2.72 2.72 0 0 1 .23 1.17v5.82a2.69 2.69 0 0 1 -.23 1.19 2.3 2.3 0 0 1 -.6.82 2.61 2.61 0 0 1 -.86.51 2.65 2.65 0 0 1 -1 .17 2.61 2.61 0 0 1 -.95-.17 2.38 2.38 0 0 1 -.85-.51 2.34 2.34 0 0 1 -.62-.82 2.84 2.84 0 0 1 -.23-1.19zm1.58 5.82a1 1 0 0 0 .32.85 1.18 1.18 0 0 0 1.5 0 1.07 1.07 0 0 0 .31-.85v-5.82a1 1 0 0 0 -.31-.84 1.18 1.18 0 0 0 -1.5 0 1 1 0 0 0 -.32.84z"/><path d="m255.27 358.42v8.58a2.46 2.46 0 0 1 -.19 1 2.52 2.52 0 0 1 -.55.82 2.69 2.69 0 0 1 -.82.55 2.37 2.37 0 0 1 -1 .2 2.29 2.29 0 0 1 -1-.2 2.55 2.55 0 0 1 -1.37-1.37 2.31 2.31 0 0 1 -.2-1v-8.55h1.57v8.39a1.23 1.23 0 0 0 .28.87 1 1 0 0 0 .7.28.94.94 0 0 0 .69-.28 1.18 1.18 0 0 0 .28-.87v-8.39z"/><path d="m256.76 369.44v-11h2.33a2.71 2.71 0 0 1 2.07.75 2.91 2.91 0 0 1 .7 2.1v5.15a3.08 3.08 0 0 1 -.75 2.29 3 3 0 0 1 -2.16.73zm1.58-9.53v8h.72a1.16 1.16 0 0 0 .95-.34 1.64 1.64 0 0 0 .28-1v-5.31a1.61 1.61 0 0 0 -.27-1 1.1 1.1 0 0 0 -1-.36z"/><path d="m271.24 366.3v.7a2.47 2.47 0 0 1 -.19 1 2.73 2.73 0 0 1 -.54.81 2.5 2.5 0 0 1 -.79.57 2.37 2.37 0 0 1 -1 .2 3.67 3.67 0 0 1 -.91-.12 2.13 2.13 0 0 1 -.81-.46 2.39 2.39 0 0 1 -.62-.8 2.81 2.81 0 0 1 -.24-1.25v-6.06a2.79 2.79 0 0 1 .19-1 2.45 2.45 0 0 1 1.34-1.34 2.87 2.87 0 0 1 1-.19 2.36 2.36 0 0 1 1.81.73 2.63 2.63 0 0 1 .54.84 2.85 2.85 0 0 1 .19 1.06v.62h-1.58v-.53a1.32 1.32 0 0 0 -.26-.8.85.85 0 0 0 -.71-.34.8.8 0 0 0 -.78.36 2 2 0 0 0 -.2.92v5.64a1.44 1.44 0 0 0 .21.8.82.82 0 0 0 .75.33 1 1 0 0 0 .33-.06.86.86 0 0 0 .34-.18.88.88 0 0 0 .23-.34 1.38 1.38 0 0 0 .09-.54v-.54z"/><path d="m271.81 369.44 2.46-11h1.32l2.46 11h-1.58l-.46-2.37h-2.15l-.47 2.37zm3.9-3.85-.77-4-.78 4z"/><path d="m278.82 369.44v-11h2.31a3.16 3.16 0 0 1 1.29.24 2.29 2.29 0 0 1 1.36 1.51 3.58 3.58 0 0 1 .15 1v.4a3.33 3.33 0 0 1 -.07.76 1.9 1.9 0 0 1 -.21.54 2.06 2.06 0 0 1 -.8.74 1.78 1.78 0 0 1 .82.78 3.13 3.13 0 0 1 .26 1.39v.62a3.26 3.26 0 0 1 -.7 2.23 2.94 2.94 0 0 1 -2.26.77zm1.58-9.53v3h.71a1.21 1.21 0 0 0 1.06-.39 2.07 2.07 0 0 0 .27-1.16 1.75 1.75 0 0 0 -.3-1.11 1.33 1.33 0 0 0 -1.09-.37zm0 4.42v3.53h.68a1.57 1.57 0 0 0 .75-.14 1 1 0 0 0 .41-.38 1.36 1.36 0 0 0 .17-.59c0-.23 0-.48 0-.74a5.25 5.25 0 0 0 0-.73 1.39 1.39 0 0 0 -.19-.53.83.83 0 0 0 -.42-.31 1.84 1.84 0 0 0 -.69-.11z"/><path d="m285.46 369.44v-11h1.54v11z"/><path d="m288.51 369.44v-11h1.49l2.38 6.64v-6.64h1.62v11h-1.49l-2.41-6.62v6.62z"/></g></svg>