<svg id="Background" xmlns="http://www.w3.org/2000/svg" xmlns:xlink="http://www.w3.org/1999/xlink" viewBox="0 0 512 512"><defs><style>.cls-1{fill:#e6e6e6;opacity:0.1;}.cls-2,.cls-5{fill:#fff;}.cls-2{opacity:0.88;}.cls-3{clip-path:url(#clip-path);}.cls-4{opacity:0.44;}.cls-6{fill:#2e8d4b;}.cls-7{fill:#1c7d3a;}.cls-8{fill:#7a5728;}.cls-9{fill:#6b4d22;}.cls-10{fill:#ae392d;}.cls-11{fill:#e64c3c;}.cls-12{fill:#d34232;}.cls-13{fill:#3a322c;}.cls-14{fill:#88d3e3;}.cls-15{fill:#c0e6f0;}.cls-16{fill:#f2f2f2;opacity:0.15;}.cls-17{fill:none;stroke:#fff;stroke-miterlimit:10;stroke-width:3.4px;opacity:0.65;}.cls-18{fill:#5a3a1b;}.cls-19{opacity:0.16;}.cls-20{fill:#704d2e;}.cls-21{fill:#745638;}.cls-22{opacity:0.2;}.cls-23{fill:#eebc5a;}.cls-24{opacity:0.05;}.cls-25{fill:#c69a4b;}</style><clipPath id="clip-path"><ellipse class="cls-1" cx="261.62" cy="217.91" rx="133.41" ry="134.97"/></clipPath></defs><path class="cls-2" d="M220.18,153.11a6.48,6.48,0,0,0-1.41-.15h-.08a14.81,14.81,0,0,0,.92-5.08,14.63,14.63,0,0,0-29.21-1.12H168.31a6.36,6.36,0,0,0-1.19,12.61,5.79,5.79,0,0,0,1.19.12h2.89a6.53,6.53,0,0,0,6.53,6.53h41a6.53,6.53,0,0,0,1.41-12.91Z"/><path class="cls-2" d="M293.15,117.25a5.59,5.59,0,0,0-2.95-.85H276.88a8.11,8.11,0,0,0-7.5-8.07,12.18,12.18,0,0,0-24-.06h-5.71a8.13,8.13,0,0,0-8.13,8.13h-3.16a5.64,5.64,0,0,0-5.64,5.64,5.36,5.36,0,0,0,.23,1.51,5.62,5.62,0,0,0,5.41,4.14h17.29a14.65,14.65,0,0,0,23.44,0H290.2a5.63,5.63,0,0,0,2.95-10.44Z"/><path class="cls-2" d="M352.3,138a10.21,10.21,0,0,0-4.38-2.42,3.31,3.31,0,0,0,0-.33,5.62,5.62,0,0,0-5.62-5.61,5.45,5.45,0,0,0-2.14.43,11.55,11.55,0,0,0-21,6.68,12.35,12.35,0,0,0,.12,1.62h-1.77a6,6,0,0,0-1.29,11.95,6.14,6.14,0,0,0,1.29.14H322a7.79,7.79,0,0,0-.18,1.61,7.22,7.22,0,0,0,13.61,3.36h10A10.07,10.07,0,0,0,352.3,138Z"/><ellipse class="cls-1" cx="261.62" cy="217.91" rx="133.41" ry="134.97"/><g class="cls-3"><g class="cls-4"><path class="cls-5" d="M312.21,301.27,279.05,165.36c-1.4-5.9-4.65-6.43-4.65-6.43s-3.26.53-4.65,6.43L236.59,301.27s-3,8.62,8.13,8.62h59.36c11.14,0,8.13-8.62,8.13-8.62Z"/><path class="cls-5" d="M388.36,312.1l-28-114.64c-1.17-5-3.92-5.43-3.92-5.43s-2.74.45-3.92,5.43l-28,114.64s-2.54,7.27,6.85,7.27H381.5c9.4,0,6.86-7.27,6.86-7.27Z"/><path class="cls-5" d="M274,306.81,246,192.16c-1.18-5-3.93-5.42-3.93-5.42s-2.74.44-3.92,5.42l-28,114.65s-2.54,7.27,6.85,7.27h50.08c9.4,0,6.86-7.27,6.86-7.27Z"/><path class="cls-5" d="M192.18,296.14l-28-114.64c-1.18-5-3.92-5.43-3.92-5.43s-2.75.45-3.93,5.43l-28,114.64s-2.54,7.27,6.86,7.27h50.08c9.39,0,6.85-7.27,6.85-7.27Z"/></g><path class="cls-6" d="M190.54,136.64l-33.16,135.9s-3,8.62,8.13,8.62h29.68v-151s-3.25.52-4.65,6.43Z"/><path class="cls-7" d="M233,272.54l-33.16-135.9c-1.39-5.91-4.65-6.43-4.65-6.43v151h29.69c11.14,0,8.12-8.62,8.12-8.62Z"/><polygon class="cls-8" points="186.14 281.16 186.14 299.66 195.19 299.66 195.19 281.16 186.14 281.16 186.14 281.16"/><polygon class="cls-9" points="204.24 281.16 195.19 281.16 195.19 299.66 204.24 299.66 204.24 281.16 204.24 281.16"/><path class="cls-6" d="M367.51,299.72h-212a135.58,135.58,0,0,0,18.08,19.54H349.42a135.08,135.08,0,0,0,18.09-19.54Z"/><path class="cls-7" d="M349.42,319.26H173.61a132.26,132.26,0,0,0,175.81,0Z"/><path class="cls-5" d="M158.72,163.11c.18-.05-.14-.09,0,0Z"/><path class="cls-5" d="M158.82,163.19l-.1-.08h-.07a.3.3,0,0,1,.17.08Z"/><path class="cls-5" d="M257.35,333.46a4.28,4.28,0,0,1-4.25,4.31H216.7a4.28,4.28,0,0,1-4.25-4.31h0a4.27,4.27,0,0,1,4.25-4.3h36.4a4.27,4.27,0,0,1,4.25,4.3Z"/><path class="cls-5" d="M293.46,333.46a4.29,4.29,0,0,1-4.26,4.31H274.83a4.29,4.29,0,0,1-4.26-4.31h0a4.28,4.28,0,0,1,4.26-4.3H289.2a4.28,4.28,0,0,1,4.26,4.3Z"/></g><polygon class="cls-10" points="325.83 171.27 311.24 171.27 311.24 195.58 325.83 195.58 325.83 171.27 325.83 171.27"/><polygon class="cls-10" points="242.88 235.73 249.53 235.73 302.4 192.41 355.62 235.73 362.27 235.73 362.32 235.66 302.64 186.61 242.88 235.73 242.88 235.73"/><polygon class="cls-11" points="249.53 235.73 250.47 235.73 249.53 235.73 249.53 299.8 355.62 299.8 355.62 235.73 354.86 235.73 355.62 235.73 302.4 192.41 249.53 235.73 249.53 235.73"/><polygon class="cls-12" points="299.41 288.79 260.26 288.79 260.26 246.1 299.41 246.1 299.41 288.79 299.41 288.79"/><polygon class="cls-12" points="344.89 288.79 305.75 288.79 305.75 246.1 344.89 246.1 344.89 288.79 344.89 288.79"/><path class="cls-13" d="M363.81,235.73a4.07,4.07,0,0,1-2.6-.93l-58.63-48.18L243.94,234.8a4.09,4.09,0,1,1-5.19-6.33L300,178.16a4.1,4.1,0,0,1,5.2,0l61.23,50.31a4.1,4.1,0,0,1-2.6,7.26Z"/><path class="cls-13" d="M328.29,168.73a2.54,2.54,0,0,1-2.54,2.54H311.39a2.55,2.55,0,0,1-2.55-2.54h0a2.54,2.54,0,0,1,2.55-2.54h14.36a2.54,2.54,0,0,1,2.54,2.54Z"/><path class="cls-14" d="M335.39,282.72h-21c-2.72,0-3.05-.52-3.05-2.32V255.21c0-1.8.33-3.26,3.05-3.26h21.51c2.72,0,3.05,1,3.05,2.79v25.19c0,1.8-.33,2.79-3.05,2.79"/><polyline class="cls-15" points="311.34 272.29 311.34 267.49 332.32 252.14 338.44 253.08 311.34 272.29"/><path class="cls-15" d="M311.62,276.6c-.2-.07.16-.82,0-.94v-1.41l27.29-19v2.69L311.62,276.6"/><path class="cls-14" d="M290.27,282.88h-21c-2.72,0-3.05-.52-3.05-2.33V255.37c0-1.8.33-3.26,3.05-3.26h21.51c2.71,0,3,1,3,2.79v25.18c0,1.81-.33,2.8-3,2.8"/><polyline class="cls-15" points="266.21 272.44 266.21 267.65 287.19 252.29 293.31 253.24 266.21 272.44"/><path class="cls-15" d="M266.49,276.76c-.19-.07.17-.82,0-.94v-1.41l27.29-19v2.69l-27.29,18.7"/><path class="cls-16" d="M268.45,87.49a1.22,1.22,0,0,0-.27-2.4c-28.39-.51-117.94,10-135,118.08,0,0-14.45,97.67,80,132.82a2.5,2.5,0,0,0,2.58-4.16c-17.27-16.58-50-60.89-41.9-128.66C173.81,203.17,178.26,111.27,268.45,87.49Z"/><ellipse class="cls-17" cx="259.34" cy="217.73" rx="132.78" ry="136.37"/><polygon class="cls-18" points="181.59 328.98 178 346.93 341.88 348.12 338.29 328.98 181.59 328.98"/><ellipse class="cls-19" cx="260.54" cy="387" rx="129.19" ry="23.33"/><path class="cls-20" d="M175.06,343.35l-6,40.14a3.51,3.51,0,0,0,3.34,4.11H351a2.54,2.54,0,0,0,2.42-3L347,341.94a2.51,2.51,0,0,0-2.43-2.19H179.07A4.14,4.14,0,0,0,175.06,343.35Z"/><path class="cls-21" d="M179.07,339.75a4.14,4.14,0,0,0-4,3.6l-.17,1.18H347.38l-.39-2.59a2.51,2.51,0,0,0-2.43-2.19Z"/><g class="cls-22"><path class="cls-23" d="M216.28,354.1s0,7.18-6,6v10.77s7.17-1.2,6,7.18h94.5s-1.2-7.18,6-6V361.28s-7.18,0-6-7.18Z"/><circle class="cls-23" cx="199.53" cy="366.07" r="3.59"/><circle class="cls-23" cx="326.33" cy="367.26" r="3.59"/></g><path class="cls-23" d="M217.47,352.91s0,7.17-6,6v10.76s7.18-1.19,6,7.18H312s-1.19-7.18,6-6V360.08s-7.18,0-6-7.17Z"/><circle class="cls-23" cx="200.73" cy="364.87" r="3.59"/><circle class="cls-23" cx="327.53" cy="366.07" r="3.59"/><g class="cls-24"><path d="M236.1,370.3v-11h2.31a3.34,3.34,0,0,1,1.29.23,2.49,2.49,0,0,1,.87.62,2.36,2.36,0,0,1,.49.89,3.7,3.7,0,0,1,.15,1.05v.4a4,4,0,0,1-.07.76,2,2,0,0,1-.21.54,2.09,2.09,0,0,1-.81.74,1.69,1.69,0,0,1,.82.78,3,3,0,0,1,.27,1.39v.62a3.21,3.21,0,0,1-.71,2.23,2.93,2.93,0,0,1-2.25.77Zm1.58-9.53v3h.71a1.21,1.21,0,0,0,1.06-.39,2.07,2.07,0,0,0,.27-1.16,1.75,1.75,0,0,0-.3-1.11,1.33,1.33,0,0,0-1.09-.37Zm0,4.42v3.53h.68a1.7,1.7,0,0,0,.75-.14,1,1,0,0,0,.41-.38,1.56,1.56,0,0,0,.17-.59q0-.35,0-.75a5.1,5.1,0,0,0,0-.72,1.58,1.58,0,0,0-.19-.53.91.91,0,0,0-.42-.32,2.15,2.15,0,0,0-.69-.1Z"/><path d="M242.6,361.88a2.87,2.87,0,0,1,.23-1.17,2.46,2.46,0,0,1,.62-.85,2.57,2.57,0,0,1,.84-.5,2.94,2.94,0,0,1,1-.17,2.89,2.89,0,0,1,.95.17,2.77,2.77,0,0,1,.86.5,2.55,2.55,0,0,1,.6.85,2.72,2.72,0,0,1,.23,1.17v5.82a2.72,2.72,0,0,1-.23,1.19,2.42,2.42,0,0,1-.6.82,2.61,2.61,0,0,1-.86.51,2.65,2.65,0,0,1-.95.17,2.7,2.7,0,0,1-1-.17,2.43,2.43,0,0,1-.84-.51,2.34,2.34,0,0,1-.62-.82,2.87,2.87,0,0,1-.23-1.19Zm1.58,5.82a1,1,0,0,0,.32.84,1.18,1.18,0,0,0,1.5,0,1,1,0,0,0,.31-.84v-5.82A1,1,0,0,0,246,361a1.18,1.18,0,0,0-1.5,0,1,1,0,0,0-.32.84Z"/><path d="M254.39,359.28v8.54a2.51,2.51,0,0,1-.19,1,2.38,2.38,0,0,1-.55.81,2.55,2.55,0,0,1-.82.56,2.37,2.37,0,0,1-1,.2,2.29,2.29,0,0,1-1-.2,2.64,2.64,0,0,1-1.37-1.37,2.35,2.35,0,0,1-.2-1v-8.54h1.57v8.39a1.23,1.23,0,0,0,.28.87,1,1,0,0,0,.7.27.93.93,0,0,0,.69-.27,1.18,1.18,0,0,0,.28-.87v-8.39Z"/><path d="M255.88,370.3v-11h2.33a2.71,2.71,0,0,1,2.07.75,2.91,2.91,0,0,1,.7,2.1v5.15a3.05,3.05,0,0,1-.75,2.28,2.92,2.92,0,0,1-2.16.74Zm1.57-9.53v8h.73a1.19,1.19,0,0,0,.95-.33,1.64,1.64,0,0,0,.27-1v-5.31a1.66,1.66,0,0,0-.26-1,1.13,1.13,0,0,0-1-.35Z"/><path d="M270.36,367.16v.68a2.47,2.47,0,0,1-.19,1,2.73,2.73,0,0,1-.54.81,2.47,2.47,0,0,1-.79.56,2.38,2.38,0,0,1-1,.21,3.61,3.61,0,0,1-.91-.12,2.13,2.13,0,0,1-.83-.43,2.49,2.49,0,0,1-.62-.8,2.84,2.84,0,0,1-.24-1.25v-6.06a2.79,2.79,0,0,1,.19-1,2.2,2.2,0,0,1,.53-.8,2.3,2.3,0,0,1,.81-.54,2.68,2.68,0,0,1,1-.19,2.36,2.36,0,0,1,1.81.73,2.53,2.53,0,0,1,.54.84,2.85,2.85,0,0,1,.19,1.06v.62h-1.58v-.53a1.3,1.3,0,0,0-.26-.8.85.85,0,0,0-.71-.34.79.79,0,0,0-.78.36,1.93,1.93,0,0,0-.2.92v5.64a1.47,1.47,0,0,0,.21.8.81.81,0,0,0,.75.32,1,1,0,0,0,.33-.05,1,1,0,0,0,.34-.18.88.88,0,0,0,.23-.34,1.38,1.38,0,0,0,.09-.54v-.54Z"/><path d="M270.93,370.3l2.46-11h1.32l2.46,11h-1.58l-.46-2.37H273l-.47,2.37Zm3.9-3.85-.77-4h0l-.78,4Z"/><path d="M277.94,370.3v-11h2.31a3.34,3.34,0,0,1,1.29.23,2.49,2.49,0,0,1,.87.62,2.36,2.36,0,0,1,.49.89,3.7,3.7,0,0,1,.15,1.05v.4a3.33,3.33,0,0,1-.07.76,2,2,0,0,1-.21.54,2.13,2.13,0,0,1-.8.74,1.78,1.78,0,0,1,.82.78,3.13,3.13,0,0,1,.26,1.39v.62a3.21,3.21,0,0,1-.71,2.23,2.92,2.92,0,0,1-2.25.77Zm1.58-9.53v3h.71a1.21,1.21,0,0,0,1.06-.39,2.07,2.07,0,0,0,.27-1.16,1.75,1.75,0,0,0-.3-1.11,1.33,1.33,0,0,0-1.09-.37Zm0,4.42v3.53h.68a1.7,1.7,0,0,0,.75-.14,1,1,0,0,0,.41-.38,1.4,1.4,0,0,0,.17-.59q0-.35,0-.75a5.1,5.1,0,0,0,0-.72,1.39,1.39,0,0,0-.19-.53.91.91,0,0,0-.42-.32,2.1,2.1,0,0,0-.69-.1Z"/><path d="M284.58,370.3v-11h1.58v11Z"/><path d="M287.63,370.3v-11h1.52l2.38,6.64h0v-6.64h1.58v11h-1.49l-2.41-6.62h0v6.62Z"/></g><path class="cls-25" d="M237,369.44v-11h2.31a3.16,3.16,0,0,1,1.29.24,2.29,2.29,0,0,1,1.36,1.51,3.58,3.58,0,0,1,.15,1v.4a3.33,3.33,0,0,1-.07.76,1.9,1.9,0,0,1-.21.54,2.13,2.13,0,0,1-.8.74,1.78,1.78,0,0,1,.82.78,3.13,3.13,0,0,1,.26,1.39v.62a3.21,3.21,0,0,1-.71,2.23,2.92,2.92,0,0,1-2.25.77Zm1.58-9.53v3h.71a1.21,1.21,0,0,0,1.06-.39,2.07,2.07,0,0,0,.27-1.16,1.75,1.75,0,0,0-.3-1.11,1.33,1.33,0,0,0-1.09-.37Zm0,4.42v3.53h.68a1.57,1.57,0,0,0,.75-.14,1,1,0,0,0,.41-.38,1.51,1.51,0,0,0,.17-.59c0-.23,0-.48,0-.74a5.25,5.25,0,0,0,0-.73,1.39,1.39,0,0,0-.19-.53.83.83,0,0,0-.42-.31,1.84,1.84,0,0,0-.69-.11Z"/><path class="cls-25" d="M243.48,361a2.87,2.87,0,0,1,.23-1.17,2.46,2.46,0,0,1,.62-.85,2.69,2.69,0,0,1,.85-.5,2.84,2.84,0,0,1,.95-.17,2.89,2.89,0,0,1,1,.17,3,3,0,0,1,.86.5,2.42,2.42,0,0,1,.6.85,2.72,2.72,0,0,1,.23,1.17v5.82a2.69,2.69,0,0,1-.23,1.19,2.3,2.3,0,0,1-.6.82,2.61,2.61,0,0,1-.86.51,2.65,2.65,0,0,1-1,.17,2.61,2.61,0,0,1-.95-.17,2.38,2.38,0,0,1-.85-.51,2.34,2.34,0,0,1-.62-.82,2.84,2.84,0,0,1-.23-1.19Zm1.58,5.82a1,1,0,0,0,.32.85,1.18,1.18,0,0,0,1.5,0,1.07,1.07,0,0,0,.31-.85V361a1,1,0,0,0-.31-.84,1.18,1.18,0,0,0-1.5,0,1,1,0,0,0-.32.84Z"/><path class="cls-25" d="M255.27,358.42V367a2.46,2.46,0,0,1-.19,1,2.52,2.52,0,0,1-.55.82,2.69,2.69,0,0,1-.82.55,2.37,2.37,0,0,1-1,.2,2.29,2.29,0,0,1-1-.2,2.55,2.55,0,0,1-1.37-1.37,2.31,2.31,0,0,1-.2-1v-8.55h1.57v8.39a1.23,1.23,0,0,0,.28.87,1,1,0,0,0,.7.28.94.94,0,0,0,.69-.28,1.18,1.18,0,0,0,.28-.87v-8.39Z"/><path class="cls-25" d="M256.76,369.44v-11h2.33a2.71,2.71,0,0,1,2.07.75,2.91,2.91,0,0,1,.7,2.1v5.15a3.08,3.08,0,0,1-.75,2.29,3,3,0,0,1-2.16.73Zm1.58-9.53v8h.72a1.16,1.16,0,0,0,.95-.34,1.64,1.64,0,0,0,.28-1v-5.31a1.61,1.61,0,0,0-.27-1,1.1,1.1,0,0,0-1-.36Z"/><path class="cls-25" d="M271.24,366.3V367a2.47,2.47,0,0,1-.19,1,2.73,2.73,0,0,1-.54.81,2.5,2.5,0,0,1-.79.57,2.37,2.37,0,0,1-1,.2,3.67,3.67,0,0,1-.91-.12A2.13,2.13,0,0,1,267,369a2.39,2.39,0,0,1-.62-.8,2.81,2.81,0,0,1-.24-1.25v-6.06a2.79,2.79,0,0,1,.19-1,2.45,2.45,0,0,1,1.34-1.34,2.87,2.87,0,0,1,1-.19,2.36,2.36,0,0,1,1.81.73,2.63,2.63,0,0,1,.54.84,2.85,2.85,0,0,1,.19,1.06v.62h-1.58v-.53a1.32,1.32,0,0,0-.26-.8.85.85,0,0,0-.71-.34.8.8,0,0,0-.78.36,2,2,0,0,0-.2.92v5.64a1.44,1.44,0,0,0,.21.8.82.82,0,0,0,.75.33,1,1,0,0,0,.33-.06.86.86,0,0,0,.34-.18.88.88,0,0,0,.23-.34,1.38,1.38,0,0,0,.09-.54v-.54Z"/><path class="cls-25" d="M271.81,369.44l2.46-11h1.32l2.46,11h-1.58l-.46-2.37h-2.15l-.47,2.37Zm3.9-3.85-.77-4h0l-.78,4Z"/><path class="cls-25" d="M278.82,369.44v-11h2.31a3.16,3.16,0,0,1,1.29.24,2.29,2.29,0,0,1,1.36,1.51,3.58,3.58,0,0,1,.15,1v.4a3.33,3.33,0,0,1-.07.76,1.9,1.9,0,0,1-.21.54,2.06,2.06,0,0,1-.8.74,1.78,1.78,0,0,1,.82.78,3.13,3.13,0,0,1,.26,1.39v.62a3.26,3.26,0,0,1-.7,2.23,2.94,2.94,0,0,1-2.26.77Zm1.58-9.53v3h.71a1.21,1.21,0,0,0,1.06-.39,2.07,2.07,0,0,0,.27-1.16,1.75,1.75,0,0,0-.3-1.11,1.33,1.33,0,0,0-1.09-.37Zm0,4.42v3.53h.68a1.57,1.57,0,0,0,.75-.14,1,1,0,0,0,.41-.38,1.36,1.36,0,0,0,.17-.59c0-.23,0-.48,0-.74a5.25,5.25,0,0,0,0-.73,1.39,1.39,0,0,0-.19-.53.83.83,0,0,0-.42-.31,1.84,1.84,0,0,0-.69-.11Z"/><path class="cls-25" d="M285.46,369.44v-11H287v11Z"/><path class="cls-25" d="M288.51,369.44v-11H290l2.38,6.64h0v-6.64H294v11h-1.49l-2.41-6.62h0v6.62Z"/></svg>