<svg xmlns="http://www.w3.org/2000/svg" xmlns:xlink="http://www.w3.org/1999/xlink" viewBox="0 0 512 512"><defs><style>.cls-1{fill:#e6e6e6;opacity:0.1;}.cls-2{fill:url(#radial-gradient);}.cls-3,.cls-6{fill:#fff;}.cls-3{opacity:0.88;}.cls-4{clip-path:url(#clip-path);}.cls-5{opacity:0.44;}.cls-7{fill:#2e8d4b;}.cls-8{fill:#1c7d3a;}.cls-9{fill:#7a5728;}.cls-10{fill:#6b4d22;}.cls-11{fill:#ae392d;}.cls-12{fill:#e64c3c;}.cls-13{fill:#d34232;}.cls-14{fill:#3a322c;}.cls-15{fill:#88d3e3;}.cls-16{fill:#c0e6f0;}.cls-17{fill:#f2f2f2;opacity:0.15;}.cls-18{fill:none;stroke:#fff;stroke-miterlimit:10;stroke-width:3.4px;opacity:0.65;}.cls-19{fill:#5a3a1b;}.cls-20{opacity:0.16;}.cls-21{fill:#704d2e;}.cls-22{fill:#745638;}.cls-23{opacity:0.2;}.cls-24{fill:#eebc5a;}.cls-25{opacity:0.05;}.cls-26{fill:#c69a4b;}</style><radialGradient id="radial-gradient" cx="345.92" cy="259.48" r="278" gradientTransform="translate(-62.54 16.58) scale(0.92 0.92)" gradientUnits="userSpaceOnUse"><stop offset="0.01" stop-color="#7cce80"/><stop offset="0.99" stop-color="#39b54a"/></radialGradient><clipPath id="clip-path"><ellipse class="cls-1" cx="262.62" cy="216.91" rx="133.41" ry="134.97"/></clipPath></defs><g id="Background"><rect class="cls-2" y="-0.48" width="512" height="512"/></g><g id="Globe"><path class="cls-3" d="M221.18,152.11a6.48,6.48,0,0,0-1.41-.15h-.08a14.81,14.81,0,0,0,.92-5.08,14.63,14.63,0,0,0-29.21-1.12H169.31a6.36,6.36,0,0,0-1.19,12.61,5.79,5.79,0,0,0,1.19.12h2.89a6.53,6.53,0,0,0,6.53,6.53h41a6.53,6.53,0,0,0,1.41-12.91Z"/><path class="cls-3" d="M294.15,116.25a5.59,5.59,0,0,0-2.95-.85H277.88a8.11,8.11,0,0,0-7.5-8.07,12.18,12.18,0,0,0-24-.06h-5.71a8.13,8.13,0,0,0-8.13,8.13h-3.16a5.64,5.64,0,0,0-5.64,5.64,5.36,5.36,0,0,0,.23,1.51,5.62,5.62,0,0,0,5.41,4.14h17.29a14.65,14.65,0,0,0,23.44,0H291.2a5.63,5.63,0,0,0,2.95-10.44Z"/><path class="cls-3" d="M353.3,137a10.21,10.21,0,0,0-4.38-2.42,3.31,3.31,0,0,0,0-.33,5.62,5.62,0,0,0-5.62-5.61,5.45,5.45,0,0,0-2.14.43,11.55,11.55,0,0,0-21,6.68,12.35,12.35,0,0,0,.12,1.62h-1.77a6,6,0,0,0-1.29,11.95,6.14,6.14,0,0,0,1.29.14H323a7.79,7.79,0,0,0-.18,1.61,7.22,7.22,0,0,0,13.61,3.36h10A10.07,10.07,0,0,0,353.3,137Z"/><ellipse class="cls-1" cx="262.62" cy="216.91" rx="133.41" ry="134.97"/><g class="cls-4"><g class="cls-5"><path class="cls-6" d="M313.21,300.27,280.05,164.36c-1.4-5.9-4.65-6.43-4.65-6.43s-3.26.53-4.65,6.43L237.59,300.27s-3,8.62,8.13,8.62h59.36c11.14,0,8.13-8.62,8.13-8.62Z"/><path class="cls-6" d="M389.36,311.1l-28-114.64c-1.17-5-3.92-5.43-3.92-5.43s-2.74.45-3.92,5.43l-28,114.64s-2.54,7.27,6.85,7.27H382.5c9.4,0,6.86-7.27,6.86-7.27Z"/><path class="cls-6" d="M275,305.81,247,191.16c-1.18-5-3.93-5.42-3.93-5.42s-2.74.44-3.92,5.42l-28,114.65s-2.54,7.27,6.85,7.27h50.08c9.4,0,6.86-7.27,6.86-7.27Z"/><path class="cls-6" d="M193.18,295.14l-28-114.64c-1.18-5-3.92-5.43-3.92-5.43s-2.75.45-3.93,5.43l-28,114.64s-2.54,7.27,6.86,7.27h50.08c9.39,0,6.85-7.27,6.85-7.27Z"/></g><path class="cls-7" d="M191.54,135.64l-33.16,135.9s-3,8.62,8.13,8.62h29.68v-151s-3.25.52-4.65,6.43Z"/><path class="cls-8" d="M234,271.54l-33.16-135.9c-1.39-5.91-4.65-6.43-4.65-6.43v151h29.69c11.14,0,8.12-8.62,8.12-8.62Z"/><polygon class="cls-9" points="187.14 280.16 187.14 298.66 196.19 298.66 196.19 280.16 187.14 280.16 187.14 280.16"/><polygon class="cls-10" points="205.24 280.16 196.19 280.16 196.19 298.66 205.24 298.66 205.24 280.16 205.24 280.16"/><path class="cls-7" d="M368.51,298.72h-212a135.58,135.58,0,0,0,18.08,19.54H350.42a135.08,135.08,0,0,0,18.09-19.54Z"/><path class="cls-8" d="M350.42,318.26H174.61a132.26,132.26,0,0,0,175.81,0Z"/><path class="cls-6" d="M159.72,162.11c.18-.05-.14-.09,0,0Z"/><path class="cls-6" d="M159.82,162.19l-.1-.08h-.07a.3.3,0,0,1,.17.08Z"/><path class="cls-6" d="M258.35,332.46a4.28,4.28,0,0,1-4.25,4.31H217.7a4.28,4.28,0,0,1-4.25-4.31h0a4.27,4.27,0,0,1,4.25-4.3h36.4a4.27,4.27,0,0,1,4.25,4.3Z"/><path class="cls-6" d="M294.46,332.46a4.29,4.29,0,0,1-4.26,4.31H275.83a4.29,4.29,0,0,1-4.26-4.31h0a4.28,4.28,0,0,1,4.26-4.3H290.2a4.28,4.28,0,0,1,4.26,4.3Z"/></g><polygon class="cls-11" points="326.83 170.27 312.24 170.27 312.24 194.58 326.83 194.58 326.83 170.27 326.83 170.27"/><polygon class="cls-11" points="243.88 234.73 250.53 234.73 303.4 191.41 356.62 234.73 363.27 234.73 363.32 234.66 303.64 185.61 243.88 234.73 243.88 234.73"/><polygon class="cls-12" points="250.53 234.73 251.47 234.73 250.53 234.73 250.53 298.8 356.62 298.8 356.62 234.73 355.86 234.73 356.62 234.73 303.4 191.41 250.53 234.73 250.53 234.73"/><polygon class="cls-13" points="300.41 287.79 261.26 287.79 261.26 245.1 300.41 245.1 300.41 287.79 300.41 287.79"/><polygon class="cls-13" points="345.89 287.79 306.75 287.79 306.75 245.1 345.89 245.1 345.89 287.79 345.89 287.79"/><path class="cls-14" d="M364.81,234.73a4.07,4.07,0,0,1-2.6-.93l-58.63-48.18L244.94,233.8a4.09,4.09,0,1,1-5.19-6.33L301,177.16a4.1,4.1,0,0,1,5.2,0l61.23,50.31a4.1,4.1,0,0,1-2.6,7.26Z"/><path class="cls-14" d="M329.29,167.73a2.54,2.54,0,0,1-2.54,2.54H312.39a2.55,2.55,0,0,1-2.55-2.54h0a2.54,2.54,0,0,1,2.55-2.54h14.36a2.54,2.54,0,0,1,2.54,2.54Z"/><path class="cls-15" d="M336.39,281.72h-21c-2.72,0-3.05-.52-3.05-2.32V254.21c0-1.8.33-3.26,3.05-3.26h21.51c2.72,0,3.05,1,3.05,2.79v25.19c0,1.8-.33,2.79-3.05,2.79"/><polyline class="cls-16" points="312.34 271.29 312.34 266.49 333.32 251.14 339.44 252.08 312.34 271.29"/><path class="cls-16" d="M312.62,275.6c-.2-.07.16-.82,0-.94v-1.41l27.29-19v2.69L312.62,275.6"/><path class="cls-15" d="M291.27,281.88h-21c-2.72,0-3.05-.52-3.05-2.33V254.37c0-1.8.33-3.26,3.05-3.26h21.51c2.71,0,3,1,3,2.79v25.18c0,1.81-.33,2.8-3,2.8"/><polyline class="cls-16" points="267.21 271.44 267.21 266.65 288.19 251.29 294.31 252.24 267.21 271.44"/><path class="cls-16" d="M267.49,275.76c-.19-.07.17-.82,0-.94v-1.41l27.29-19v2.69l-27.29,18.7"/><path class="cls-17" d="M269.45,86.49a1.22,1.22,0,0,0-.27-2.4c-28.39-.51-117.94,10-135,118.08,0,0-14.45,97.67,80,132.82a2.5,2.5,0,0,0,2.58-4.16c-17.27-16.58-50-60.89-41.9-128.66C174.81,202.17,179.26,110.27,269.45,86.49Z"/><ellipse class="cls-18" cx="260.34" cy="216.73" rx="132.78" ry="136.37"/><polygon class="cls-19" points="182.59 327.98 179 345.93 342.88 347.12 339.29 327.98 182.59 327.98"/><ellipse class="cls-20" cx="261.54" cy="386" rx="129.19" ry="23.33"/><path class="cls-21" d="M176.06,342.35l-6,40.14a3.51,3.51,0,0,0,3.34,4.11H352a2.54,2.54,0,0,0,2.42-3L348,340.94a2.51,2.51,0,0,0-2.43-2.19H180.07A4.14,4.14,0,0,0,176.06,342.35Z"/><path class="cls-22" d="M180.07,338.75a4.14,4.14,0,0,0-4,3.6l-.17,1.18H348.38l-.39-2.59a2.51,2.51,0,0,0-2.43-2.19Z"/><g class="cls-23"><path class="cls-24" d="M217.28,353.1s0,7.18-6,6v10.77s7.17-1.2,6,7.18h94.5s-1.2-7.18,6-6V360.28s-7.18,0-6-7.18Z"/><circle class="cls-24" cx="200.53" cy="365.07" r="3.59"/><circle class="cls-24" cx="327.33" cy="366.26" r="3.59"/></g><path class="cls-24" d="M218.47,351.91s0,7.17-6,6v10.76s7.18-1.19,6,7.18H313s-1.19-7.18,6-6V359.08s-7.18,0-6-7.17Z"/><circle class="cls-24" cx="201.73" cy="363.87" r="3.59"/><circle class="cls-24" cx="328.53" cy="365.07" r="3.59"/><g class="cls-25"><path d="M237.1,369.3v-11h2.31a3.34,3.34,0,0,1,1.29.23,2.49,2.49,0,0,1,.87.62,2.36,2.36,0,0,1,.49.89,3.7,3.7,0,0,1,.15,1.05v.4a4,4,0,0,1-.07.76,2,2,0,0,1-.21.54,2.09,2.09,0,0,1-.81.74,1.69,1.69,0,0,1,.82.78,3,3,0,0,1,.27,1.39v.62a3.21,3.21,0,0,1-.71,2.23,2.93,2.93,0,0,1-2.25.77Zm1.58-9.53v3h.71a1.21,1.21,0,0,0,1.06-.39,2.07,2.07,0,0,0,.27-1.16,1.75,1.75,0,0,0-.3-1.11,1.33,1.33,0,0,0-1.09-.37Zm0,4.42v3.53h.68a1.7,1.7,0,0,0,.75-.14,1,1,0,0,0,.41-.38,1.56,1.56,0,0,0,.17-.59q0-.35,0-.75a5.1,5.1,0,0,0,0-.72,1.58,1.58,0,0,0-.19-.53.91.91,0,0,0-.42-.32,2.15,2.15,0,0,0-.69-.1Z"/><path d="M243.6,360.88a2.87,2.87,0,0,1,.23-1.17,2.46,2.46,0,0,1,.62-.85,2.57,2.57,0,0,1,.84-.5,2.94,2.94,0,0,1,1-.17,2.89,2.89,0,0,1,.95.17,2.77,2.77,0,0,1,.86.5,2.55,2.55,0,0,1,.6.85,2.72,2.72,0,0,1,.23,1.17v5.82a2.72,2.72,0,0,1-.23,1.19,2.42,2.42,0,0,1-.6.82,2.61,2.61,0,0,1-.86.51,2.65,2.65,0,0,1-.95.17,2.7,2.7,0,0,1-1-.17,2.43,2.43,0,0,1-.84-.51,2.34,2.34,0,0,1-.62-.82,2.87,2.87,0,0,1-.23-1.19Zm1.58,5.82a1,1,0,0,0,.32.84,1.18,1.18,0,0,0,1.5,0,1,1,0,0,0,.31-.84v-5.82A1,1,0,0,0,247,360a1.18,1.18,0,0,0-1.5,0,1,1,0,0,0-.32.84Z"/><path d="M255.39,358.28v8.54a2.51,2.51,0,0,1-.19,1,2.38,2.38,0,0,1-.55.81,2.55,2.55,0,0,1-.82.56,2.37,2.37,0,0,1-1,.2,2.29,2.29,0,0,1-1-.2,2.64,2.64,0,0,1-1.37-1.37,2.35,2.35,0,0,1-.2-1v-8.54h1.57v8.39a1.23,1.23,0,0,0,.28.87,1,1,0,0,0,.7.27.93.93,0,0,0,.69-.27,1.18,1.18,0,0,0,.28-.87v-8.39Z"/><path d="M256.88,369.3v-11h2.33a2.71,2.71,0,0,1,2.07.75,2.91,2.91,0,0,1,.7,2.1v5.15a3.05,3.05,0,0,1-.75,2.28,2.92,2.92,0,0,1-2.16.74Zm1.57-9.53v8h.73a1.19,1.19,0,0,0,.95-.33,1.64,1.64,0,0,0,.27-1v-5.31a1.66,1.66,0,0,0-.26-1,1.13,1.13,0,0,0-1-.35Z"/><path d="M271.36,366.16v.68a2.47,2.47,0,0,1-.19,1,2.73,2.73,0,0,1-.54.81,2.47,2.47,0,0,1-.79.56,2.38,2.38,0,0,1-1,.21,3.61,3.61,0,0,1-.91-.12,2.13,2.13,0,0,1-.83-.43,2.49,2.49,0,0,1-.62-.8,2.84,2.84,0,0,1-.24-1.25v-6.06a2.79,2.79,0,0,1,.19-1,2.2,2.2,0,0,1,.53-.8,2.3,2.3,0,0,1,.81-.54,2.68,2.68,0,0,1,1-.19,2.36,2.36,0,0,1,1.81.73,2.53,2.53,0,0,1,.54.84,2.85,2.85,0,0,1,.19,1.06v.62h-1.58v-.53a1.3,1.3,0,0,0-.26-.8.85.85,0,0,0-.71-.34.79.79,0,0,0-.78.36,1.93,1.93,0,0,0-.2.92v5.64a1.47,1.47,0,0,0,.21.8.81.81,0,0,0,.75.32,1,1,0,0,0,.33-.05,1,1,0,0,0,.34-.18.88.88,0,0,0,.23-.34,1.38,1.38,0,0,0,.09-.54v-.54Z"/><path d="M271.93,369.3l2.46-11h1.32l2.46,11h-1.58l-.46-2.37H274l-.47,2.37Zm3.9-3.85-.77-4h0l-.78,4Z"/><path d="M278.94,369.3v-11h2.31a3.34,3.34,0,0,1,1.29.23,2.49,2.49,0,0,1,.87.62,2.36,2.36,0,0,1,.49.89,3.7,3.7,0,0,1,.15,1.05v.4a3.33,3.33,0,0,1-.07.76,2,2,0,0,1-.21.54,2.13,2.13,0,0,1-.8.74,1.78,1.78,0,0,1,.82.78,3.13,3.13,0,0,1,.26,1.39v.62a3.21,3.21,0,0,1-.71,2.23,2.92,2.92,0,0,1-2.25.77Zm1.58-9.53v3h.71a1.21,1.21,0,0,0,1.06-.39,2.07,2.07,0,0,0,.27-1.16,1.75,1.75,0,0,0-.3-1.11,1.33,1.33,0,0,0-1.09-.37Zm0,4.42v3.53h.68a1.7,1.7,0,0,0,.75-.14,1,1,0,0,0,.41-.38,1.4,1.4,0,0,0,.17-.59q0-.35,0-.75a5.1,5.1,0,0,0,0-.72,1.39,1.39,0,0,0-.19-.53.91.91,0,0,0-.42-.32,2.1,2.1,0,0,0-.69-.1Z"/><path d="M285.58,369.3v-11h1.58v11Z"/><path d="M288.63,369.3v-11h1.52l2.38,6.64h0v-6.64h1.58v11h-1.49l-2.41-6.62h0v6.62Z"/></g><path class="cls-26" d="M238,368.44v-11h2.31a3.16,3.16,0,0,1,1.29.24,2.29,2.29,0,0,1,1.36,1.51,3.58,3.58,0,0,1,.15,1v.4a3.33,3.33,0,0,1-.07.76,1.9,1.9,0,0,1-.21.54,2.13,2.13,0,0,1-.8.74,1.78,1.78,0,0,1,.82.78,3.13,3.13,0,0,1,.26,1.39v.62a3.21,3.21,0,0,1-.71,2.23,2.92,2.92,0,0,1-2.25.77Zm1.58-9.53v3h.71a1.21,1.21,0,0,0,1.06-.39,2.07,2.07,0,0,0,.27-1.16,1.75,1.75,0,0,0-.3-1.11,1.33,1.33,0,0,0-1.09-.37Zm0,4.42v3.53h.68a1.57,1.57,0,0,0,.75-.14,1,1,0,0,0,.41-.38,1.51,1.51,0,0,0,.17-.59c0-.23,0-.48,0-.74a5.25,5.25,0,0,0,0-.73,1.39,1.39,0,0,0-.19-.53.83.83,0,0,0-.42-.31,1.84,1.84,0,0,0-.69-.11Z"/><path class="cls-26" d="M244.48,360a2.87,2.87,0,0,1,.23-1.17,2.46,2.46,0,0,1,.62-.85,2.69,2.69,0,0,1,.85-.5,2.84,2.84,0,0,1,.95-.17,2.89,2.89,0,0,1,1,.17,3,3,0,0,1,.86.5,2.42,2.42,0,0,1,.6.85,2.72,2.72,0,0,1,.23,1.17v5.82a2.69,2.69,0,0,1-.23,1.19,2.3,2.3,0,0,1-.6.82,2.61,2.61,0,0,1-.86.51,2.65,2.65,0,0,1-1,.17,2.61,2.61,0,0,1-.95-.17,2.38,2.38,0,0,1-.85-.51,2.34,2.34,0,0,1-.62-.82,2.84,2.84,0,0,1-.23-1.19Zm1.58,5.82a1,1,0,0,0,.32.85,1.18,1.18,0,0,0,1.5,0,1.07,1.07,0,0,0,.31-.85V360a1,1,0,0,0-.31-.84,1.18,1.18,0,0,0-1.5,0,1,1,0,0,0-.32.84Z"/><path class="cls-26" d="M256.27,357.42V366a2.46,2.46,0,0,1-.19,1,2.52,2.52,0,0,1-.55.82,2.69,2.69,0,0,1-.82.55,2.37,2.37,0,0,1-1,.2,2.29,2.29,0,0,1-1-.2,2.55,2.55,0,0,1-1.37-1.37,2.31,2.31,0,0,1-.2-1v-8.55h1.57v8.39a1.23,1.23,0,0,0,.28.87,1,1,0,0,0,.7.28.94.94,0,0,0,.69-.28,1.18,1.18,0,0,0,.28-.87v-8.39Z"/><path class="cls-26" d="M257.76,368.44v-11h2.33a2.71,2.71,0,0,1,2.07.75,2.91,2.91,0,0,1,.7,2.1v5.15a3.08,3.08,0,0,1-.75,2.29,3,3,0,0,1-2.16.73Zm1.58-9.53v8h.72a1.16,1.16,0,0,0,.95-.34,1.64,1.64,0,0,0,.28-1v-5.31a1.61,1.61,0,0,0-.27-1,1.1,1.1,0,0,0-1-.36Z"/><path class="cls-26" d="M272.24,365.3V366a2.47,2.47,0,0,1-.19,1,2.73,2.73,0,0,1-.54.81,2.5,2.5,0,0,1-.79.57,2.37,2.37,0,0,1-1,.2,3.67,3.67,0,0,1-.91-.12A2.13,2.13,0,0,1,268,368a2.39,2.39,0,0,1-.62-.8,2.81,2.81,0,0,1-.24-1.25v-6.06a2.79,2.79,0,0,1,.19-1,2.45,2.45,0,0,1,1.34-1.34,2.87,2.87,0,0,1,1-.19,2.36,2.36,0,0,1,1.81.73,2.63,2.63,0,0,1,.54.84,2.85,2.85,0,0,1,.19,1.06v.62h-1.58v-.53a1.32,1.32,0,0,0-.26-.8.85.85,0,0,0-.71-.34.8.8,0,0,0-.78.36,2,2,0,0,0-.2.92v5.64a1.44,1.44,0,0,0,.21.8.82.82,0,0,0,.75.33,1,1,0,0,0,.33-.06.86.86,0,0,0,.34-.18.88.88,0,0,0,.23-.34,1.38,1.38,0,0,0,.09-.54v-.54Z"/><path class="cls-26" d="M272.81,368.44l2.46-11h1.32l2.46,11h-1.58l-.46-2.37h-2.15l-.47,2.37Zm3.9-3.85-.77-4h0l-.78,4Z"/><path class="cls-26" d="M279.82,368.44v-11h2.31a3.16,3.16,0,0,1,1.29.24,2.29,2.29,0,0,1,1.36,1.51,3.58,3.58,0,0,1,.15,1v.4a3.33,3.33,0,0,1-.07.76,1.9,1.9,0,0,1-.21.54,2.06,2.06,0,0,1-.8.74,1.78,1.78,0,0,1,.82.78,3.13,3.13,0,0,1,.26,1.39v.62a3.26,3.26,0,0,1-.7,2.23,2.94,2.94,0,0,1-2.26.77Zm1.58-9.53v3h.71a1.21,1.21,0,0,0,1.06-.39,2.07,2.07,0,0,0,.27-1.16,1.75,1.75,0,0,0-.3-1.11,1.33,1.33,0,0,0-1.09-.37Zm0,4.42v3.53h.68a1.57,1.57,0,0,0,.75-.14,1,1,0,0,0,.41-.38,1.36,1.36,0,0,0,.17-.59c0-.23,0-.48,0-.74a5.25,5.25,0,0,0,0-.73,1.39,1.39,0,0,0-.19-.53.83.83,0,0,0-.42-.31,1.84,1.84,0,0,0-.69-.11Z"/><path class="cls-26" d="M286.46,368.44v-11H288v11Z"/><path class="cls-26" d="M289.51,368.44v-11H291l2.38,6.64h0v-6.64H295v11h-1.49l-2.41-6.62h0v6.62Z"/></g></svg>