<svg viewBox="0 0 512 512" xmlns="http://www.w3.org/2000/svg" xmlns:xlink="http://www.w3.org/1999/xlink"><radialGradient id="a" cx="255.28" cy="255.7984" gradientUnits="userSpaceOnUse" r="255.76"><stop offset="0" stop-color="#00cdff"/><stop offset=".32" stop-color="#0ec2f5"/><stop offset=".78" stop-color="#29abe2"/></radialGradient><clipPath id="b"><ellipse cx="262.09" cy="217.38" rx="133.41" ry="134.97"/></clipPath><path d="m-.5.02h512v512h-512z" fill="url(#a)"/><ellipse cx="262.09" cy="217.38" fill="#e6e6e6" opacity=".1" rx="133.41" ry="134.97"/><g clip-path="url(#b)"><g fill="#fff" opacity=".44"><path d="m312.68 300.74-33.16-135.91c-1.39-5.9-4.65-6.43-4.65-6.43s-3.25.53-4.65 6.43l-33.16 135.91s-3 8.62 8.13 8.62h59.36c11.14 0 8.13-8.62 8.13-8.62z"/><path d="m388.83 311.57-28-114.65c-1.18-5-3.93-5.42-3.93-5.42s-2.74.44-3.92 5.42l-27.98 114.65s-2.54 7.26 6.85 7.26h50.15c9.39 0 6.85-7.26 6.85-7.26z"/><path d="m274.44 306.27-28-114.64c-1.18-5-3.93-5.42-3.93-5.42s-2.74.44-3.92 5.42l-28 114.64s-2.54 7.27 6.86 7.27h50.07c9.4 0 6.86-7.27 6.86-7.27z"/><path d="m192.65 295.61-27.97-114.61c-1.18-5-3.92-5.43-3.92-5.43s-2.76.43-3.93 5.43l-28 114.64s-2.54 7.27 6.86 7.27h50.11c9.39 0 6.85-7.27 6.85-7.27z"/></g><path d="m191 136.1-33.15 135.9s-3 8.62 8.13 8.62h29.68v-151s-3.25.53-4.65 6.43z" fill="#2e8d4b"/><path d="m233.47 272-33.15-135.9c-1.4-5.9-4.66-6.43-4.66-6.43v151h29.69c11.14 0 8.12-8.62 8.12-8.62z" fill="#1c7d3a"/><path d="m316 142.76a4.85 4.85 0 1 1 -4.85-4.9 4.88 4.88 0 0 1 4.85 4.9z" fill="#fff"/><path d="m186.61 280.63v18.5h9.05v-18.5z" fill="#7a5728"/><path d="m204.72 280.63h-9.06v18.5h9.06z" fill="#6b4d22"/><path d="m368 299.19h-212a135.08 135.08 0 0 0 18.09 19.54h175.8a135.08 135.08 0 0 0 18.11-19.54z" fill="#fff"/><path d="m349.89 318.73h-175.8a132.25 132.25 0 0 0 175.8 0z" fill="#dbf6ff"/><g fill="#fff"><path d="m197.43 211.05a1.47 1.47 0 0 0 0 2.93c1.19 0 1.3-1.24 1.3-1.46s-.11-1.47-1.3-1.47z"/><path d="m178 195.5a1.29 1.29 0 0 0 -1.36 1.46 1.31 1.31 0 0 0 1.36 1.46c1.18 0 1.3-1.24 1.3-1.46s-.12-1.46-1.3-1.46z"/><path d="m210.31 271.34a1.35 1.35 0 0 0 -1.36 1.53 1.28 1.28 0 0 0 1.36 1.43c1.17 0 1.28-1.2 1.28-1.43s-.11-1.53-1.28-1.53z"/><path d="m141.6 221.39c0-.37 0-1.54-1.17-1.54a1.32 1.32 0 0 0 -1.38 1.54 1.25 1.25 0 0 0 1.38 1.38c1.17 0 1.17-1.12 1.17-1.38z"/><path d="m247 235.16a1.43 1.43 0 0 0 0 2.86 1.43 1.43 0 0 0 0-2.86z"/><path d="m250.19 149.19a1.43 1.43 0 0 0 0 2.86 1.43 1.43 0 0 0 0-2.86z"/><path d="m269.64 110.29a1.44 1.44 0 0 0 0 2.87 1.44 1.44 0 0 0 0-2.87z"/><path d="m182.36 230.6a1.43 1.43 0 0 0 0 2.86 1.43 1.43 0 0 0 0-2.86z"/><path d="m177.94 169.77a1.46 1.46 0 0 0 0-2.91c-1.16 0-1.3 1.18-1.3 1.45s.14 1.46 1.3 1.46z"/><path d="m192.72 159.65a1.45 1.45 0 0 0 0-2.9c-1.16 0-1.3 1.17-1.3 1.45s.14 1.45 1.3 1.45z"/><path d="m239.12 159.48a1.3 1.3 0 0 0 -1.28-1.43 1.27 1.27 0 0 0 -1.3 1.43 1.25 1.25 0 0 0 1.3 1.4 1.29 1.29 0 0 0 1.28-1.4z"/><path d="m187.78 149.37a1.3 1.3 0 0 0 -1.28-1.43 1.27 1.27 0 0 0 -1.3 1.43 1.25 1.25 0 0 0 1.3 1.4 1.29 1.29 0 0 0 1.28-1.4z"/><path d="m166.75 301.24a1.29 1.29 0 0 0 -1.35 1.46 1.31 1.31 0 0 0 1.35 1.46c1.19 0 1.3-1.24 1.3-1.46s-.11-1.46-1.3-1.46z"/><path d="m154.29 263.93a1.3 1.3 0 0 0 -1.29-1.43 1.27 1.27 0 0 0 -1.29 1.43 1.25 1.25 0 0 0 1.29 1.4 1.29 1.29 0 0 0 1.28-1.4z"/><path d="m159.19 162.58c.18-.05-.14-.1 0 0z"/><path d="m159.29 162.66c-.06-.06-.06-.06-.1-.08h-.07c.11 0 .11 0 .17.08z"/><path d="m159 179.41a1.41 1.41 0 0 0 0 2.82 1.41 1.41 0 0 0 0-2.82z"/><path d="m154.5 172.8a1.3 1.3 0 0 0 -1.38 1.45 1.28 1.28 0 0 0 1.38 1.43 1.35 1.35 0 0 0 1.3-1.43c0-.25-.14-1.45-1.3-1.45z"/><path d="m220.38 108.62a1.45 1.45 0 0 0 0-2.9 1.35 1.35 0 0 0 -1.3 1.45c0 .27.13 1.45 1.3 1.45z"/><path d="m201.42 118.26a1.42 1.42 0 1 0 1.36 1.4 1.27 1.27 0 0 0 -1.36-1.4z"/><path d="m196.93 111.66a1.29 1.29 0 0 0 -1.37 1.45 1.28 1.28 0 0 0 1.37 1.43 1.35 1.35 0 0 0 1.3-1.43c0-.25-.13-1.45-1.3-1.45z"/><path d="m231.46 131.34c-3.7 0-3.7 5.74 0 5.74 3.55 0 3.55-5.74 0-5.74z"/><path d="m240.8 100.23c-3.7 0-3.7 5.74 0 5.74 3.54 0 3.54-5.74 0-5.74z"/><path d="m276.32 147.93a1.43 1.43 0 0 0 0 2.85 1.43 1.43 0 0 0 0-2.85z"/><path d="m293.43 96.59a1.42 1.42 0 0 0 0 2.84 1.42 1.42 0 0 0 0-2.84z"/><path d="m362 163.62a1.41 1.41 0 0 0 -1.36 1.41 1.37 1.37 0 0 0 1.36 1.43 1.26 1.26 0 0 0 1.31-1.43 1.28 1.28 0 0 0 -1.31-1.41z"/><path d="m365.05 173.7a1.28 1.28 0 0 0 1.34 1.45 1.4 1.4 0 0 0 1.35-1.45c0-.19-.18-1.41-1.35-1.41a1.28 1.28 0 0 0 -1.34 1.41z"/><path d="m329.28 130.15a1.34 1.34 0 0 0 -1.37 1.55 1.29 1.29 0 0 0 1.37 1.41c1.17 0 1.27-1.22 1.27-1.41s-.1-1.55-1.27-1.55z"/><path d="m329.28 116.14a1.34 1.34 0 0 0 -1.37 1.55 1.29 1.29 0 0 0 1.37 1.42c1.17 0 1.27-1.22 1.27-1.42s-.1-1.55-1.27-1.55z"/><path d="m288.42 142.08a1.28 1.28 0 0 0 1.34 1.45 1.4 1.4 0 0 0 1.35-1.45 1.41 1.41 0 0 0 -1.35-1.42 1.28 1.28 0 0 0 -1.34 1.42z"/><path d="m230.86 93.85a1.28 1.28 0 0 0 1.33 1.45 1.4 1.4 0 0 0 1.36-1.45 1.42 1.42 0 0 0 -1.36-1.42 1.28 1.28 0 0 0 -1.33 1.42z"/><path d="m305.78 112.16a1.28 1.28 0 0 0 1.34 1.45 1.4 1.4 0 0 0 1.35-1.45 1.41 1.41 0 0 0 -1.35-1.42 1.28 1.28 0 0 0 -1.34 1.42z"/><path d="m282.44 120.72a1.28 1.28 0 0 0 1.34 1.45 1.4 1.4 0 0 0 1.36-1.45 1.42 1.42 0 0 0 -1.36-1.42 1.28 1.28 0 0 0 -1.34 1.42z"/><path d="m221.43 177a1.28 1.28 0 0 0 1.33 1.45 1.4 1.4 0 0 0 1.36-1.45 1.42 1.42 0 0 0 -1.36-1.42 1.28 1.28 0 0 0 -1.33 1.42z"/><path d="m350.41 139.93a1.43 1.43 0 0 0 0 2.85 1.43 1.43 0 0 0 0-2.85z"/><path d="m374.5 153.93c-1.19 0-1.35 1.24-1.35 1.55s.16 1.43 1.35 1.43a1.28 1.28 0 0 0 1.31-1.43c0-.31 0-1.55-1.31-1.55z"/><path d="m337.82 153.6a2.8 2.8 0 1 0 5.59 0c0-3.61-5.59-3.61-5.59 0z"/><path d="m138.79 203.55c0 3.64 3.39 3.64 3.39 0s-3.39-3.57-3.39 0z"/><path d="m166.43 154.11c0 3.65 5.62 3.65 5.62 0s-5.62-3.57-5.62 0z"/><path d="m174.21 130c0 3.64 5.62 3.64 5.62 0s-5.62-3.57-5.62 0z"/><path d="m258.59 114.79a1.28 1.28 0 0 0 1.33 1.45 1.43 1.43 0 0 0 0-2.86 1.27 1.27 0 0 0 -1.33 1.41z"/><path d="m181 254.94c-3.71 0-3.71 5.73 0 5.73 3.56 0 3.56-5.73 0-5.73z"/><path d="m160.79 233.93c-3.71 0-3.71 5.73 0 5.73s3.56-5.73 0-5.73z"/><path d="m265.24 91c-3.7 0-3.7 5.73 0 5.73s3.57-5.73 0-5.73z"/><path d="m257.83 332.93a4.29 4.29 0 0 1 -4.26 4.31h-36.4a4.28 4.28 0 0 1 -4.25-4.31 4.28 4.28 0 0 1 4.25-4.31h36.4a4.29 4.29 0 0 1 4.26 4.31z"/><path d="m293.93 332.93a4.29 4.29 0 0 1 -4.26 4.31h-14.37a4.28 4.28 0 0 1 -4.25-4.31 4.28 4.28 0 0 1 4.25-4.31h14.37a4.29 4.29 0 0 1 4.26 4.31z"/></g></g><path d="m326.3 170.74h-14.59v24.31h14.59z" fill="#ae392d"/><path d="m364.28 238.35a1.48 1.48 0 0 1 -1.49 1.49 1.49 1.49 0 0 1 -1.49-1.49v-4.24a1.49 1.49 0 0 1 1.49-1.49 1.49 1.49 0 0 1 1.49 1.49z" fill="#fff"/><path d="m360 238.35a1.49 1.49 0 0 1 -1.5 1.49 1.49 1.49 0 0 1 -1.49-1.49v-4.24a1.49 1.49 0 0 1 1.49-1.49 1.5 1.5 0 0 1 1.5 1.49z" fill="#fff"/><path d="m248.87 239.16a1.49 1.49 0 0 1 -1.49 1.5 1.5 1.5 0 0 1 -1.49-1.5v-4.23a1.49 1.49 0 0 1 1.49-1.49 1.48 1.48 0 0 1 1.49 1.49z" fill="#fff"/><path d="m244 237.05a1.49 1.49 0 0 1 -1.49 1.49 1.49 1.49 0 0 1 -1.49-1.49v-4.24a1.48 1.48 0 0 1 1.49-1.49 1.49 1.49 0 0 1 1.49 1.49z" fill="#fff"/><path d="m243.35 235.2h6.65l52.88-43.32 53.22 43.32h6.65l.04-.07-59.67-49.05z" fill="#ae392d"/><path d="m250 235.2h.94-.94v64.07h106.1v-64.07h-.77.77l-53.22-43.32z" fill="#e64c3c"/><path d="m299.88 288.26h-39.14v-42.69h39.14z" fill="#d34232"/><path d="m345.37 288.26h-39.15v-42.69h39.15z" fill="#d34232"/><path d="m364.28 235.2a4.1 4.1 0 0 1 -2.59-.93l-58.64-48.18-58.63 48.18a4.1 4.1 0 0 1 -5.2-6.33l61.23-50.31a4.1 4.1 0 0 1 5.2 0l61.23 50.31a4.1 4.1 0 0 1 -2.6 7.26z" fill="#fff"/><path d="m295.79 188.47a6 6 0 1 1 -6-6 6 6 0 0 1 6 6z" fill="#fff"/><path d="m343.77 204.67a6 6 0 1 1 -6-6 6 6 0 0 1 6 6z" fill="#fff"/><path d="m362.34 221.38a3.86 3.86 0 1 1 -3.86-3.85 3.86 3.86 0 0 1 3.86 3.85z" fill="#fff"/><path d="m274 199.61a5.43 5.43 0 0 1 -.68 7.65l-10.77 9a5.43 5.43 0 0 1 -7.65-.68 5.43 5.43 0 0 1 .68-7.65l10.77-9a5.43 5.43 0 0 1 7.65.68z" fill="#fff"/><path d="m311.45 182.69a4.32 4.32 0 0 0 .54 6.08l8.56 7.15a4.31 4.31 0 0 0 6.08-.54 4.32 4.32 0 0 0 -.54-6.08l-8.56-7.15a4.31 4.31 0 0 0 -6.08.54z" fill="#fff"/><path d="m368.38 241.13a2.52 2.52 0 0 1 -2.53 2.52 2.52 2.52 0 0 1 -2.52-2.52v-9.79a2.52 2.52 0 0 1 2.52-2.53 2.53 2.53 0 0 1 2.53 2.53z" fill="#fff"/><path d="m242.77 238.52a2.52 2.52 0 0 1 -2.52 2.52 2.52 2.52 0 0 1 -2.53-2.52v-7.18a2.53 2.53 0 0 1 2.53-2.53 2.52 2.52 0 0 1 2.52 2.53z" fill="#fff"/><path d="m328.76 168.2a2.54 2.54 0 0 1 -2.54 2.54h-14.36a2.54 2.54 0 0 1 -2.54-2.54 2.53 2.53 0 0 1 2.54-2.54h14.36a2.54 2.54 0 0 1 2.54 2.54z" fill="#fff"/><path d="m335.86 282.19h-21c-2.72 0-3-.52-3-2.32v-25.19c0-1.8.32-3.26 3-3.26h21.51c2.72 0 3.05 1 3.05 2.79v25.18c0 1.81-.33 2.8-3.05 2.8" fill="#88d3e3"/><path d="m311.81 271.75v-4.79l20.98-15.36 6.12.95z" fill="#c0e6f0"/><path d="m312.09 276.07c-.2-.07.16-.82 0-.94v-1.41l27.29-19v2.68l-27.29 18.7" fill="#c0e6f0"/><path d="m290.74 282.35h-21c-2.72 0-3.05-.52-3.05-2.33v-25.18c0-1.8.33-3.26 3.05-3.26h21.51c2.72 0 3 1 3 2.79v25.18c0 1.81-.32 2.8-3 2.8" fill="#88d3e3"/><path d="m266.68 271.91v-4.79l20.99-15.36 6.11.94z" fill="#c0e6f0"/><path d="m267 276.23c-.19-.08.17-.82 0-.94v-1.41l27.29-19v2.69z" fill="#c0e6f0"/><g fill="#fff"><path d="m331.9 214.29a4.85 4.85 0 1 1 -4.85-4.9 4.88 4.88 0 0 1 4.85 4.9z"/><path d="m347 228a3.13 3.13 0 1 1 -3.12-3.16 3.14 3.14 0 0 1 3.12 3.16z"/><path d="m249.87 248.56a2 2 0 1 1 -2.05-2.08 2.06 2.06 0 0 1 2.05 2.08z"/><path d="m235.36 189.61a1.46 1.46 0 0 0 0 2.92c1.19 0 1.3-1.23 1.3-1.45s-.11-1.47-1.3-1.47z"/><path d="m348.31 231.83a1.43 1.43 0 0 0 -1.49 1.39 1.43 1.43 0 1 0 2.85 0c0-.15-.18-1.39-1.36-1.39z"/><path d="m293.53 160.48a1.34 1.34 0 0 0 -1.37 1.55 1.28 1.28 0 0 0 1.37 1.4c1.16 0 1.26-1.21 1.26-1.4s-.1-1.55-1.26-1.55z"/><path d="m308.59 161.37c-1.22 0-1.38 1.3-1.38 1.41a1.41 1.41 0 0 0 1.38 1.47 1.28 1.28 0 0 0 1.3-1.47 1.3 1.3 0 0 0 -1.3-1.41z"/><path d="m340 276a1.43 1.43 0 0 0 0 2.85 1.43 1.43 0 0 0 0-2.85z"/><path d="m311.81 232.69a1.42 1.42 0 0 0 0 2.84 1.42 1.42 0 0 0 0-2.84z"/><path d="m362.84 207.88a2.8 2.8 0 1 0 5.59 0c0-3.61-5.59-3.61-5.59 0z"/><path d="m352.09 270.14a1.28 1.28 0 0 0 1.34 1.46 1.44 1.44 0 0 0 0-2.87 1.28 1.28 0 0 0 -1.34 1.41z"/><path d="m286.74 236.16a1.28 1.28 0 0 0 1.33 1.46 1.44 1.44 0 0 0 0-2.87 1.28 1.28 0 0 0 -1.33 1.41z"/><path d="m320.45 284.52c-1.22 0-1.38 1.3-1.38 1.42a1.4 1.4 0 0 0 1.38 1.46 1.28 1.28 0 0 0 1.3-1.46 1.3 1.3 0 0 0 -1.3-1.42z"/><path d="m258.59 198.58c-3.7 0-3.7 5.73 0 5.73s3.56-5.73 0-5.73z"/><path d="m277.54 177.61a1.43 1.43 0 1 0 1.33 1.42 1.27 1.27 0 0 0 -1.33-1.42z"/><path d="m317.47 210.5c0-.37 0-1.55-1.16-1.55a1.33 1.33 0 0 0 -1.38 1.55 1.24 1.24 0 0 0 1.38 1.37c1.16 0 1.16-1.11 1.16-1.37z"/><path d="m236.26 299.73v-26.29a19.61 19.61 0 0 0 -19.5 19.72 19.83 19.83 0 0 0 1.12 6.57z"/></g><path d="m254.64 299.73a19.83 19.83 0 0 0 1.12-6.57 19.61 19.61 0 0 0 -19.5-19.72v26.29z" fill="#c9e0da"/><path d="m222.9 267.23a13.44 13.44 0 0 0 13.36 13.52v-27a13.44 13.44 0 0 0 -13.36 13.52z" fill="#fff"/><path d="m236.26 253.71v27a13.52 13.52 0 0 0 0-27z" fill="#c9e0da"/><path d="m228 248.13a8.27 8.27 0 0 0 8.22 8.32v-16.64a8.27 8.27 0 0 0 -8.22 8.32z" fill="#fff"/><path d="m236.26 239.81v16.64a8.32 8.32 0 0 0 0-16.64z" fill="#c9e0da"/><path d="m228.14 271a3.16 3.16 0 0 1 -3.14 3.17h-4.21a3.16 3.16 0 0 1 -3.14-3.17v-5a3.17 3.17 0 0 1 3.14-3.18h4.21a3.17 3.17 0 0 1 3.14 3.18z" fill="#fff"/><path d="m254.87 271a3.16 3.16 0 0 1 -3.14 3.17h-4.21a3.16 3.16 0 0 1 -3.14-3.17v-5a3.17 3.17 0 0 1 3.14-3.18h4.21a3.17 3.17 0 0 1 3.14 3.18z" fill="#fff"/><path d="m238.15 272.24a1.89 1.89 0 1 1 -1.89-1.91 1.9 1.9 0 0 1 1.89 1.91z" fill="#58595b"/><path d="m238.15 262.85a1.89 1.89 0 1 1 -1.89-1.91 1.91 1.91 0 0 1 1.89 1.91z" fill="#58595b"/><path d="m235.35 247.1a.61.61 0 0 1 -.61.61h-2.61a.61.61 0 0 1 -.61-.61.62.62 0 0 1 .61-.62h2.61a.62.62 0 0 1 .61.62z" fill="#58595b"/><path d="m241 247.1a.61.61 0 0 1 -.61.61h-2.61a.61.61 0 0 1 -.61-.61.62.62 0 0 1 .61-.62h2.61a.62.62 0 0 1 .61.62z" fill="#4f5052"/><path d="m241.45 250.48-4.88-1.11a1.18 1.18 0 0 0 -.5-.11 1.23 1.23 0 0 0 0 2.45 1.19 1.19 0 0 0 .5-.12z" fill="#ff9e53"/><path d="m232.05 240.17h-1.37a.86.86 0 0 0 0 1.72h5.58v-1.72z" fill="#58595b"/><path d="m241.84 240.17h-5.58v1.72h5.58a.86.86 0 0 0 0-1.72z" fill="#4f5052"/><path d="m240.47 240.17v-3.69a2 2 0 0 0 -2-2h-2.23v5.69z" fill="#4f5052"/><path d="m236.26 234.48h-2.26a2 2 0 0 0 -2 2v3.69h4.21v-5.69z" fill="#58595b"/><path d="m268.92 87a1.22 1.22 0 0 0 -.27-2.4c-28.39-.51-117.93 10-135 118.07 0 0-14.44 97.67 80 132.83a2.5 2.5 0 0 0 2.58-4.16c-17.27-16.58-50-60.9-41.9-128.67-.05-.04 4.4-91.94 94.59-115.67z" fill="#f2f2f2" opacity=".15"/><ellipse cx="259.81" cy="217.2" fill="none" opacity=".65" rx="132.78" ry="136.37" stroke="#fff" stroke-miterlimit="10" stroke-width="3.4"/><path d="m182.06 328.45-3.59 17.94 163.88 1.2-3.59-19.14z" fill="#5a3a1b"/><ellipse cx="261.01" cy="386.47" opacity=".16" rx="129.19" ry="23.33"/><path d="m175.54 342.82-6 40.13a3.5 3.5 0 0 0 3.33 4.12h178.57a2.55 2.55 0 0 0 2.43-3l-6.4-42.67a2.52 2.52 0 0 0 -2.44-2.19h-165.48a4.13 4.13 0 0 0 -4.01 3.61z" fill="#704d2e"/><path d="m179.55 339.22a4.13 4.13 0 0 0 -4 3.6l-.18 1.18h172.48l-.39-2.59a2.49 2.49 0 0 0 -2.43-2.19z" fill="#745638"/><g fill="#eebc5a" opacity=".2"><path d="m216.75 353.57s0 7.18-6 6v10.77s7.17-1.2 6 7.18h94.5s-1.2-7.18 6-6v-10.77s-7.18 0-6-7.18z"/><circle cx="200" cy="365.53" r="3.59"/><circle cx="326.8" cy="366.73" r="3.59"/></g><path d="m217.94 352.37s0 7.18-6 6v10.76s7.18-1.19 6 7.18h94.51s-1.2-7.18 6-6v-10.76s-7.18 0-6-7.18z" fill="#eebc5a"/><circle cx="201.2" cy="364.34" fill="#eebc5a" r="3.59"/><circle cx="328" cy="365.53" fill="#eebc5a" r="3.59"/><g opacity=".05"><path d="m236.57 369.77v-11h2.31a3.34 3.34 0 0 1 1.29.23 2.34 2.34 0 0 1 1.36 1.51 3.65 3.65 0 0 1 .15 1.05v.4a3.33 3.33 0 0 1 -.07.76 2.17 2.17 0 0 1 -.21.54 2.14 2.14 0 0 1 -.8.74 1.76 1.76 0 0 1 .82.77 3.21 3.21 0 0 1 .26 1.4v.62a3.16 3.16 0 0 1 -.68 2.21 2.9 2.9 0 0 1 -2.26.78zm1.58-9.53v3h.71a1.18 1.18 0 0 0 1.06-.4 2 2 0 0 0 .27-1.15 1.73 1.73 0 0 0 -.3-1.11 1.33 1.33 0 0 0 -1.09-.37zm0 4.42v3.53h.68a1.7 1.7 0 0 0 .75-.14.91.91 0 0 0 .41-.39 1.32 1.32 0 0 0 .17-.58q0-.34 0-.75a5 5 0 0 0 0-.72 1.33 1.33 0 0 0 -.19-.53.85.85 0 0 0 -.42-.32 1.86 1.86 0 0 0 -.69-.1z"/><path d="m243.07 361.35a2.92 2.92 0 0 1 .23-1.18 2.56 2.56 0 0 1 .62-.85 2.66 2.66 0 0 1 .85-.49 2.61 2.61 0 0 1 .95-.17 2.65 2.65 0 0 1 .95.17 3 3 0 0 1 .86.49 2.51 2.51 0 0 1 .6.85 2.76 2.76 0 0 1 .23 1.18v5.82a2.72 2.72 0 0 1 -.23 1.19 2.39 2.39 0 0 1 -.6.82 2.61 2.61 0 0 1 -.86.51 2.89 2.89 0 0 1 -.95.17 2.84 2.84 0 0 1 -.95-.17 2.38 2.38 0 0 1 -.85-.51 2.44 2.44 0 0 1 -.62-.82 2.87 2.87 0 0 1 -.23-1.19zm1.58 5.82a1 1 0 0 0 .32.84 1.18 1.18 0 0 0 1.5 0 1 1 0 0 0 .32-.84v-5.82a1 1 0 0 0 -.32-.84 1.18 1.18 0 0 0 -1.5 0 1 1 0 0 0 -.32.84z"/><path d="m254.86 358.75v8.54a2.51 2.51 0 0 1 -.19 1 2.48 2.48 0 0 1 -.55.81 2.52 2.52 0 0 1 -1.81.76 2.45 2.45 0 0 1 -1-.2 2.55 2.55 0 0 1 -.82-.56 2.64 2.64 0 0 1 -.55-.81 2.35 2.35 0 0 1 -.2-1v-8.54h1.57v8.39a1.18 1.18 0 0 0 .28.86 1 1 0 0 0 1.4 0 1.18 1.18 0 0 0 .27-.86v-8.39z"/><path d="m256.35 369.77v-11h2.33a2.74 2.74 0 0 1 2.07.74 3 3 0 0 1 .71 2.11v5.15a3.07 3.07 0 0 1 -.76 2.28 3 3 0 0 1 -2.15.74zm1.58-9.53v8h.72a1.19 1.19 0 0 0 1-.33 1.64 1.64 0 0 0 .28-1v-5.31a1.64 1.64 0 0 0 -.27-1 1.1 1.1 0 0 0 -1-.35z"/><path d="m270.83 366.63v.68a2.38 2.38 0 0 1 -.19 1 2.64 2.64 0 0 1 -1.33 1.38 2.33 2.33 0 0 1 -1 .21 3.69 3.69 0 0 1 -.92-.12 2.15 2.15 0 0 1 -.83-.44 2.32 2.32 0 0 1 -.61-.79 2.84 2.84 0 0 1 -.24-1.25v-6.07a2.73 2.73 0 0 1 .18-1 2.47 2.47 0 0 1 .53-.81 2.42 2.42 0 0 1 .81-.53 2.68 2.68 0 0 1 1-.19 2.39 2.39 0 0 1 1.81.72 2.57 2.57 0 0 1 .54.85 2.81 2.81 0 0 1 .19 1.06v.62h-1.58v-.53a1.22 1.22 0 0 0 -.26-.8.85.85 0 0 0 -.71-.34.8.8 0 0 0 -.78.36 1.93 1.93 0 0 0 -.2.92v5.63a1.48 1.48 0 0 0 .21.81.84.84 0 0 0 .75.32 1.4 1.4 0 0 0 .34 0 1.19 1.19 0 0 0 .33-.18 1 1 0 0 0 .23-.34 1.42 1.42 0 0 0 .09-.54v-.54z"/><path d="m271.4 369.77 2.46-11h1.32l2.46 11h-1.58l-.46-2.37h-2.15l-.47 2.37zm3.9-3.86-.77-4-.77 4z"/><path d="m278.41 369.77v-11h2.31a3.27 3.27 0 0 1 1.28.23 2.49 2.49 0 0 1 .88.62 2.34 2.34 0 0 1 .48.89 3.65 3.65 0 0 1 .15 1.05v.4a3.33 3.33 0 0 1 -.07.76 2.17 2.17 0 0 1 -.21.54 2.14 2.14 0 0 1 -.8.74 1.76 1.76 0 0 1 .82.77 3.21 3.21 0 0 1 .26 1.4v.62a3.16 3.16 0 0 1 -.7 2.22 2.9 2.9 0 0 1 -2.26.78zm1.58-9.53v3h.71a1.18 1.18 0 0 0 1.06-.4 2 2 0 0 0 .27-1.15 1.73 1.73 0 0 0 -.3-1.11 1.33 1.33 0 0 0 -1.09-.37zm0 4.42v3.53h.68a1.7 1.7 0 0 0 .75-.14.91.91 0 0 0 .41-.39 1.32 1.32 0 0 0 .17-.58q0-.34 0-.75a5 5 0 0 0 0-.72 1.19 1.19 0 0 0 -.19-.53.87.87 0 0 0 -.41-.32 2 2 0 0 0 -.7-.1z"/><path d="m285.05 369.77v-11h1.58v11z"/><path d="m288.1 369.77v-11h1.52l2.38 6.64v-6.64h1.58v11h-1.49l-2.41-6.63v6.63z"/></g><path d="m237.45 368.91v-11h2.31a3.31 3.31 0 0 1 1.29.23 2.63 2.63 0 0 1 .88.62 2.34 2.34 0 0 1 .48.89 3.7 3.7 0 0 1 .15 1.05v.4a3.33 3.33 0 0 1 -.07.76 2.17 2.17 0 0 1 -.21.54 2.06 2.06 0 0 1 -.8.74 1.78 1.78 0 0 1 .82.78 3.13 3.13 0 0 1 .26 1.39v.62a3.21 3.21 0 0 1 -.7 2.23 2.94 2.94 0 0 1 -2.26.77zm1.58-9.53v3h.71a1.21 1.21 0 0 0 1.06-.39 2.07 2.07 0 0 0 .27-1.16 1.75 1.75 0 0 0 -.3-1.11 1.33 1.33 0 0 0 -1.09-.37zm0 4.42v3.53h.68a1.7 1.7 0 0 0 .75-.14 1 1 0 0 0 .41-.38 1.4 1.4 0 0 0 .17-.59q0-.35 0-.75a5.1 5.1 0 0 0 0-.72 1.24 1.24 0 0 0 -.19-.53.91.91 0 0 0 -.42-.32 2.1 2.1 0 0 0 -.69-.1z" fill="#c69a4b"/><path d="m244 360.49a2.87 2.87 0 0 1 .23-1.17 2.75 2.75 0 0 1 .62-.86 2.66 2.66 0 0 1 .85-.49 2.74 2.74 0 0 1 1.9 0 3 3 0 0 1 .86.49 2.55 2.55 0 0 1 .6.86 2.72 2.72 0 0 1 .23 1.17v5.82a2.72 2.72 0 0 1 -.23 1.19 2.39 2.39 0 0 1 -.6.82 2.75 2.75 0 0 1 -2.76.51 2.38 2.38 0 0 1 -.85-.51 2.57 2.57 0 0 1 -.62-.82 2.87 2.87 0 0 1 -.23-1.19zm1.58 5.82a1 1 0 0 0 .32.84 1.18 1.18 0 0 0 1.5 0 1 1 0 0 0 .32-.84v-5.82a1 1 0 0 0 -.32-.84 1.18 1.18 0 0 0 -1.5 0 1 1 0 0 0 -.32.84z" fill="#c69a4b"/><path d="m255.74 357.89v8.54a2.51 2.51 0 0 1 -.19 1 2.38 2.38 0 0 1 -.55.81 2.55 2.55 0 0 1 -.82.56 2.37 2.37 0 0 1 -1 .2 2.29 2.29 0 0 1 -1-.2 2.74 2.74 0 0 1 -1.37-1.37 2.35 2.35 0 0 1 -.2-1v-8.54h1.58v8.39a1.23 1.23 0 0 0 .27.87 1 1 0 0 0 1.4 0 1.23 1.23 0 0 0 .28-.87v-8.39z" fill="#c69a4b"/><path d="m257.23 368.91v-11h2.34a2.73 2.73 0 0 1 2.06.74 3 3 0 0 1 .71 2.11v5.15a3.11 3.11 0 0 1 -.75 2.28 3 3 0 0 1 -2.16.74zm1.58-9.53v8h.72a1.19 1.19 0 0 0 1-.33 1.64 1.64 0 0 0 .28-1v-5.31a1.66 1.66 0 0 0 -.27-1 1.13 1.13 0 0 0 -1-.35z" fill="#c69a4b"/><path d="m271.71 365.77v.68a2.47 2.47 0 0 1 -.19 1 2.91 2.91 0 0 1 -.53.81 2.63 2.63 0 0 1 -.8.56 2.33 2.33 0 0 1 -1 .21 3.69 3.69 0 0 1 -.92-.12 2.2 2.2 0 0 1 -.83-.43 2.46 2.46 0 0 1 -.61-.8 2.84 2.84 0 0 1 -.24-1.25v-6.06a2.79 2.79 0 0 1 .18-1 2.33 2.33 0 0 1 .53-.8 2.4 2.4 0 0 1 .81-.54 2.68 2.68 0 0 1 1-.19 2.4 2.4 0 0 1 1.82.73 2.56 2.56 0 0 1 .53.84 2.81 2.81 0 0 1 .19 1.06v.62h-1.58v-.53a1.24 1.24 0 0 0 -.26-.8.83.83 0 0 0 -.71-.34.8.8 0 0 0 -.78.36 1.93 1.93 0 0 0 -.2.92v5.63a1.48 1.48 0 0 0 .21.81.81.81 0 0 0 .75.32 1 1 0 0 0 .34-.05 1.06 1.06 0 0 0 .33-.18.88.88 0 0 0 .23-.34 1.38 1.38 0 0 0 .09-.54v-.54z" fill="#c69a4b"/><path d="m272.29 368.91 2.45-11h1.32l2.46 11h-1.58l-.46-2.37h-2.15l-.47 2.37zm3.89-3.85-.77-4-.77 4z" fill="#c69a4b"/><path d="m279.29 368.91v-11h2.31a3.27 3.27 0 0 1 1.29.23 2.63 2.63 0 0 1 .88.62 2.34 2.34 0 0 1 .48.89 3.7 3.7 0 0 1 .15 1.05v.4a3.33 3.33 0 0 1 -.07.76 1.84 1.84 0 0 1 -.21.54 2.06 2.06 0 0 1 -.8.74 1.78 1.78 0 0 1 .82.78 3.13 3.13 0 0 1 .26 1.39v.62a3.21 3.21 0 0 1 -.7 2.23 2.93 2.93 0 0 1 -2.25.77zm1.58-9.53v3h.71a1.21 1.21 0 0 0 1.06-.39 2.07 2.07 0 0 0 .28-1.16 1.69 1.69 0 0 0 -.31-1.11 1.33 1.33 0 0 0 -1.09-.37zm0 4.42v3.53h.68a1.7 1.7 0 0 0 .75-.14 1 1 0 0 0 .41-.38 1.4 1.4 0 0 0 .17-.59c0-.23 0-.48 0-.75a5 5 0 0 0 -.05-.72 1.24 1.24 0 0 0 -.19-.53.94.94 0 0 0 -.41-.32 2.21 2.21 0 0 0 -.7-.1z" fill="#c69a4b"/><path d="m285.93 368.91v-11h1.58v11z" fill="#c69a4b"/><path d="m289 368.91v-11h1.52l2.38 6.64v-6.64h1.58v11h-1.48l-2.41-6.62v6.62z" fill="#c69a4b"/></svg>