<svg xmlns="http://www.w3.org/2000/svg" xmlns:xlink="http://www.w3.org/1999/xlink" viewBox="0 0 512 512"><defs><style>.cls-1{fill:#e6e6e6;opacity:0.1;}.cls-2{fill:url(#radial-gradient);}.cls-3{clip-path:url(#clip-path);}.cls-4{opacity:0.44;}.cls-5{fill:#fff;}.cls-6{fill:#2e8d4b;}.cls-7{fill:#1c7d3a;}.cls-8{fill:#7a5728;}.cls-9{fill:#6b4d22;}.cls-10{fill:#dbf6ff;}.cls-11{fill:#ae392d;}.cls-12{fill:#e64c3c;}.cls-13{fill:#d34232;}.cls-14{fill:#88d3e3;}.cls-15{fill:#c0e6f0;}.cls-16{fill:#c9e0da;}.cls-17{fill:#58595b;}.cls-18{fill:#4f5052;}.cls-19{fill:#ff9e53;}.cls-20{fill:#f2f2f2;opacity:0.15;}.cls-21{fill:none;stroke:#fff;stroke-miterlimit:10;stroke-width:3.4px;opacity:0.65;}.cls-22{fill:#5a3a1b;}.cls-23{opacity:0.16;}.cls-24{fill:#704d2e;}.cls-25{fill:#745638;}.cls-26{opacity:0.2;}.cls-27{fill:#eebc5a;}.cls-28{opacity:0.05;}.cls-29{fill:#c69a4b;}</style><radialGradient id="radial-gradient" cx="250.5" cy="260.02" r="278" gradientTransform="translate(24.82 16.58) scale(0.92 0.92)" gradientUnits="userSpaceOnUse"><stop offset="0" stop-color="#00cdff"/><stop offset="0.32" stop-color="#0ec2f5"/><stop offset="0.78" stop-color="#29abe2"/></radialGradient><clipPath id="clip-path"><ellipse class="cls-1" cx="262.09" cy="217.38" rx="133.41" ry="134.97"/></clipPath></defs><g id="Background"><rect class="cls-2" x="-0.5" y="0.02" width="512" height="512"/></g><g id="Globe"><ellipse class="cls-1" cx="262.09" cy="217.38" rx="133.41" ry="134.97"/><g class="cls-3"><g class="cls-4"><path class="cls-5" d="M312.68,300.74,279.52,164.83c-1.39-5.9-4.65-6.43-4.65-6.43s-3.25.53-4.65,6.43L237.06,300.74s-3,8.62,8.13,8.62h59.36c11.14,0,8.13-8.62,8.13-8.62Z"/><path class="cls-5" d="M388.83,311.57l-28-114.65c-1.18-5-3.93-5.42-3.93-5.42s-2.74.44-3.92,5.42L325,311.57s-2.54,7.26,6.85,7.26H382c9.39,0,6.85-7.26,6.85-7.26Z"/><path class="cls-5" d="M274.44,306.27l-28-114.64c-1.18-5-3.93-5.42-3.93-5.42s-2.74.44-3.92,5.42l-28,114.64s-2.54,7.27,6.86,7.27h50.07c9.4,0,6.86-7.27,6.86-7.27Z"/><path class="cls-5" d="M192.65,295.61,164.68,181c-1.18-5-3.92-5.43-3.92-5.43S158,176,156.83,181l-28,114.64s-2.54,7.27,6.86,7.27H185.8c9.39,0,6.85-7.27,6.85-7.27Z"/></g><path class="cls-6" d="M191,136.1,157.85,272s-3,8.62,8.13,8.62h29.68v-151s-3.25.53-4.65,6.43Z"/><path class="cls-7" d="M233.47,272,200.32,136.1c-1.4-5.9-4.66-6.43-4.66-6.43v151h29.69c11.14,0,8.12-8.62,8.12-8.62Z"/><path class="cls-5" d="M316,142.76a4.85,4.85,0,1,1-4.85-4.9,4.88,4.88,0,0,1,4.85,4.9Z"/><polygon class="cls-8" points="186.61 280.63 186.61 299.13 195.66 299.13 195.66 280.63 186.61 280.63 186.61 280.63"/><polygon class="cls-9" points="204.72 280.63 195.66 280.63 195.66 299.13 204.72 299.13 204.72 280.63 204.72 280.63"/><path class="cls-5" d="M368,299.19H156a135.08,135.08,0,0,0,18.09,19.54h175.8A135.08,135.08,0,0,0,368,299.19Z"/><path class="cls-10" d="M349.89,318.73H174.09a132.25,132.25,0,0,0,175.8,0Z"/><path class="cls-5" d="M197.43,211.05a1.47,1.47,0,0,0,0,2.93c1.19,0,1.3-1.24,1.3-1.46s-.11-1.47-1.3-1.47Z"/><path class="cls-5" d="M178,195.5a1.29,1.29,0,0,0-1.36,1.46,1.31,1.31,0,0,0,1.36,1.46c1.18,0,1.3-1.24,1.3-1.46s-.12-1.46-1.3-1.46Z"/><path class="cls-5" d="M210.31,271.34a1.35,1.35,0,0,0-1.36,1.53,1.28,1.28,0,0,0,1.36,1.43c1.17,0,1.28-1.2,1.28-1.43s-.11-1.53-1.28-1.53Z"/><path class="cls-5" d="M141.6,221.39c0-.37,0-1.54-1.17-1.54a1.32,1.32,0,0,0-1.38,1.54,1.25,1.25,0,0,0,1.38,1.38c1.17,0,1.17-1.12,1.17-1.38Z"/><path class="cls-5" d="M247,235.16a1.43,1.43,0,0,0,0,2.86,1.43,1.43,0,0,0,0-2.86Z"/><path class="cls-5" d="M250.19,149.19a1.43,1.43,0,0,0,0,2.86,1.43,1.43,0,0,0,0-2.86Z"/><path class="cls-5" d="M269.64,110.29a1.44,1.44,0,0,0,0,2.87,1.44,1.44,0,0,0,0-2.87Z"/><path class="cls-5" d="M182.36,230.6a1.43,1.43,0,0,0,0,2.86,1.43,1.43,0,0,0,0-2.86Z"/><path class="cls-5" d="M177.94,169.77a1.46,1.46,0,0,0,0-2.91c-1.16,0-1.3,1.18-1.3,1.45s.14,1.46,1.3,1.46Z"/><path class="cls-5" d="M192.72,159.65a1.45,1.45,0,0,0,0-2.9c-1.16,0-1.3,1.17-1.3,1.45s.14,1.45,1.3,1.45Z"/><path class="cls-5" d="M239.12,159.48a1.3,1.3,0,0,0-1.28-1.43,1.27,1.27,0,0,0-1.3,1.43,1.25,1.25,0,0,0,1.3,1.4,1.29,1.29,0,0,0,1.28-1.4Z"/><path class="cls-5" d="M187.78,149.37a1.3,1.3,0,0,0-1.28-1.43,1.27,1.27,0,0,0-1.3,1.43,1.25,1.25,0,0,0,1.3,1.4,1.29,1.29,0,0,0,1.28-1.4Z"/><path class="cls-5" d="M166.75,301.24a1.29,1.29,0,0,0-1.35,1.46,1.31,1.31,0,0,0,1.35,1.46c1.19,0,1.3-1.24,1.3-1.46s-.11-1.46-1.3-1.46Z"/><path class="cls-5" d="M154.29,263.93A1.3,1.3,0,0,0,153,262.5a1.27,1.27,0,0,0-1.29,1.43,1.25,1.25,0,0,0,1.29,1.4,1.29,1.29,0,0,0,1.28-1.4Z"/><path class="cls-5" d="M159.19,162.58c.18-.05-.14-.1,0,0Z"/><path class="cls-5" d="M159.29,162.66c-.06-.06-.06-.06-.1-.08h-.07c.11,0,.11,0,.17.08Z"/><path class="cls-5" d="M159,179.41a1.41,1.41,0,0,0,0,2.82,1.41,1.41,0,0,0,0-2.82Z"/><path class="cls-5" d="M154.5,172.8a1.3,1.3,0,0,0-1.38,1.45,1.28,1.28,0,0,0,1.38,1.43,1.35,1.35,0,0,0,1.3-1.43c0-.25-.14-1.45-1.3-1.45Z"/><path class="cls-5" d="M220.38,108.62a1.45,1.45,0,0,0,0-2.9,1.35,1.35,0,0,0-1.3,1.45c0,.27.13,1.45,1.3,1.45Z"/><path class="cls-5" d="M201.42,118.26a1.42,1.42,0,1,0,1.36,1.4,1.27,1.27,0,0,0-1.36-1.4Z"/><path class="cls-5" d="M196.93,111.66a1.29,1.29,0,0,0-1.37,1.45,1.28,1.28,0,0,0,1.37,1.43,1.35,1.35,0,0,0,1.3-1.43c0-.25-.13-1.45-1.3-1.45Z"/><path class="cls-5" d="M231.46,131.34c-3.7,0-3.7,5.74,0,5.74,3.55,0,3.55-5.74,0-5.74Z"/><path class="cls-5" d="M240.8,100.23c-3.7,0-3.7,5.74,0,5.74,3.54,0,3.54-5.74,0-5.74Z"/><path class="cls-5" d="M276.32,147.93a1.43,1.43,0,0,0,0,2.85,1.43,1.43,0,0,0,0-2.85Z"/><path class="cls-5" d="M293.43,96.59a1.42,1.42,0,0,0,0,2.84,1.42,1.42,0,0,0,0-2.84Z"/><path class="cls-5" d="M362,163.62a1.41,1.41,0,0,0-1.36,1.41,1.37,1.37,0,0,0,1.36,1.43,1.26,1.26,0,0,0,1.31-1.43,1.28,1.28,0,0,0-1.31-1.41Z"/><path class="cls-5" d="M365.05,173.7a1.28,1.28,0,0,0,1.34,1.45,1.4,1.4,0,0,0,1.35-1.45c0-.19-.18-1.41-1.35-1.41a1.28,1.28,0,0,0-1.34,1.41Z"/><path class="cls-5" d="M329.28,130.15a1.34,1.34,0,0,0-1.37,1.55,1.29,1.29,0,0,0,1.37,1.41c1.17,0,1.27-1.22,1.27-1.41s-.1-1.55-1.27-1.55Z"/><path class="cls-5" d="M329.28,116.14a1.34,1.34,0,0,0-1.37,1.55,1.29,1.29,0,0,0,1.37,1.42c1.17,0,1.27-1.22,1.27-1.42s-.1-1.55-1.27-1.55Z"/><path class="cls-5" d="M288.42,142.08a1.28,1.28,0,0,0,1.34,1.45,1.4,1.4,0,0,0,1.35-1.45,1.41,1.41,0,0,0-1.35-1.42,1.28,1.28,0,0,0-1.34,1.42Z"/><path class="cls-5" d="M230.86,93.85a1.28,1.28,0,0,0,1.33,1.45,1.4,1.4,0,0,0,1.36-1.45,1.42,1.42,0,0,0-1.36-1.42,1.28,1.28,0,0,0-1.33,1.42Z"/><path class="cls-5" d="M305.78,112.16a1.28,1.28,0,0,0,1.34,1.45,1.4,1.4,0,0,0,1.35-1.45,1.41,1.41,0,0,0-1.35-1.42,1.28,1.28,0,0,0-1.34,1.42Z"/><path class="cls-5" d="M282.44,120.72a1.28,1.28,0,0,0,1.34,1.45,1.4,1.4,0,0,0,1.36-1.45,1.42,1.42,0,0,0-1.36-1.42,1.28,1.28,0,0,0-1.34,1.42Z"/><path class="cls-5" d="M221.43,177a1.28,1.28,0,0,0,1.33,1.45,1.4,1.4,0,0,0,1.36-1.45,1.42,1.42,0,0,0-1.36-1.42,1.28,1.28,0,0,0-1.33,1.42Z"/><path class="cls-5" d="M350.41,139.93a1.43,1.43,0,0,0,0,2.85,1.43,1.43,0,0,0,0-2.85Z"/><path class="cls-5" d="M374.5,153.93c-1.19,0-1.35,1.24-1.35,1.55s.16,1.43,1.35,1.43a1.28,1.28,0,0,0,1.31-1.43c0-.31,0-1.55-1.31-1.55Z"/><path class="cls-5" d="M337.82,153.6a2.8,2.8,0,1,0,5.59,0c0-3.61-5.59-3.61-5.59,0Z"/><path class="cls-5" d="M138.79,203.55c0,3.64,3.39,3.64,3.39,0s-3.39-3.57-3.39,0Z"/><path class="cls-5" d="M166.43,154.11c0,3.65,5.62,3.65,5.62,0s-5.62-3.57-5.62,0Z"/><path class="cls-5" d="M174.21,130c0,3.64,5.62,3.64,5.62,0s-5.62-3.57-5.62,0Z"/><path class="cls-5" d="M258.59,114.79a1.28,1.28,0,0,0,1.33,1.45,1.43,1.43,0,0,0,0-2.86,1.27,1.27,0,0,0-1.33,1.41Z"/><path class="cls-5" d="M181,254.94c-3.71,0-3.71,5.73,0,5.73,3.56,0,3.56-5.73,0-5.73Z"/><path class="cls-5" d="M160.79,233.93c-3.71,0-3.71,5.73,0,5.73s3.56-5.73,0-5.73Z"/><path class="cls-5" d="M265.24,91c-3.7,0-3.7,5.73,0,5.73s3.57-5.73,0-5.73Z"/><path class="cls-5" d="M257.83,332.93a4.29,4.29,0,0,1-4.26,4.31h-36.4a4.28,4.28,0,0,1-4.25-4.31h0a4.28,4.28,0,0,1,4.25-4.31h36.4a4.29,4.29,0,0,1,4.26,4.31Z"/><path class="cls-5" d="M293.93,332.93a4.29,4.29,0,0,1-4.26,4.31H275.3a4.28,4.28,0,0,1-4.25-4.31h0a4.28,4.28,0,0,1,4.25-4.31h14.37a4.29,4.29,0,0,1,4.26,4.31Z"/></g><polygon class="cls-11" points="326.3 170.74 311.71 170.74 311.71 195.05 326.3 195.05 326.3 170.74 326.3 170.74"/><path class="cls-5" d="M364.28,238.35a1.48,1.48,0,0,1-1.49,1.49h0a1.49,1.49,0,0,1-1.49-1.49v-4.24a1.49,1.49,0,0,1,1.49-1.49h0a1.49,1.49,0,0,1,1.49,1.49v4.24Z"/><path class="cls-5" d="M360,238.35a1.49,1.49,0,0,1-1.5,1.49h0a1.49,1.49,0,0,1-1.49-1.49v-4.24a1.49,1.49,0,0,1,1.49-1.49h0a1.5,1.5,0,0,1,1.5,1.49v4.24Z"/><path class="cls-5" d="M248.87,239.16a1.49,1.49,0,0,1-1.49,1.5h0a1.5,1.5,0,0,1-1.49-1.5v-4.23a1.49,1.49,0,0,1,1.49-1.49h0a1.48,1.48,0,0,1,1.49,1.49v4.23Z"/><path class="cls-5" d="M244,237.05a1.49,1.49,0,0,1-1.49,1.49h0a1.49,1.49,0,0,1-1.49-1.49v-4.24a1.48,1.48,0,0,1,1.49-1.49h0a1.49,1.49,0,0,1,1.49,1.49v4.24Z"/><polygon class="cls-11" points="243.35 235.2 250 235.2 302.88 191.88 356.1 235.2 362.75 235.2 362.79 235.13 303.12 186.08 243.35 235.2 243.35 235.2"/><polygon class="cls-12" points="250 235.2 250.94 235.2 250 235.2 250 299.27 356.1 299.27 356.1 235.2 355.33 235.2 356.1 235.2 302.88 191.88 250 235.2 250 235.2"/><polygon class="cls-13" points="299.88 288.26 260.74 288.26 260.74 245.57 299.88 245.57 299.88 288.26 299.88 288.26"/><polygon class="cls-13" points="345.37 288.26 306.22 288.26 306.22 245.57 345.37 245.57 345.37 288.26 345.37 288.26"/><path class="cls-5" d="M364.28,235.2a4.1,4.1,0,0,1-2.59-.93l-58.64-48.18-58.63,48.18a4.1,4.1,0,0,1-5.2-6.33l61.23-50.31a4.1,4.1,0,0,1,5.2,0l61.23,50.31a4.1,4.1,0,0,1-2.6,7.26Z"/><path class="cls-5" d="M295.79,188.47a6,6,0,1,1-6-6,6,6,0,0,1,6,6Z"/><path class="cls-5" d="M343.77,204.67a6,6,0,1,1-6-6,6,6,0,0,1,6,6Z"/><path class="cls-5" d="M362.34,221.38a3.86,3.86,0,1,1-3.86-3.85,3.86,3.86,0,0,1,3.86,3.85Z"/><path class="cls-5" d="M274,199.61a5.43,5.43,0,0,1-.68,7.65l-10.77,9a5.43,5.43,0,0,1-7.65-.68h0a5.43,5.43,0,0,1,.68-7.65l10.77-9a5.43,5.43,0,0,1,7.65.68Z"/><path class="cls-5" d="M311.45,182.69a4.32,4.32,0,0,0,.54,6.08l8.56,7.15a4.31,4.31,0,0,0,6.08-.54h0a4.32,4.32,0,0,0-.54-6.08l-8.56-7.15a4.31,4.31,0,0,0-6.08.54Z"/><path class="cls-5" d="M368.38,241.13a2.52,2.52,0,0,1-2.53,2.52h0a2.52,2.52,0,0,1-2.52-2.52v-9.79a2.52,2.52,0,0,1,2.52-2.53h0a2.53,2.53,0,0,1,2.53,2.53v9.79Z"/><path class="cls-5" d="M242.77,238.52a2.52,2.52,0,0,1-2.52,2.52h0a2.52,2.52,0,0,1-2.53-2.52v-7.18a2.53,2.53,0,0,1,2.53-2.53h0a2.52,2.52,0,0,1,2.52,2.53v7.18Z"/><path class="cls-5" d="M328.76,168.2a2.54,2.54,0,0,1-2.54,2.54H311.86a2.54,2.54,0,0,1-2.54-2.54h0a2.53,2.53,0,0,1,2.54-2.54h14.36a2.54,2.54,0,0,1,2.54,2.54Z"/><path class="cls-14" d="M335.86,282.19h-21c-2.72,0-3-.52-3-2.32V254.68c0-1.8.32-3.26,3-3.26h21.51c2.72,0,3.05,1,3.05,2.79v25.18c0,1.81-.33,2.8-3.05,2.8"/><polyline class="cls-15" points="311.81 271.75 311.81 266.96 332.79 251.6 338.91 252.55 311.81 271.75"/><path class="cls-15" d="M312.09,276.07c-.2-.07.16-.82,0-.94v-1.41l27.29-19v2.68l-27.29,18.7"/><path class="cls-14" d="M290.74,282.35h-21c-2.72,0-3.05-.52-3.05-2.33V254.84c0-1.8.33-3.26,3.05-3.26h21.51c2.72,0,3,1,3,2.79v25.18c0,1.81-.32,2.8-3,2.8"/><polyline class="cls-15" points="266.68 271.91 266.68 267.12 287.67 251.76 293.78 252.7 266.68 271.91"/><path class="cls-15" d="M267,276.23c-.19-.08.17-.82,0-.94v-1.41l27.29-19v2.69L267,276.23"/><path class="cls-5" d="M331.9,214.29a4.85,4.85,0,1,1-4.85-4.9,4.88,4.88,0,0,1,4.85,4.9Z"/><path class="cls-5" d="M347,228a3.13,3.13,0,1,1-3.12-3.16A3.14,3.14,0,0,1,347,228Z"/><path class="cls-5" d="M249.87,248.56a2,2,0,1,1-2.05-2.08,2.06,2.06,0,0,1,2.05,2.08Z"/><path class="cls-5" d="M235.36,189.61a1.46,1.46,0,0,0,0,2.92c1.19,0,1.3-1.23,1.3-1.45s-.11-1.47-1.3-1.47Z"/><path class="cls-5" d="M348.31,231.83a1.43,1.43,0,0,0-1.49,1.39,1.43,1.43,0,1,0,2.85,0c0-.15-.18-1.39-1.36-1.39Z"/><path class="cls-5" d="M293.53,160.48a1.34,1.34,0,0,0-1.37,1.55,1.28,1.28,0,0,0,1.37,1.4c1.16,0,1.26-1.21,1.26-1.4s-.1-1.55-1.26-1.55Z"/><path class="cls-5" d="M308.59,161.37c-1.22,0-1.38,1.3-1.38,1.41a1.41,1.41,0,0,0,1.38,1.47,1.28,1.28,0,0,0,1.3-1.47,1.3,1.3,0,0,0-1.3-1.41Z"/><path class="cls-5" d="M340,276a1.43,1.43,0,0,0,0,2.85,1.43,1.43,0,0,0,0-2.85Z"/><path class="cls-5" d="M311.81,232.69a1.42,1.42,0,0,0,0,2.84,1.42,1.42,0,0,0,0-2.84Z"/><path class="cls-5" d="M362.84,207.88a2.8,2.8,0,1,0,5.59,0c0-3.61-5.59-3.61-5.59,0Z"/><path class="cls-5" d="M352.09,270.14a1.28,1.28,0,0,0,1.34,1.46,1.44,1.44,0,0,0,0-2.87,1.28,1.28,0,0,0-1.34,1.41Z"/><path class="cls-5" d="M286.74,236.16a1.28,1.28,0,0,0,1.33,1.46,1.44,1.44,0,0,0,0-2.87,1.28,1.28,0,0,0-1.33,1.41Z"/><path class="cls-5" d="M320.45,284.52c-1.22,0-1.38,1.3-1.38,1.42a1.4,1.4,0,0,0,1.38,1.46,1.28,1.28,0,0,0,1.3-1.46,1.3,1.3,0,0,0-1.3-1.42Z"/><path class="cls-5" d="M258.59,198.58c-3.7,0-3.7,5.73,0,5.73s3.56-5.73,0-5.73Z"/><path class="cls-5" d="M277.54,177.61a1.43,1.43,0,1,0,1.33,1.42,1.27,1.27,0,0,0-1.33-1.42Z"/><path class="cls-5" d="M317.47,210.5c0-.37,0-1.55-1.16-1.55a1.33,1.33,0,0,0-1.38,1.55,1.24,1.24,0,0,0,1.38,1.37c1.16,0,1.16-1.11,1.16-1.37Z"/><path class="cls-5" d="M236.26,299.73V273.44a19.61,19.61,0,0,0-19.5,19.72,19.83,19.83,0,0,0,1.12,6.57Z"/><path class="cls-16" d="M254.64,299.73a19.83,19.83,0,0,0,1.12-6.57,19.61,19.61,0,0,0-19.5-19.72v26.29Z"/><path class="cls-5" d="M222.9,267.23a13.44,13.44,0,0,0,13.36,13.52v-27a13.44,13.44,0,0,0-13.36,13.52Z"/><path class="cls-16" d="M236.26,253.71v27a13.52,13.52,0,0,0,0-27Z"/><path class="cls-5" d="M228,248.13a8.27,8.27,0,0,0,8.22,8.32V239.81a8.27,8.27,0,0,0-8.22,8.32Z"/><path class="cls-16" d="M236.26,239.81v16.64a8.32,8.32,0,0,0,0-16.64Z"/><path class="cls-5" d="M228.14,271a3.16,3.16,0,0,1-3.14,3.17h-4.21a3.16,3.16,0,0,1-3.14-3.17v-5a3.17,3.17,0,0,1,3.14-3.18H225a3.17,3.17,0,0,1,3.14,3.18v5Z"/><path class="cls-5" d="M254.87,271a3.16,3.16,0,0,1-3.14,3.17h-4.21a3.16,3.16,0,0,1-3.14-3.17v-5a3.17,3.17,0,0,1,3.14-3.18h4.21a3.17,3.17,0,0,1,3.14,3.18v5Z"/><path class="cls-17" d="M238.15,272.24a1.89,1.89,0,1,1-1.89-1.91,1.9,1.9,0,0,1,1.89,1.91Z"/><path class="cls-17" d="M238.15,262.85a1.89,1.89,0,1,1-1.89-1.91,1.91,1.91,0,0,1,1.89,1.91Z"/><path class="cls-17" d="M235.35,247.1a.61.61,0,0,1-.61.61h-2.61a.61.61,0,0,1-.61-.61h0a.62.62,0,0,1,.61-.62h2.61a.62.62,0,0,1,.61.62Z"/><path class="cls-18" d="M241,247.1a.61.61,0,0,1-.61.61h-2.61a.61.61,0,0,1-.61-.61h0a.62.62,0,0,1,.61-.62h2.61a.62.62,0,0,1,.61.62Z"/><path class="cls-19" d="M241.45,250.48l-4.88-1.11a1.18,1.18,0,0,0-.5-.11,1.23,1.23,0,0,0,0,2.45,1.19,1.19,0,0,0,.5-.12l4.88-1.11Z"/><path class="cls-17" d="M232.05,240.17h-1.37a.86.86,0,0,0,0,1.72h5.58v-1.72Z"/><path class="cls-18" d="M241.84,240.17h-5.58v1.72h5.58a.86.86,0,0,0,0-1.72Z"/><path class="cls-18" d="M240.47,240.17v-3.69a2,2,0,0,0-2-2h-2.23v5.69Z"/><path class="cls-17" d="M236.26,234.48H234a2,2,0,0,0-2,2v3.69h4.21v-5.69Z"/><path class="cls-20" d="M268.92,87a1.22,1.22,0,0,0-.27-2.4c-28.39-.51-117.93,10-135,118.07,0,0-14.44,97.67,80,132.83a2.5,2.5,0,0,0,2.58-4.16c-17.27-16.58-50-60.9-41.9-128.67C174.28,202.63,178.73,110.73,268.92,87Z"/><ellipse class="cls-21" cx="259.81" cy="217.2" rx="132.78" ry="136.37"/><polygon class="cls-22" points="182.06 328.45 178.47 346.39 342.35 347.59 338.76 328.45 182.06 328.45"/><ellipse class="cls-23" cx="261.01" cy="386.47" rx="129.19" ry="23.33"/><path class="cls-24" d="M175.54,342.82l-6,40.13a3.5,3.5,0,0,0,3.33,4.12H351.44a2.55,2.55,0,0,0,2.43-3l-6.4-42.67a2.52,2.52,0,0,0-2.44-2.19H179.55A4.13,4.13,0,0,0,175.54,342.82Z"/><path class="cls-25" d="M179.55,339.22a4.13,4.13,0,0,0-4,3.6l-.18,1.18H347.85l-.39-2.59a2.49,2.49,0,0,0-2.43-2.19Z"/><g class="cls-26"><path class="cls-27" d="M216.75,353.57s0,7.18-6,6v10.77s7.17-1.2,6,7.18h94.5s-1.2-7.18,6-6V360.75s-7.18,0-6-7.18Z"/><circle class="cls-27" cx="200" cy="365.53" r="3.59"/><circle class="cls-27" cx="326.8" cy="366.73" r="3.59"/></g><path class="cls-27" d="M217.94,352.37s0,7.18-6,6v10.76s7.18-1.19,6,7.18h94.51s-1.2-7.18,6-6V359.55s-7.18,0-6-7.18Z"/><circle class="cls-27" cx="201.2" cy="364.34" r="3.59"/><circle class="cls-27" cx="328" cy="365.53" r="3.59"/><g class="cls-28"><path d="M236.57,369.77v-11h2.31a3.34,3.34,0,0,1,1.29.23,2.34,2.34,0,0,1,1.36,1.51,3.65,3.65,0,0,1,.15,1.05v.4a3.33,3.33,0,0,1-.07.76,2.17,2.17,0,0,1-.21.54,2.14,2.14,0,0,1-.8.74,1.76,1.76,0,0,1,.82.77,3.21,3.21,0,0,1,.26,1.4v.62A3.16,3.16,0,0,1,241,369a2.9,2.9,0,0,1-2.26.78Zm1.58-9.53v3h.71a1.18,1.18,0,0,0,1.06-.4,2,2,0,0,0,.27-1.15,1.73,1.73,0,0,0-.3-1.11,1.33,1.33,0,0,0-1.09-.37Zm0,4.42v3.53h.68a1.7,1.7,0,0,0,.75-.14.91.91,0,0,0,.41-.39,1.32,1.32,0,0,0,.17-.58q0-.34,0-.75a5,5,0,0,0,0-.72,1.33,1.33,0,0,0-.19-.53.85.85,0,0,0-.42-.32,1.86,1.86,0,0,0-.69-.1Z"/><path d="M243.07,361.35a2.92,2.92,0,0,1,.23-1.18,2.56,2.56,0,0,1,.62-.85,2.66,2.66,0,0,1,.85-.49,2.61,2.61,0,0,1,.95-.17,2.65,2.65,0,0,1,.95.17,3,3,0,0,1,.86.49,2.51,2.51,0,0,1,.6.85,2.76,2.76,0,0,1,.23,1.18v5.82a2.72,2.72,0,0,1-.23,1.19,2.39,2.39,0,0,1-.6.82,2.61,2.61,0,0,1-.86.51,2.89,2.89,0,0,1-.95.17,2.84,2.84,0,0,1-.95-.17,2.38,2.38,0,0,1-.85-.51,2.44,2.44,0,0,1-.62-.82,2.87,2.87,0,0,1-.23-1.19Zm1.58,5.82a1,1,0,0,0,.32.84,1.18,1.18,0,0,0,1.5,0,1,1,0,0,0,.32-.84v-5.82a1,1,0,0,0-.32-.84,1.18,1.18,0,0,0-1.5,0,1,1,0,0,0-.32.84Z"/><path d="M254.86,358.75v8.54a2.51,2.51,0,0,1-.19,1,2.48,2.48,0,0,1-.55.81,2.52,2.52,0,0,1-1.81.76,2.45,2.45,0,0,1-1-.2,2.55,2.55,0,0,1-.82-.56,2.64,2.64,0,0,1-.55-.81,2.35,2.35,0,0,1-.2-1v-8.54h1.57v8.39a1.18,1.18,0,0,0,.28.86,1,1,0,0,0,1.4,0,1.18,1.18,0,0,0,.27-.86v-8.39Z"/><path d="M256.35,369.77v-11h2.33a2.74,2.74,0,0,1,2.07.74,3,3,0,0,1,.71,2.11v5.15a3.07,3.07,0,0,1-.76,2.28,3,3,0,0,1-2.15.74Zm1.58-9.53v8h.72a1.19,1.19,0,0,0,1-.33,1.64,1.64,0,0,0,.28-1V361.6a1.64,1.64,0,0,0-.27-1,1.1,1.1,0,0,0-1-.35Z"/><path d="M270.83,366.63v.68a2.38,2.38,0,0,1-.19,1,2.64,2.64,0,0,1-1.33,1.38,2.33,2.33,0,0,1-1,.21,3.69,3.69,0,0,1-.92-.12,2.15,2.15,0,0,1-.83-.44,2.32,2.32,0,0,1-.61-.79,2.84,2.84,0,0,1-.24-1.25v-6.07a2.73,2.73,0,0,1,.18-1,2.47,2.47,0,0,1,.53-.81,2.42,2.42,0,0,1,.81-.53,2.68,2.68,0,0,1,1-.19,2.39,2.39,0,0,1,1.81.72,2.57,2.57,0,0,1,.54.85,2.81,2.81,0,0,1,.19,1.06v.62h-1.58v-.53a1.22,1.22,0,0,0-.26-.8.85.85,0,0,0-.71-.34.8.8,0,0,0-.78.36,1.93,1.93,0,0,0-.2.92v5.63a1.48,1.48,0,0,0,.21.81.84.84,0,0,0,.75.32,1.4,1.4,0,0,0,.34,0,1.19,1.19,0,0,0,.33-.18,1,1,0,0,0,.23-.34,1.42,1.42,0,0,0,.09-.54v-.54Z"/><path d="M271.4,369.77l2.46-11h1.32l2.46,11h-1.58l-.46-2.37h-2.15l-.47,2.37Zm3.9-3.86-.77-4h0l-.77,4Z"/><path d="M278.41,369.77v-11h2.31A3.27,3.27,0,0,1,282,359a2.49,2.49,0,0,1,.88.62,2.34,2.34,0,0,1,.48.89,3.65,3.65,0,0,1,.15,1.05v.4a3.33,3.33,0,0,1-.07.76,2.17,2.17,0,0,1-.21.54,2.14,2.14,0,0,1-.8.74,1.76,1.76,0,0,1,.82.77,3.21,3.21,0,0,1,.26,1.4v.62a3.16,3.16,0,0,1-.7,2.22,2.9,2.9,0,0,1-2.26.78Zm1.58-9.53v3h.71a1.18,1.18,0,0,0,1.06-.4,2,2,0,0,0,.27-1.15,1.73,1.73,0,0,0-.3-1.11,1.33,1.33,0,0,0-1.09-.37Zm0,4.42v3.53h.68a1.7,1.7,0,0,0,.75-.14.91.91,0,0,0,.41-.39,1.32,1.32,0,0,0,.17-.58q0-.34,0-.75a5,5,0,0,0,0-.72,1.19,1.19,0,0,0-.19-.53.87.87,0,0,0-.41-.32,2,2,0,0,0-.7-.1Z"/><path d="M285.05,369.77v-11h1.58v11Z"/><path d="M288.1,369.77v-11h1.52l2.38,6.64h0v-6.64h1.58v11h-1.49l-2.41-6.63h0v6.63Z"/></g><path class="cls-29" d="M237.45,368.91v-11h2.31a3.31,3.31,0,0,1,1.29.23,2.63,2.63,0,0,1,.88.62,2.34,2.34,0,0,1,.48.89,3.7,3.7,0,0,1,.15,1.05v.4a3.33,3.33,0,0,1-.07.76,2.17,2.17,0,0,1-.21.54,2.06,2.06,0,0,1-.8.74,1.78,1.78,0,0,1,.82.78,3.13,3.13,0,0,1,.26,1.39v.62a3.21,3.21,0,0,1-.7,2.23,2.94,2.94,0,0,1-2.26.77Zm1.58-9.53v3h.71a1.21,1.21,0,0,0,1.06-.39,2.07,2.07,0,0,0,.27-1.16,1.75,1.75,0,0,0-.3-1.11,1.33,1.33,0,0,0-1.09-.37Zm0,4.42v3.53h.68a1.7,1.7,0,0,0,.75-.14,1,1,0,0,0,.41-.38,1.4,1.4,0,0,0,.17-.59q0-.35,0-.75a5.1,5.1,0,0,0,0-.72,1.24,1.24,0,0,0-.19-.53.91.91,0,0,0-.42-.32,2.1,2.1,0,0,0-.69-.1Z"/><path class="cls-29" d="M244,360.49a2.87,2.87,0,0,1,.23-1.17,2.75,2.75,0,0,1,.62-.86,2.66,2.66,0,0,1,.85-.49,2.74,2.74,0,0,1,1.9,0,3,3,0,0,1,.86.49,2.55,2.55,0,0,1,.6.86,2.72,2.72,0,0,1,.23,1.17v5.82a2.72,2.72,0,0,1-.23,1.19,2.39,2.39,0,0,1-.6.82,2.75,2.75,0,0,1-2.76.51,2.38,2.38,0,0,1-.85-.51,2.57,2.57,0,0,1-.62-.82,2.87,2.87,0,0,1-.23-1.19Zm1.58,5.82a1,1,0,0,0,.32.84,1.18,1.18,0,0,0,1.5,0,1,1,0,0,0,.32-.84v-5.82a1,1,0,0,0-.32-.84,1.18,1.18,0,0,0-1.5,0,1,1,0,0,0-.32.84Z"/><path class="cls-29" d="M255.74,357.89v8.54a2.51,2.51,0,0,1-.19,1,2.38,2.38,0,0,1-.55.81,2.55,2.55,0,0,1-.82.56,2.37,2.37,0,0,1-1,.2,2.29,2.29,0,0,1-1-.2,2.74,2.74,0,0,1-1.37-1.37,2.35,2.35,0,0,1-.2-1v-8.54h1.58v8.39a1.23,1.23,0,0,0,.27.87,1,1,0,0,0,1.4,0,1.23,1.23,0,0,0,.28-.87v-8.39Z"/><path class="cls-29" d="M257.23,368.91v-11h2.34a2.73,2.73,0,0,1,2.06.74,3,3,0,0,1,.71,2.11v5.15a3.11,3.11,0,0,1-.75,2.28,3,3,0,0,1-2.16.74Zm1.58-9.53v8h.72a1.19,1.19,0,0,0,1-.33,1.64,1.64,0,0,0,.28-1v-5.31a1.66,1.66,0,0,0-.27-1,1.13,1.13,0,0,0-1-.35Z"/><path class="cls-29" d="M271.71,365.77v.68a2.47,2.47,0,0,1-.19,1,2.91,2.91,0,0,1-.53.81,2.63,2.63,0,0,1-.8.56,2.33,2.33,0,0,1-1,.21,3.69,3.69,0,0,1-.92-.12,2.2,2.2,0,0,1-.83-.43,2.46,2.46,0,0,1-.61-.8,2.84,2.84,0,0,1-.24-1.25v-6.06a2.79,2.79,0,0,1,.18-1,2.33,2.33,0,0,1,.53-.8,2.4,2.4,0,0,1,.81-.54,2.68,2.68,0,0,1,1-.19,2.4,2.4,0,0,1,1.82.73,2.56,2.56,0,0,1,.53.84,2.81,2.81,0,0,1,.19,1.06v.62h-1.58v-.53a1.24,1.24,0,0,0-.26-.8.83.83,0,0,0-.71-.34.8.8,0,0,0-.78.36,1.93,1.93,0,0,0-.2.92v5.63a1.48,1.48,0,0,0,.21.81.81.81,0,0,0,.75.32,1,1,0,0,0,.34-.05,1.06,1.06,0,0,0,.33-.18.88.88,0,0,0,.23-.34,1.38,1.38,0,0,0,.09-.54v-.54Z"/><path class="cls-29" d="M272.29,368.91l2.45-11h1.32l2.46,11h-1.58l-.46-2.37h-2.15l-.47,2.37Zm3.89-3.85-.77-4h0l-.77,4Z"/><path class="cls-29" d="M279.29,368.91v-11h2.31a3.27,3.27,0,0,1,1.29.23,2.63,2.63,0,0,1,.88.62,2.34,2.34,0,0,1,.48.89,3.7,3.7,0,0,1,.15,1.05v.4a3.33,3.33,0,0,1-.07.76,1.84,1.84,0,0,1-.21.54,2.06,2.06,0,0,1-.8.74,1.78,1.78,0,0,1,.82.78,3.13,3.13,0,0,1,.26,1.39v.62a3.21,3.21,0,0,1-.7,2.23,2.93,2.93,0,0,1-2.25.77Zm1.58-9.53v3h.71a1.21,1.21,0,0,0,1.06-.39,2.07,2.07,0,0,0,.28-1.16,1.69,1.69,0,0,0-.31-1.11,1.33,1.33,0,0,0-1.09-.37Zm0,4.42v3.53h.68a1.7,1.7,0,0,0,.75-.14,1,1,0,0,0,.41-.38,1.4,1.4,0,0,0,.17-.59c0-.23,0-.48,0-.75a5,5,0,0,0-.05-.72,1.24,1.24,0,0,0-.19-.53.94.94,0,0,0-.41-.32,2.21,2.21,0,0,0-.7-.1Z"/><path class="cls-29" d="M285.93,368.91v-11h1.58v11Z"/><path class="cls-29" d="M289,368.91v-11h1.52l2.38,6.64h0v-6.64h1.58v11H293l-2.41-6.62h0v6.62Z"/></g></svg>