<svg height="72" viewBox="0 0 72 72" width="72" xmlns="http://www.w3.org/2000/svg"><path d="m25.7539-.0001c.68 0 1.273.459 1.444 1.117l2.57 9.866c.065.143.103.299.12.462l.026.101h-.016c.001.019.005.036.005.054v5.515c.807.714 1.36 1.691 1.527 2.804h1.681c-.003-.318.018-.638.089-.956l1.058-4.782 1.465.324-1.058 4.783c-.233 1.05.176 2.142 1.042 2.781l3.38 2.496-.891 1.207-3.38-2.496c-.653-.481-1.134-1.131-1.419-1.857h-1.978c-.386 2.197-2.297 3.876-4.603 3.876h-22.131c-2.583 0-4.685-2.102-4.685-4.685 0-2.369 1.775-4.312 4.061-4.621v-2.676c0-1.774 1.443-3.217 3.217-3.217h2.497v-8.346c0-.965.786-1.75 1.75-1.75zm1.062 17.426h-22.131c-1.756 0-3.185 1.429-3.185 3.184 0 1.756 1.429 3.185 3.185 3.185h22.131c1.756 0 3.184-1.429 3.184-3.185 0-1.755-1.428-3.184-3.184-3.184zm-21.209.9231c1.202 0 2.18.978 2.18 2.18s-.978 2.18-2.18 2.18-2.18-.978-2.18-2.18.978-2.18 2.18-2.18zm6.7325 0c1.202 0 2.18.978 2.18 2.18s-.978 2.18-2.18 2.18-2.18-.978-2.18-2.18.978-2.18 2.18-2.18zm6.7324 0c1.202 0 2.18.978 2.18 2.18s-.978 2.18-2.18 2.18-2.18-.978-2.18-2.18.978-2.18 2.18-2.18zm6.7324 0c1.202 0 2.18.978 2.18 2.18s-.978 2.18-2.18 2.18-2.18-.978-2.18-2.18.978-2.18 2.18-2.18zm-20.1973 1.5c-.375 0-.68.305-.68.68s.305.68.68.68.68-.305.68-.68-.305-.68-.68-.68zm6.7325 0c-.375 0-.68.305-.68.68s.305.68.68.68.68-.305.68-.68-.305-.68-.68-.68zm6.7324 0c-.375 0-.68.305-.68.68s.305.68.68.68.68-.305.68-.68-.305-.68-.68-.68zm6.7324 0c-.375 0-.68.305-.68.68s.305.68.68.68.68-.305.68-.68-.305-.68-.68-.68zm-18.5263-8.2531c-.946 0-1.717.77-1.717 1.717v2.613h21.255c.56 0 1.089.115 1.587.296v-4.622zm9.439-10.098-5.192.002c-.137 0-.25.112-.25.25v8.296h5.442zm9.03-.004-7.53.003v8.549h9.757z" fill="#fff" fill-rule="evenodd" stroke="#fff" stroke-width=".3" transform="translate(16 23)"/></svg>