<svg height="72" viewBox="0 0 72 72" width="72" xmlns="http://www.w3.org/2000/svg"><g fill="#322a2e" fill-rule="evenodd" transform="translate(19 28)"><path d="m0 13.0043654c1.626-2.73 4.183-5.02000002 7.318-6.21000002 3.148-1.191 6.793-1.024 9.89.375 3.104 1.466 5.313 3.76000002 7.966 5.18500002 2.629 1.501 5.676 2.219 8.826 2.65-3.135.404-6.499.118-9.519-1.251-1.52-.641-2.893-1.56-4.21-2.426-1.304-.889-2.553-1.74900002-3.893-2.34000002-1.312-.641-2.759-.967-4.212-1.092-1.453-.15-2.926.005-4.365.377-2.874.795-5.535 2.52500002-7.801 4.73200002"/><path d="m0 0h34v1h-34z" stroke="#322a2e" stroke-width=".3"/></g></svg>