<svg height="72" viewBox="0 0 72 72" width="72" xmlns="http://www.w3.org/2000/svg"><g fill="#322a2e" fill-rule="evenodd" transform="translate(10 30)"><path d="m0 9.74098039c1.626-2.73 4.183-5.02 7.318-6.21 3.148-1.191 6.793-1.024 9.89.375 3.104 1.466 5.313 3.76 7.966 5.185 2.629 1.50100001 5.676 2.21900001 8.826 2.65000001-3.135.404-6.499.118-9.519-1.251-1.52-.64100001-2.893-1.56000001-4.21-2.42600001-1.304-.889-2.553-1.749-3.893-2.34-1.312-.641-2.759-.967-4.212-1.092-1.453-.15-2.926.005-4.365.377-2.874.795-5.535 2.525-7.801 4.732"/><path d="m23.5 6.24098039c2.538-.547 4.825-1.657 6.794-3.103l.717-.574.816-.615c.567-.385 1.155-.751 1.792-1.048 1.27-.587 2.706-.943 4.155-.897 1.446.061 2.86.462 4.09 1.117 1.234.662 2.309 1.532 3.256 2.364.989.821 1.924 1.703 2.925 2.412.976.749 2.156 1.139 3.455 1.344-1.269.248-2.698.102-3.938-.49-1.23-.576-2.312-1.307-3.383-2.021-1.101-.718-2.065-1.445-3.152-1.91-1.063-.507-2.188-.798-3.313-.819-1.128-.072-2.256.198-3.339.63-.547.207-1.075.485-1.597.784l-1.629 1.021c-2.334 1.346-5.04 2.09-7.649 1.805"/></g></svg>