<svg height="72" viewBox="0 0 72 72" width="72" xmlns="http://www.w3.org/2000/svg"><path d="m28.46172 23.54844c.2628.0192.4596.2484.4404.51-.0024.0288-.0552.7164-.324 1.3776-.4344 1.0644-1.4004 1.7016-2.5836 1.7016h-25.518c-.2628 0-.4764-.2136-.4764-.4776 0-.2628.2136-.4764.4764-.4764h20.8392c.7944 0 1.4136-.4032 1.7004-1.1076.21-.5148.2568-1.0812.2568-1.0872.0192-.2628.2436-.4608.5112-.4404.2616.0192.4584.2484.4392.51-.0012.0288-.0552.7164-.324 1.3776-.114.2808-.2676.5304-.4512.7476h2.5464c.7932 0 1.4136-.4032 1.7004-1.1076.21-.5148.2556-1.0812.2568-1.0872.018-.2628.2436-.4608.51-.4404zm-14.05032-18.51264c2.1957692.86423077 8.9447929 4.9991716 9.4607004 5.3159655l.0312996.0192345c.4404.246.6108.7956.3852 1.2468-.1172571.2345143-.3209143.4002612-.5535394.4753259l-.1184606.0298741-2.5968 13.2876-.9348-.1824 2.6004-13.314-7.4172-2.862-.972 4.4604.0018.0084.0018.0084 4.3176 4.38c.1830857.1861714.2965224.4270041.3251965.683958l.0072035.129642v5.7648c0 .768-.6216 1.3896-1.3884 1.3896-.7216941 0-1.3147682-.5506215-1.3820444-1.255687l-.0063556-.133913v-5.0436l-.006-.0132-4.7988-3.8436c-.59472-.476-.8873387-1.231104-.7773646-1.9774969l.0297646-.1597031 1.602-7.0788c.2148-.984 1.2432-1.7088 2.1888-1.3356zm-2.89632 11.7378c.6435.300375.9421172 1.0384453.7079854 1.6931294l-.0539854.1296706-2.8896 6.0408c-.31284706.6561882-1.09021453.9275792-1.73683599.6340924l-.11956401-.0616924-.11302436-.0737063c-.46869795-.3406994-.66074666-.949936-.47147128-1.4988434l.05049564-.1254503 2.8128-6.0756c.318-.684 1.1304-.9804 1.8132-.6624zm3.98688-16.77276c1.278 0 2.3136 1.0344 2.3136 2.3124s-1.0356 2.3136-2.3136 2.3136c-1.2768 0-2.3136-1.0356-2.3136-2.3136s1.0368-2.3124 2.3136-2.3124z" fill="#322a2e" fill-rule="evenodd" transform="translate(22 22)"/></svg>