<svg height="72" viewBox="0 0 72 72" width="72" xmlns="http://www.w3.org/2000/svg"><g fill="#fff" fill-rule="evenodd" stroke="#fff" stroke-width=".3" transform="translate(23 22)"><path d="m7.28624 9.613656h2.07376v-2.06544h-2.07376zm-6.24624 0h2.04256v-2.06544h-2.04256zm3.08256-3.10544h2.12368v-2.18192h-2.12368zm0 3.10544h2.12368v-2.06544h-2.12368zm-2.98584-5.28736h1.94584v2.18192h-2.04256v-1.30728c0-.29848.0364-.58968.09672-.87464zm-.09672 8.3928h8.32v-2.06544h-8.32zm6.24624 3.1044h2.07376v-2.0644h-2.07376zm-6.24624 0h2.04256v-2.0644h-2.04256zm3.08256 0h2.12368v-2.0644h-2.12368zm-1.3572 3.224-1.32912-2.184h7.5504l-1.35928 2.184zm2.40344 3.95304-1.77112-2.91304h3.5828zm4.1912-17.7996v1.30728h-2.07376v-2.18192h1.97704c.06032.28184.09672.57408.09672.87464zm-7.0928-2.95048c.7904-.78728 1.82624-1.22824 2.95672-1.20952 1.58808.00936 2.95256.9256 3.64624 2.24536h-7.34344c.19552-.3744.4316-.72904.74048-1.03584zm7.76776 1.03584h-.01144c-.76232-1.90944-2.61872-3.27288-4.79336-3.28536-1.41232-.01976-2.70816.52936-3.69616 1.51216-.99008.98384-1.534 2.2932-1.534 3.68784v11.30168l4.68 7.696v2.37016c0 .28704.23296.52.52.52s.52-.23296.52-.52v-2.4856l4.68-7.5244v-11.35784c0-.66352-.13624-1.29376-.36504-1.87824z"/><path d="m22.9892 24.839152c-.79144.78624-1.872 1.22824-2.95776 1.20952-1.58704-.00936-2.95152-.9256-3.6452-2.24536h7.34344c-.19656.3744-.43264.73008-.74048 1.03584zm-.81536-11.5076h2.04256v-2.06544h-2.04256zm-6.27744 0h2.07376v-2.06544h-2.07376zm3.11376 0h2.12368v-2.06544h-2.12368zm3.48088-5.2884 1.32808 2.18296h-7.54936l1.35824-2.18296zm-2.40448-3.95408 1.77216 2.91408h-3.58384zm-4.19016 12.34792h8.32v-2.06544h-8.32zm6.27744 3.10336h2.04256v-2.0644h-2.04256zm-3.16368 3.224h2.12368v-2.18296h-2.12368zm-3.11376-3.22296h2.07376v-2.0644h-2.07376zm3.11376-.00104h2.12368v-2.0644h-2.12368zm-3.11376 2.34832v-1.30728h2.07376v2.18192h-1.97704c-.06136-.28288-.09672-.57408-.09672-.87464zm8.22224.87464h-1.9448v-2.18192h2.04256v1.30728c0 .29848-.0364.58968-.09776.87464zm-3.54224-19.87232v-2.37016c0-.28808-.23296-.52-.52-.52-.28808 0-.52.23192-.52.52v2.4856l-4.68 7.5244v11.35784c0 .66352.13624 1.2948.36504 1.88032v.03432h.01144c.76232 1.90944 2.61976 3.27288 4.79232 3.28536h.03224c1.38216 0 2.6832-.53664 3.66496-1.51216.98904-.9828 1.534-2.2932 1.534-3.68784v-11.30168z"/></g></svg>