<?xml version="1.0" encoding="UTF-8"?>
<svg width="72px" height="72px" viewBox="0 0 72 72" version="1.1" xmlns="http://www.w3.org/2000/svg" xmlns:xlink="http://www.w3.org/1999/xlink">
    <!-- Generator: Sketch 58 (84663) - https://sketch.com -->
    <title>icons alone</title>
    <desc>Created with Sketch.</desc>
    <g id="icons-alone" stroke="none" stroke-width="1" fill="none" fill-rule="evenodd">
        <g id="Snowshoeing" transform="translate(23.000000, 22.000000)" fill="#FFFFFF" stroke="#FFFFFF" stroke-width="0.3">
            <g id="Group-4">
                <path d="M7.28624,9.613656 L9.36,9.613656 L9.36,7.548216 L7.28624,7.548216 L7.28624,9.613656 Z M1.04,9.613656 L3.08256,9.613656 L3.08256,7.548216 L1.04,7.548216 L1.04,9.613656 Z M4.12256,6.508216 L6.24624,6.508216 L6.24624,4.326296 L4.12256,4.326296 L4.12256,6.508216 Z M4.12256,9.613656 L6.24624,9.613656 L6.24624,7.548216 L4.12256,7.548216 L4.12256,9.613656 Z M1.13672,4.326296 L3.08256,4.326296 L3.08256,6.508216 L1.04,6.508216 L1.04,5.200936 C1.04,4.902456 1.0764,4.611256 1.13672,4.326296 L1.13672,4.326296 Z M1.04,12.719096 L9.36,12.719096 L9.36,10.653656 L1.04,10.653656 L1.04,12.719096 Z M7.28624,15.823496 L9.36,15.823496 L9.36,13.759096 L7.28624,13.759096 L7.28624,15.823496 Z M1.04,15.823496 L3.08256,15.823496 L3.08256,13.759096 L1.04,13.759096 L1.04,15.823496 Z M4.12256,15.823496 L6.24624,15.823496 L6.24624,13.759096 L4.12256,13.759096 L4.12256,15.823496 Z M2.76536,19.047496 L1.43624,16.863496 L8.98664,16.863496 L7.62736,19.047496 L2.76536,19.047496 Z M5.1688,23.000536 L3.39768,20.087496 L6.98048,20.087496 L5.1688,23.000536 Z M9.36,5.200936 L9.36,6.508216 L7.28624,6.508216 L7.28624,4.326296 L9.26328,4.326296 C9.3236,4.608136 9.36,4.900376 9.36,5.200936 L9.36,5.200936 Z M2.2672,2.250456 C3.0576,1.463176 4.09344,1.022216 5.22392,1.040936 C6.812,1.050296 8.17648,1.966536 8.87016,3.286296 L1.52672,3.286296 C1.72224,2.911896 1.95832,2.557256 2.2672,2.250456 L2.2672,2.250456 Z M10.03496,3.286296 L10.02352,3.286296 C9.2612,1.376856 7.4048,0.013416 5.23016,0.000936 C3.81784,-0.018824 2.522,0.530296 1.534,1.513096 C0.54392,2.496936 0,3.806296 0,5.200936 L0,16.502616 L4.68,24.198616 L4.68,26.568776 C4.68,26.855816 4.91296,27.088776 5.2,27.088776 C5.48704,27.088776 5.72,26.855816 5.72,26.568776 L5.72,24.083176 L10.4,16.558776 L10.4,5.200936 C10.4,4.537416 10.26376,3.907176 10.03496,3.322696 L10.03496,3.286296 Z" id="Fill-1"></path>
                <path d="M22.9892,24.839152 C22.19776,25.625392 21.1172,26.067392 20.03144,26.048672 C18.4444,26.039312 17.07992,25.123072 16.38624,23.803312 L23.72968,23.803312 C23.53312,24.177712 23.29704,24.533392 22.9892,24.839152 L22.9892,24.839152 Z M22.17384,13.331552 L24.2164,13.331552 L24.2164,11.266112 L22.17384,11.266112 L22.17384,13.331552 Z M15.8964,13.331552 L17.97016,13.331552 L17.97016,11.266112 L15.8964,11.266112 L15.8964,13.331552 Z M19.01016,13.331552 L21.13384,13.331552 L21.13384,11.266112 L19.01016,11.266112 L19.01016,13.331552 Z M22.49104,8.043152 L23.81912,10.226112 L16.26976,10.226112 L17.628,8.043152 L22.49104,8.043152 Z M20.08656,4.089072 L21.85872,7.003152 L18.27488,7.003152 L20.08656,4.089072 Z M15.8964,16.436992 L24.2164,16.436992 L24.2164,14.371552 L15.8964,14.371552 L15.8964,16.436992 Z M22.17384,19.540352 L24.2164,19.540352 L24.2164,17.475952 L22.17384,17.475952 L22.17384,19.540352 Z M19.01016,22.764352 L21.13384,22.764352 L21.13384,20.581392 L19.01016,20.581392 L19.01016,22.764352 Z M15.8964,19.541392 L17.97016,19.541392 L17.97016,17.476992 L15.8964,17.476992 L15.8964,19.541392 Z M19.01016,19.540352 L21.13384,19.540352 L21.13384,17.475952 L19.01016,17.475952 L19.01016,19.540352 Z M15.8964,21.888672 L15.8964,20.581392 L17.97016,20.581392 L17.97016,22.763312 L15.99312,22.763312 C15.93176,22.480432 15.8964,22.189232 15.8964,21.888672 L15.8964,21.888672 Z M24.11864,22.763312 L22.17384,22.763312 L22.17384,20.581392 L24.2164,20.581392 L24.2164,21.888672 C24.2164,22.187152 24.18,22.478352 24.11864,22.763312 L24.11864,22.763312 Z M20.5764,2.890992 L20.5764,0.520832 C20.5764,0.232752 20.34344,0.000832 20.0564,0.000832 C19.76832,0.000832 19.5364,0.232752 19.5364,0.520832 L19.5364,3.006432 L14.8564,10.530832 L14.8564,21.888672 C14.8564,22.552192 14.99264,23.183472 15.22144,23.768992 L15.22144,23.803312 L15.23288,23.803312 C15.9952,25.712752 17.85264,27.076192 20.0252,27.088672 L20.05744,27.088672 C21.4396,27.088672 22.74064,26.552032 23.7224,25.576512 C24.71144,24.593712 25.2564,23.283312 25.2564,21.888672 L25.2564,10.586992 L20.5764,2.890992 Z" id="Fill-3"></path>
            </g>
        </g>
    </g>
</svg>