<svg height="72" viewBox="0 0 72 72" width="72" xmlns="http://www.w3.org/2000/svg"><path d="m11.5428571.22857143c.2857143.05714286.5142858.4.4.68571428l-1.1922857 4.76723083 2.963 5.13999996 2.963-5.13999996-1.248-4.71008797c-.0571428-.28571428.1142857-.62857143.4-.68571428.2857143-.05714286.6285715.11428571.6857143.4l.9462857 3.63680225 2.1965715-3.80823083c.1714285-.28571428.5142857-.34285714.8-.22857142.2857142.17142857.3428571.51428571.2285714.8l-2.0161429 3.49580225 3.159-.81008797c.2857143-.05714286.6285715.11428572.6857143.4.0571429.28571429-.1142857.62857143-.4.68571429l-4.2437143 1.11037368-3.148 5.46099996h6.476l3.3157143-3.31423079c.2285714-.22857142.5714286-.22857142.8 0 .2285714.22857143.2285714.57142858 0 .8l-2.5157143 2.51423079 3.83.0000549c.3428572 0 .5714286.2285715.5714286.5714286s-.2285714.5714286-.5714286.5714286l-3.83-.0009121 2.5157143 2.5151978c.2285714.2285714.2285714.5714286 0 .8-.1142857.1142857-.2285714.1714286-.4.1714286s-.2857143-.0571429-.4-.1714286l-3.3157143-3.3151978h-6.476l3.177 5.511 4.2718572 1.1184835c.2857143.0571429.5142857.4.4.6857143-.0571429.2857143-.4.4571428-.6857143.4l-3.1871429-.8181978 1.9871429 3.4467692c.1714286.2857143.0571428.6285714-.2285714.8-.1142858.0571429-.1714286.0571429-.2857143.0571429-.1714286 0-.4-.1142857-.5142857-.2857143l-2.1475715-3.7231978-.9381428 3.6089121c-.1142857.2285714-.3428572.4-.5714286.4h-.1714286c-.2857143-.0571429-.5142857-.4-.4-.6857143l1.2571429-4.7428572.0018571-.0073406-2.974-5.158-2.972468 5.157011.0017537.0083296 1.2571429 4.7428572c.0571429.2857143-.1142857.6285714-.4.6857143h-.1714286c-.2285714 0-.4571428-.1714286-.5714285-.4l-.93957147-3.6089121-2.14614286 3.7231978c-.11428571.1714286-.34285714.2857143-.51428571.2857143-.11428572 0-.17142857 0-.28571429-.0571429-.28571428-.1714286-.34285714-.5142857-.22857143-.8l1.98671429-3.4477692-3.18671429.8191978c-.28571428.0571428-.62857143-.1142857-.68571428-.4-.05714286-.2857143.11428571-.6285714.4-.6857143l4.27142857-1.1194835 3.17699997-5.51h-6.47699997l-3.31428572 3.3151978c-.11428571.1142857-.22857142.1714286-.4.1714286-.17142857 0-.28571428-.0571429-.4-.1714286-.22857142-.2285714-.22857142-.5714286 0-.8l2.51428572-2.5151978-3.82857143.0009121c-.34285714 0-.57142857-.2285715-.57142857-.5714286s.22857143-.5714286.57142857-.5714286l3.82857143-.0000549-2.51428572-2.51423079c-.22857142-.22857142-.22857142-.57142857 0-.8.22857143-.22857142.57142858-.22857142.8 0l3.31428572 3.31423079h6.47699997l-3.12799997-5.42499996-4.37757143-1.14637368c-.28571429-.11428572-.45714286-.4-.4-.74285715.05714286-.28571428.4-.51428571.68571429-.4l3.25385714.83523083-1.99671429-3.46380225c-.17142857-.28571429-.05714285-.62857143.22857143-.8.28571429-.17142858.62857143-.05714286.8.22857142l2.11214286 3.66423083.97357147-3.54994511c.0571428-.28571429.4-.51428572.6857142-.4z" fill="#322a2e" stroke="#322a2e" stroke-width=".5" transform="translate(22 24)"/></svg>