<svg enable-background="new 0 0 72 72" viewBox="0 0 72 72" xmlns="http://www.w3.org/2000/svg"><g fill="#322a2e"><path d="m20.9 52.9c-.8 0-1.4-.2-1.6-.6-.4-.7.3-1.7.7-2.1v-.2c.1-.1.2-.2.4-.1 2.5 1.3 8.2.6 17.2-2h.1c3.5.4 7.2.1 11.2-1.1.1 0 .1-.1.2-.1.1-.1.2-.1.3-.1s.2.1.2.2c1.2 2.3 2 4 1.3 5.1-.4.7-1.3 1-2.8 1h-27c-.1 0-.1 0-.2 0zm-.5-2.3c-.3.4-.7 1.1-.5 1.5.1.3.6.4 1.3.3h26.9c1.3 0 2-.3 2.3-.7.5-.8-.2-2.4-1.1-4.3-.1 0-.1.1-.1.1-4.1 1.2-7.8 1.6-11.4 1.1-9.1 2.5-14.7 3.2-17.4 2z"/><path d="m23.9 51.2c-1.6 0-2.9-.3-3.8-.7-.1-.1-.1-.1-.1-.1-.9-1.8-1.7-4.5 1.6-6.4.4-.2.8-.3 1.1-.5.1-.1.2-.1.3 0s.2.1.2.2c.3 1.5.7 2.8 1.6 4.1.7-.3 1.3-.5 2-.8l.6-.3c-.8-1.1-1.7-2.5-2.1-4.2-.1-.1.1-.3.2-.3.8-.4 1.6-.9 2.5-1.5.1-.1.2-.1.3 0s.2.1.2.2c.3 2 1 3.7 2.3 5.1.8-.5 1.7-1 2.6-1.5-1.5-1.4-2.6-3.1-3.2-5-.1-.1 0-.2.1-.3 1.1-.8 2-1.6 2.8-2.4-.2.2-.1.2 0 .2s.2.1.2.1l.4.5c1.4 1.8 2.8 3.7 4.4 5 1.8 1.4 3 2 3.9 1.8 1-.3 1.7-1.6 2.6-3.5l.1-.3c.7-1.6 1.7-3.1 2.8-4.7l.1-.1c.1-.1.2-.1.3-.1s.2.1.2.2c1.5 5.4 2.8 10.8 1.1 11.3-4.1 1.2-7.8 1.6-11.3 1.1-6.3 2-10.9 2.9-14 2.9zm-3.4-1.2c2.5 1.3 8.3.6 17.1-2h.1c3.5.4 7.2.1 11.2-1.1 1.3-.4-.5-7-1.4-10.1-1 1.4-1.8 2.7-2.5 4.1v.3c-.9 2-1.6 3.5-2.9 3.8-1 .3-2.4-.4-4.3-1.9-1.7-1.4-3.1-3.3-4.5-5.1l-.3-.3c-.7.6-1.5 1.3-2.5 2 .6 1.9 1.8 3.6 3.3 4.9.1.1.1.2.1.3s-.1.2-.2.2h-.2c-1 .6-2 1.1-3 1.7-.1.1-.3.1-.3-.1-1.3-1.4-2.2-3.1-2.5-5.2-.7.4-1.3.8-1.9 1.1.4 1.7 1.4 3 2.2 4.1.1.1.1.2.1.3s-.1.2-.2.2l-.9.3c-.7.3-1.5.6-2.2.8-.1.1-.3 0-.3-.1-.8-1.4-1.4-2.7-1.7-4.2-.3.1-.6.2-.8.3-2.3 1.4-2.7 3.1-1.5 5.7z"/><path d="m41.5 45c-1 0-2.2-.6-3.9-2s-3.1-3.3-4.5-5.1l-.4-.5-.1-.1c-.2-.5-.3-1-.5-1.5 0-.1 0-.2.1-.3s.1-.1.2-.1c2.1-.1 4.2-.5 6.4-1.3-.3-.9-.5-1.8-.5-2.7-2.2.8-4.4 1.3-6.7 1.3-.1 0-.2-.1-.3-.2-.2-.5-.3-1-.4-1.5l-.1-.3c0-.1 0-.2.1-.2.1-.1.2-.1.2-.1h.2c2.5 0 4.8-.5 7.4-1.6-.4-1.1-.6-2.2-.7-3.3-2.6.9-4.9 1.4-7.6 1.5-.2 0-.3-.1-.3-.3-.2-1.1-.3-2.2-.4-3.2-.1-.4-.1-.8.2-1.1.5-.7 1.9-.8 3.8-.9 2.2-.2 5.2-.4 7.9-1.8l.7-.4c.7-.4 1.4-.7 2.2-1.1s1.4-.6 1.8-.3.5 1 .6 2.2c.2 5.1.8 9.6 1.7 13.5.3 1.1.2 1.4-.3 1.9-.2.2-.3.4-.6.7-1.1 1.5-2 3-2.8 4.5l-.1.3c-.9 2-1.6 3.5-2.9 3.8 0 .2-.2.2-.4.2zm-8.3-7.9.4.5c1.4 1.8 2.8 3.7 4.4 5 1.8 1.4 3 2 3.9 1.8 1-.3 1.7-1.6 2.6-3.5l.1-.3c.7-1.6 1.7-3.1 2.8-4.7.3-.3.5-.5.6-.7.4-.4.4-.5.2-1.4-1-4-1.6-8.5-1.8-13.6-.1-.7-.1-1.6-.3-1.8-.2-.1-.7.1-1.3.4-.8.4-1.5.7-2.1 1.1l-.7.4c-2.9 1.4-6 1.6-8.2 1.8-1.7.1-3 .2-3.3.7-.1.2-.2.4-.1.7.1 1 .3 2 .4 3 2.6-.1 4.9-.6 7.5-1.6.1-.1.2 0 .3 0 .1.1.1.1.1.2.1 1.3.3 2.5.7 3.8.1.2 0 .3-.2.4-2.6 1.1-5 1.6-7.5 1.7.1.4.2.8.3 1.2 2.3-.1 4.5-.5 6.7-1.4.1-.1.2 0 .3 0 .1.1.1.1.1.2.1 1 .3 2 .6 3.2.1.2-.1.3-.2.4-2.1.7-4.3 1.2-6.4 1.4-.1.4 0 .7.1 1.1z"/><path d="m24.6 48.4c-.1 0-.2-.1-.2-.1-1-1.5-1.6-3.1-1.8-4.9 0-.1 0-.2.1-.3.9-.7 1.7-1.1 2.6-1.4.1 0 .2 0 .2.1.1.1.1.1.1.2.4 2 1.4 3.6 2.4 4.8v.3c0 .1-.1.2-.2.2l-.9.4c-.7.3-1.5.6-2.2.8 0-.1 0-.1-.1-.1zm-1.5-4.9c.3 1.6.8 3 1.6 4.3.7-.3 1.3-.5 2-.8l.6-.3c-.8-1.1-1.8-2.6-2.2-4.4-.6.3-1.3.6-2 1.2zm7.4 3.2c-.1 0-.2-.1-.2-.1-1.5-1.7-2.4-3.7-2.6-6 0-.1 0-.2.1-.2.6-.7 1.3-1.4 2.1-1.8.1-.1.2-.1.3 0s.2.1.2.2c.6 2.2 1.8 4.2 3.6 5.6.1.1.1.2.1.3s-.1.2-.2.2l-.3.1c-1 .6-2 1.1-3 1.7zm-2.3-6c.3 2.1 1 3.9 2.4 5.4.8-.5 1.7-1 2.6-1.5-1.6-1.5-2.7-3.2-3.3-5.3-.8.4-1.3.9-1.7 1.4z"/><path d="m32 36c-.1 0-.2-.1-.3-.2-.4-1-.6-2.1-.6-3.3 0-.1 0-.2.1-.2s.1-.1.2-.1c2.5.1 4.9-.4 7.1-1.4.1-.1.2 0 .3 0 .1.1.1.1.1.2.1 1 .3 2 .6 3.2.1.2-.1.3-.2.4-2.5.9-4.9 1.3-7.3 1.4zm-.4-3.3c.1.9.3 1.8.5 2.7 2.2-.1 4.4-.5 6.7-1.3-.3-.9-.5-1.8-.5-2.7-2.1.9-4.4 1.3-6.7 1.3zm-.2-1.7c-.2 0-.4 0-.6 0-.1 0-.2-.1-.3-.2-.4-1.3-.7-2.6-.7-3.9 0-.1 0-.2.1-.2.1-.1.1-.1.2-.1 2.9-.1 5.3-.6 8.1-1.6.1-.1.2 0 .3 0 .1.1.1.1.1.2.1 1.3.3 2.5.7 3.8.1.2 0 .3-.2.4-2.7 1.1-5.1 1.6-7.7 1.6zm-.4-.6c2.7.1 5-.4 7.7-1.5-.4-1.1-.6-2.2-.7-3.3-2.6.9-4.9 1.4-7.6 1.5.1 1.2.3 2.2.6 3.3z"/><path d="m40.7 42.2c-1.5 0-2.7-1.2-2.7-2.7s1.2-2.6 2.7-2.6 2.6 1.2 2.6 2.6c.1 1.5-1.1 2.7-2.6 2.7zm0-4.7c-1.1 0-2.1.9-2.1 2.1 0 1.1.9 2.1 2.1 2.1 1.1 0 2.1-.9 2.1-2.1s-.9-2.1-2.1-2.1z"/><path d="m40.7 41.3c-.9 0-1.7-.8-1.7-1.7s.8-1.7 1.7-1.7 1.7.8 1.7 1.7c.1.9-.7 1.7-1.7 1.7zm0-2.9c-.7 0-1.2.5-1.2 1.1s.5 1.2 1.2 1.2c.6 0 1.1-.5 1.1-1.2.1-.6-.4-1.1-1.1-1.1z"/></g></svg>