<?xml version="1.0" encoding="utf-8"?>
<svg version="1.1" id="Layer_1" xmlns="http://www.w3.org/2000/svg" xmlns:xlink="http://www.w3.org/1999/xlink" x="0px" y="0px"
	 viewBox="0 0 72 72" style="enable-background:new 0 0 72 72;" xml:space="preserve">
<style type="text/css">
	.st0{fill:#322a2e;}
</style>
<g>
	<path class="st0" d="M20.9,52.9c-0.8,0-1.4-0.2-1.6-0.6c-0.4-0.7,0.3-1.7,0.7-2.1L20,50c0.1-0.1,0.2-0.2,0.4-0.1
		c2.5,1.3,8.2,0.6,17.2-2h0.1c3.5,0.4,7.2,0.1,11.2-1.1c0.1,0,0.1-0.1,0.2-0.1c0.1-0.1,0.2-0.1,0.3-0.1c0.1,0,0.2,0.1,0.2,0.2
		c1.2,2.3,2,4,1.3,5.1c-0.4,0.7-1.3,1-2.8,1H21.1C21,52.9,21,52.9,20.9,52.9z M20.4,50.6c-0.3,0.4-0.7,1.1-0.5,1.5
		c0.1,0.3,0.6,0.4,1.3,0.3h26.9c1.3,0,2-0.3,2.3-0.7c0.5-0.8-0.2-2.4-1.1-4.3c-0.1,0-0.1,0.1-0.1,0.1c-4.1,1.2-7.8,1.6-11.4,1.1
		C28.7,51.1,23.1,51.8,20.4,50.6z"/>
	<path class="st0" d="M23.9,51.2c-1.6,0-2.9-0.3-3.8-0.7c-0.1-0.1-0.1-0.1-0.1-0.1c-0.9-1.8-1.7-4.5,1.6-6.4
		c0.4-0.2,0.8-0.3,1.1-0.5c0.1-0.1,0.2-0.1,0.3,0c0.1,0.1,0.2,0.1,0.2,0.2c0.3,1.5,0.7,2.8,1.6,4.1c0.7-0.3,1.3-0.5,2-0.8l0.6-0.3
		c-0.8-1.1-1.7-2.5-2.1-4.2c-0.1-0.1,0.1-0.3,0.2-0.3c0.8-0.4,1.6-0.9,2.5-1.5c0.1-0.1,0.2-0.1,0.3,0c0.1,0.1,0.2,0.1,0.2,0.2
		c0.3,2,1,3.7,2.3,5.1c0.8-0.5,1.7-1,2.6-1.5c-1.5-1.4-2.6-3.1-3.2-5c-0.1-0.1,0-0.2,0.1-0.3c1.1-0.8,2-1.6,2.8-2.4
		C32.9,37,33,37,33.1,37c0.1,0,0.2,0.1,0.2,0.1l0.4,0.5c1.4,1.8,2.8,3.7,4.4,5c1.8,1.4,3,2,3.9,1.8c1-0.3,1.7-1.6,2.6-3.5l0.1-0.3
		c0.7-1.6,1.7-3.1,2.8-4.7l0.1-0.1c0.1-0.1,0.2-0.1,0.3-0.1c0.1,0,0.2,0.1,0.2,0.2c1.5,5.4,2.8,10.8,1.1,11.3
		c-4.1,1.2-7.8,1.6-11.3,1.1C31.6,50.3,27,51.2,23.9,51.2L23.9,51.2z M20.5,50c2.5,1.3,8.3,0.6,17.1-2h0.1c3.5,0.4,7.2,0.1,11.2-1.1
		c1.3-0.4-0.5-7-1.4-10.1c-1,1.4-1.8,2.7-2.5,4.1L45,41.2c-0.9,2-1.6,3.5-2.9,3.8c-1,0.3-2.4-0.4-4.3-1.9c-1.7-1.4-3.1-3.3-4.5-5.1
		L33,37.7c-0.7,0.6-1.5,1.3-2.5,2c0.6,1.9,1.8,3.6,3.3,4.9c0.1,0.1,0.1,0.2,0.1,0.3c0,0.1-0.1,0.2-0.2,0.2h-0.2c-1,0.6-2,1.1-3,1.7
		c-0.1,0.1-0.3,0.1-0.3-0.1c-1.3-1.4-2.2-3.1-2.5-5.2c-0.7,0.4-1.3,0.8-1.9,1.1c0.4,1.7,1.4,3,2.2,4.1c0.1,0.1,0.1,0.2,0.1,0.3
		s-0.1,0.2-0.2,0.2L27,47.5c-0.7,0.3-1.5,0.6-2.2,0.8c-0.1,0.1-0.3,0-0.3-0.1c-0.8-1.4-1.4-2.7-1.7-4.2c-0.3,0.1-0.6,0.2-0.8,0.3
		C19.7,45.7,19.3,47.4,20.5,50z"/>
	<path class="st0" d="M41.5,45c-1,0-2.2-0.6-3.9-2c-1.7-1.4-3.1-3.3-4.5-5.1l-0.4-0.5l-0.1-0.1c-0.2-0.5-0.3-1-0.5-1.5
		c0-0.1,0-0.2,0.1-0.3c0.1-0.1,0.1-0.1,0.2-0.1c2.1-0.1,4.2-0.5,6.4-1.3c-0.3-0.9-0.5-1.8-0.5-2.7c-2.2,0.8-4.4,1.3-6.7,1.3
		c-0.1,0-0.2-0.1-0.3-0.2c-0.2-0.5-0.3-1-0.4-1.5l-0.1-0.3c0-0.1,0-0.2,0.1-0.2c0.1-0.1,0.2-0.1,0.2-0.1h0.2c2.5,0,4.8-0.5,7.4-1.6
		c-0.4-1.1-0.6-2.2-0.7-3.3c-2.6,0.9-4.9,1.4-7.6,1.5c-0.2,0-0.3-0.1-0.3-0.3c-0.2-1.1-0.3-2.2-0.4-3.2c-0.1-0.4-0.1-0.8,0.2-1.1
		c0.5-0.7,1.9-0.8,3.8-0.9c2.2-0.2,5.2-0.4,7.9-1.8l0.7-0.4c0.7-0.4,1.4-0.7,2.2-1.1c0.8-0.4,1.4-0.6,1.8-0.3s0.5,1,0.6,2.2
		c0.2,5.1,0.8,9.6,1.7,13.5c0.3,1.1,0.2,1.4-0.3,1.9c-0.2,0.2-0.3,0.4-0.6,0.7c-1.1,1.5-2,3-2.8,4.5l-0.1,0.3
		c-0.9,2-1.6,3.5-2.9,3.8C41.9,45,41.7,45,41.5,45z M33.2,37.1l0.4,0.5c1.4,1.8,2.8,3.7,4.4,5c1.8,1.4,3,2,3.9,1.8
		c1-0.3,1.7-1.6,2.6-3.5l0.1-0.3c0.7-1.6,1.7-3.1,2.8-4.7c0.3-0.3,0.5-0.5,0.6-0.7c0.4-0.4,0.4-0.5,0.2-1.4c-1-4-1.6-8.5-1.8-13.6
		c-0.1-0.7-0.1-1.6-0.3-1.8c-0.2-0.1-0.7,0.1-1.3,0.4c-0.8,0.4-1.5,0.7-2.1,1.1l-0.7,0.4c-2.9,1.4-6,1.6-8.2,1.8
		c-1.7,0.1-3,0.2-3.3,0.7c-0.1,0.2-0.2,0.4-0.1,0.7c0.1,1,0.3,2,0.4,3c2.6-0.1,4.9-0.6,7.5-1.6c0.1-0.1,0.2,0,0.3,0
		c0.1,0.1,0.1,0.1,0.1,0.2c0.1,1.3,0.3,2.5,0.7,3.8c0.1,0.2,0,0.3-0.2,0.4c-2.6,1.1-5,1.6-7.5,1.7c0.1,0.4,0.2,0.8,0.3,1.2
		c2.3-0.1,4.5-0.5,6.7-1.4c0.1-0.1,0.2,0,0.3,0c0.1,0.1,0.1,0.1,0.1,0.2c0.1,1,0.3,2,0.6,3.2c0.1,0.2-0.1,0.3-0.2,0.4
		c-2.1,0.7-4.3,1.2-6.4,1.4C33,36.4,33.1,36.7,33.2,37.1L33.2,37.1z"/>
	<path class="st0" d="M24.6,48.4c-0.1,0-0.2-0.1-0.2-0.1c-1-1.5-1.6-3.1-1.8-4.9c0-0.1,0-0.2,0.1-0.3c0.9-0.7,1.7-1.1,2.6-1.4
		c0.1,0,0.2,0,0.2,0.1c0.1,0.1,0.1,0.1,0.1,0.2c0.4,2,1.4,3.6,2.4,4.8C28,46.9,28,47,28,47.1c0,0.1-0.1,0.2-0.2,0.2l-0.9,0.4
		c-0.7,0.3-1.5,0.6-2.2,0.8C24.7,48.4,24.7,48.4,24.6,48.4z M23.1,43.5c0.3,1.6,0.8,3,1.6,4.3c0.7-0.3,1.3-0.5,2-0.8l0.6-0.3
		c-0.8-1.1-1.8-2.6-2.2-4.4C24.5,42.6,23.8,42.9,23.1,43.5z M30.5,46.7c-0.1,0-0.2-0.1-0.2-0.1c-1.5-1.7-2.4-3.7-2.6-6
		c0-0.1,0-0.2,0.1-0.2c0.6-0.7,1.3-1.4,2.1-1.8c0.1-0.1,0.2-0.1,0.3,0c0.1,0.1,0.2,0.1,0.2,0.2c0.6,2.2,1.8,4.2,3.6,5.6
		c0.1,0.1,0.1,0.2,0.1,0.3c0,0.1-0.1,0.2-0.2,0.2L33.6,45c-1,0.6-2,1.1-3,1.7C30.6,46.7,30.5,46.7,30.5,46.7z M28.2,40.7
		c0.3,2.1,1,3.9,2.4,5.4c0.8-0.5,1.7-1,2.6-1.5c-1.6-1.5-2.7-3.2-3.3-5.3C29.1,39.7,28.6,40.2,28.2,40.7z"/>
	<path class="st0" d="M32,36c-0.1,0-0.2-0.1-0.3-0.2c-0.4-1-0.6-2.1-0.6-3.3c0-0.1,0-0.2,0.1-0.2s0.1-0.1,0.2-0.1
		c2.5,0.1,4.9-0.4,7.1-1.4c0.1-0.1,0.2,0,0.3,0c0.1,0.1,0.1,0.1,0.1,0.2c0.1,1,0.3,2,0.6,3.2c0.1,0.2-0.1,0.3-0.2,0.4
		C36.8,35.5,34.4,35.9,32,36z M31.6,32.7c0.1,0.9,0.3,1.8,0.5,2.7c2.2-0.1,4.4-0.5,6.7-1.3c-0.3-0.9-0.5-1.8-0.5-2.7
		C36.2,32.3,33.9,32.7,31.6,32.7z M31.4,31c-0.2,0-0.4,0-0.6,0c-0.1,0-0.2-0.1-0.3-0.2c-0.4-1.3-0.7-2.6-0.7-3.9
		c0-0.1,0-0.2,0.1-0.2c0.1-0.1,0.1-0.1,0.2-0.1c2.9-0.1,5.3-0.6,8.1-1.6c0.1-0.1,0.2,0,0.3,0c0.1,0.1,0.1,0.1,0.1,0.2
		c0.1,1.3,0.3,2.5,0.7,3.8c0.1,0.2,0,0.3-0.2,0.4C36.4,30.5,34,31,31.4,31z M31,30.4c2.7,0.1,5-0.4,7.7-1.5
		c-0.4-1.1-0.6-2.2-0.7-3.3c-2.6,0.9-4.9,1.4-7.6,1.5C30.5,28.3,30.7,29.3,31,30.4z"/>
	<path class="st0" d="M40.7,42.2c-1.5,0-2.7-1.2-2.7-2.7s1.2-2.6,2.7-2.6s2.6,1.2,2.6,2.6C43.4,41,42.2,42.2,40.7,42.2z M40.7,37.5
		c-1.1,0-2.1,0.9-2.1,2.1c0,1.1,0.9,2.1,2.1,2.1c1.1,0,2.1-0.9,2.1-2.1C42.8,38.4,41.9,37.5,40.7,37.5z"/>
	<path class="st0" d="M40.7,41.3c-0.9,0-1.7-0.8-1.7-1.7c0-0.9,0.8-1.7,1.7-1.7s1.7,0.8,1.7,1.7C42.5,40.5,41.7,41.3,40.7,41.3z
		 M40.7,38.4c-0.7,0-1.2,0.5-1.2,1.1c0,0.6,0.5,1.2,1.2,1.2c0.6,0,1.1-0.5,1.1-1.2C41.9,38.9,41.4,38.4,40.7,38.4z"/>
</g>
</svg>
