<svg viewBox="0 0 512 512" xmlns="http://www.w3.org/2000/svg" xmlns:xlink="http://www.w3.org/1999/xlink"><radialGradient id="a" cx="256.15" cy="211.97" gradientTransform="matrix(.95 0 0 .99 14.42 6.6)" gradientUnits="userSpaceOnUse" r="138.67"><stop offset="0" stop-color="#fff"/><stop offset=".32" stop-color="#f1f1f1"/><stop offset=".91" stop-color="#cdcdcd"/><stop offset=".93" stop-color="#ccc"/></radialGradient><clipPath id="b"><ellipse cx="260.09" cy="216.86" rx="133.41" ry="134.97"/></clipPath><ellipse cx="259" cy="217" rx="132" ry="136.5"/><ellipse cx="259" cy="217" fill="url(#a)" opacity=".2" rx="133.5" ry="136.5"/><ellipse cx="260.09" cy="216.86" fill="#e6e6e6" opacity=".1" rx="133.41" ry="134.97"/><g clip-path="url(#b)"><g fill="#fff" opacity=".44"><path d="m310.68 300.22-33.16-135.91c-1.39-5.9-4.65-6.43-4.65-6.43s-3.25.53-4.65 6.43l-33.16 135.91s-3 8.62 8.13 8.62h59.36c11.14 0 8.13-8.62 8.13-8.62z"/><path d="m386.83 311.05-28-114.64c-1.18-5-3.93-5.43-3.93-5.43s-2.74.44-3.92 5.43l-27.98 114.64s-2.54 7.27 6.85 7.27h50.15c9.4 0 6.86-7.27 6.86-7.27z"/><path d="m272.44 305.76-28-114.65c-1.18-5-3.93-5.42-3.93-5.42s-2.74.44-3.92 5.42l-28 114.65s-2.54 7.27 6.86 7.27h50.07c9.4 0 6.86-7.27 6.86-7.27z"/><path d="m190.65 295.09-28-114.64c-1.18-5-3.92-5.43-3.92-5.43s-2.75.45-3.93 5.43l-28 114.64s-2.54 7.27 6.86 7.27h50.14c9.39 0 6.85-7.27 6.85-7.27z"/></g><path d="m189 135.59-33.16 135.9s-3 8.62 8.13 8.62h29.68v-151s-3.25.53-4.65 6.44z" fill="#2e8d4b"/><path d="m231.47 271.49-33.15-135.9c-1.4-5.91-4.66-6.44-4.66-6.44v151h29.69c11.14 0 8.12-8.62 8.12-8.62z" fill="#1c7d3a"/><path d="m314 142.24a4.85 4.85 0 1 1 -4.85-4.9 4.88 4.88 0 0 1 4.85 4.9z" fill="#fff"/><path d="m184.61 280.11v18.5h9.05v-18.5z" fill="#7a5728"/><path d="m202.72 280.11h-9.06v18.5h9.06z" fill="#6b4d22"/><path d="m366 298.67h-212a135.08 135.08 0 0 0 18.09 19.54h175.8a135.08 135.08 0 0 0 18.11-19.54z" fill="#fff"/><path d="m347.89 318.21h-175.8a132.25 132.25 0 0 0 175.8 0z" fill="#dbf6ff"/><g fill="#fff"><path d="m195.43 210.54a1.29 1.29 0 0 0 -1.35 1.46 1.31 1.31 0 0 0 1.35 1.46c1.19 0 1.3-1.24 1.3-1.46s-.11-1.46-1.3-1.46z"/><path d="m176 195a1.29 1.29 0 0 0 -1.36 1.46 1.31 1.31 0 0 0 1.36 1.44c1.18 0 1.29-1.24 1.29-1.46s-.12-1.44-1.29-1.44z"/><path d="m208.31 270.82a1.36 1.36 0 0 0 -1.36 1.53 1.28 1.28 0 0 0 1.36 1.43c1.17 0 1.28-1.19 1.28-1.43s-.11-1.53-1.28-1.53z"/><path d="m139.59 220.88c0-.38 0-1.55-1.16-1.55a1.32 1.32 0 0 0 -1.38 1.55 1.24 1.24 0 0 0 1.38 1.37c1.16 0 1.16-1.12 1.16-1.37z"/><path d="m245 234.64a1.43 1.43 0 0 0 0 2.86 1.43 1.43 0 0 0 0-2.86z"/><path d="m248.19 148.67a1.43 1.43 0 0 0 0 2.86 1.43 1.43 0 0 0 0-2.86z"/><path d="m267.64 109.78a1.43 1.43 0 0 0 0 2.86 1.43 1.43 0 0 0 0-2.86z"/><path d="m180.35 230.08a1.43 1.43 0 0 0 0 2.86 1.43 1.43 0 0 0 0-2.86z"/><path d="m175.94 169.25a1.46 1.46 0 0 0 0-2.91c-1.17 0-1.3 1.18-1.3 1.45s.13 1.46 1.3 1.46z"/><path d="m190.72 159.13a1.45 1.45 0 0 0 0-2.9c-1.16 0-1.3 1.17-1.3 1.45s.14 1.45 1.3 1.45z"/><path d="m237.12 159a1.3 1.3 0 0 0 -1.28-1.43 1.27 1.27 0 0 0 -1.3 1.43 1.25 1.25 0 0 0 1.3 1.39 1.28 1.28 0 0 0 1.28-1.39z"/><path d="m185.78 148.85a1.3 1.3 0 0 0 -1.28-1.43 1.27 1.27 0 0 0 -1.31 1.43 1.25 1.25 0 0 0 1.31 1.4 1.29 1.29 0 0 0 1.28-1.4z"/><path d="m164.75 300.72a1.46 1.46 0 0 0 0 2.92c1.19 0 1.3-1.24 1.3-1.45s-.11-1.47-1.3-1.47z"/><path d="m152.29 263.42a1.3 1.3 0 0 0 -1.29-1.42 1.27 1.27 0 0 0 -1.29 1.43 1.24 1.24 0 0 0 1.29 1.39 1.28 1.28 0 0 0 1.28-1.39z"/><path d="m157.19 162.06c.18-.05-.14-.09 0 0z"/><path d="m157.29 162.14-.1-.08h-.07a.3.3 0 0 1 .17.08z"/><path d="m157 178.89a1.26 1.26 0 0 0 -1.34 1.39 1.36 1.36 0 1 0 1.34-1.39z"/><path d="m152.5 172.28a1.3 1.3 0 0 0 -1.38 1.45 1.28 1.28 0 0 0 1.38 1.43 1.35 1.35 0 0 0 1.3-1.43c0-.25-.14-1.45-1.3-1.45z"/><path d="m218.38 108.11a1.46 1.46 0 0 0 0-2.91c-1.17 0-1.3 1.18-1.3 1.45s.13 1.46 1.3 1.46z"/><path d="m199.41 117.75a1.41 1.41 0 0 0 0 2.82 1.41 1.41 0 0 0 0-2.82z"/><path d="m194.93 111.14a1.29 1.29 0 0 0 -1.37 1.45 1.28 1.28 0 0 0 1.37 1.43 1.35 1.35 0 0 0 1.3-1.43c0-.25-.13-1.45-1.3-1.45z"/><path d="m229.46 130.82c-3.7 0-3.7 5.75 0 5.75 3.55 0 3.55-5.75 0-5.75z"/><path d="m238.8 99.71c-3.7 0-3.7 5.74 0 5.74 3.54 0 3.54-5.74 0-5.74z"/><path d="m274.32 147.41a1.43 1.43 0 0 0 0 2.85 1.43 1.43 0 0 0 0-2.85z"/><path d="m291.43 96.07a1.42 1.42 0 0 0 0 2.84 1.42 1.42 0 0 0 0-2.84z"/><path d="m360 163.11a1.4 1.4 0 0 0 -1.36 1.4 1.38 1.38 0 0 0 1.36 1.49 1.42 1.42 0 0 0 0-2.84z"/><path d="m363.05 173.19a1.27 1.27 0 0 0 1.33 1.44 1.4 1.4 0 0 0 1.36-1.44 1.42 1.42 0 0 0 -1.36-1.42 1.28 1.28 0 0 0 -1.33 1.42z"/><path d="m327.28 129.63a1.34 1.34 0 0 0 -1.37 1.55 1.29 1.29 0 0 0 1.37 1.41c1.17 0 1.27-1.22 1.27-1.41s-.1-1.55-1.27-1.55z"/><path d="m327.28 115.62a1.34 1.34 0 0 0 -1.37 1.55 1.29 1.29 0 0 0 1.37 1.42c1.17 0 1.27-1.22 1.27-1.42s-.1-1.55-1.27-1.55z"/><path d="m286.42 141.57a1.28 1.28 0 0 0 1.34 1.45 1.44 1.44 0 0 0 0-2.87 1.28 1.28 0 0 0 -1.34 1.42z"/><path d="m228.86 93.34a1.28 1.28 0 0 0 1.33 1.45 1.44 1.44 0 0 0 0-2.87 1.28 1.28 0 0 0 -1.33 1.42z"/><path d="m303.78 111.65a1.28 1.28 0 0 0 1.34 1.45 1.44 1.44 0 0 0 0-2.87 1.28 1.28 0 0 0 -1.34 1.42z"/><path d="m280.44 120.2a1.28 1.28 0 0 0 1.34 1.45 1.41 1.41 0 0 0 1.36-1.45 1.42 1.42 0 0 0 -1.36-1.42 1.28 1.28 0 0 0 -1.34 1.42z"/><path d="m219.43 176.44a1.28 1.28 0 0 0 1.33 1.45 1.4 1.4 0 0 0 1.36-1.45 1.42 1.42 0 0 0 -1.36-1.42 1.28 1.28 0 0 0 -1.33 1.42z"/><path d="m348.41 139.41a1.43 1.43 0 0 0 0 2.85 1.43 1.43 0 0 0 0-2.85z"/><path d="m372.5 153.41c-1.19 0-1.35 1.24-1.35 1.55s.16 1.43 1.35 1.43a1.28 1.28 0 0 0 1.31-1.43c0-.31 0-1.55-1.31-1.55z"/><path d="m335.82 153.08a2.8 2.8 0 1 0 5.59 0c0-3.61-5.59-3.61-5.59 0z"/><path d="m136.79 203c0 3.64 3.39 3.64 3.39 0s-3.39-3.57-3.39 0z"/><path d="m164.43 153.6c0 3.64 5.62 3.64 5.62 0s-5.62-3.58-5.62 0z"/><path d="m172.21 129.48c0 3.64 5.62 3.64 5.62 0s-5.62-3.57-5.62 0z"/><path d="m256.59 114.27a1.28 1.28 0 0 0 1.33 1.46 1.44 1.44 0 0 0 0-2.87 1.27 1.27 0 0 0 -1.33 1.41z"/><path d="m179 254.42c-3.7 0-3.7 5.73 0 5.73s3.57-5.73 0-5.73z"/><path d="m158.79 233.41c-3.71 0-3.71 5.74 0 5.74s3.56-5.74 0-5.74z"/><path d="m263.24 90.5c-3.7 0-3.7 5.74 0 5.74s3.57-5.74 0-5.74z"/><path d="m255.83 332.41a4.29 4.29 0 0 1 -4.26 4.31h-36.4a4.28 4.28 0 0 1 -4.25-4.31 4.27 4.27 0 0 1 4.25-4.3h36.4a4.28 4.28 0 0 1 4.26 4.3z"/><path d="m291.93 332.41a4.29 4.29 0 0 1 -4.26 4.31h-14.37a4.28 4.28 0 0 1 -4.25-4.31 4.27 4.27 0 0 1 4.25-4.3h14.37a4.28 4.28 0 0 1 4.26 4.3z"/></g></g><path d="m324.3 170.22h-14.59v24.31h14.59z" fill="#ae392d"/><path d="m362.28 237.83a1.49 1.49 0 0 1 -1.49 1.5 1.5 1.5 0 0 1 -1.49-1.5v-4.23a1.5 1.5 0 0 1 1.49-1.5 1.49 1.49 0 0 1 1.49 1.5z" fill="#fff"/><path d="m358 237.83a1.5 1.5 0 0 1 -1.5 1.5 1.5 1.5 0 0 1 -1.49-1.5v-4.23a1.5 1.5 0 0 1 1.49-1.5 1.5 1.5 0 0 1 1.5 1.5z" fill="#fff"/><path d="m246.87 238.65a1.49 1.49 0 0 1 -1.49 1.49 1.49 1.49 0 0 1 -1.49-1.49v-4.24a1.49 1.49 0 0 1 1.49-1.49 1.49 1.49 0 0 1 1.49 1.49z" fill="#fff"/><path d="m242 236.53a1.49 1.49 0 0 1 -1.49 1.49 1.5 1.5 0 0 1 -1.5-1.49v-4.24a1.5 1.5 0 0 1 1.5-1.49 1.49 1.49 0 0 1 1.49 1.49z" fill="#fff"/><path d="m241.35 234.68h6.65l52.87-43.32 53.23 43.32h6.65l.04-.07-59.68-49.05z" fill="#ae392d"/><path d="m248 234.68h.94-.94v64.07h106.1v-64.07h-.77.77l-53.23-43.32z" fill="#e64c3c"/><path d="m297.88 287.74h-39.14v-42.69h39.14z" fill="#d34232"/><path d="m343.37 287.74h-39.15v-42.69h39.15z" fill="#d34232"/><g fill="#fff"><path d="m362.28 234.68a4.07 4.07 0 0 1 -2.6-.93l-58.63-48.18-58.63 48.18a4.1 4.1 0 0 1 -5.2-6.33l61.23-50.31a4.1 4.1 0 0 1 5.2 0l61.23 50.31a4.1 4.1 0 0 1 -2.6 7.26z"/><path d="m293.79 188a6 6 0 1 1 -6-6 6 6 0 0 1 6 6z"/><path d="m341.77 204.15a6 6 0 1 1 -6-6 6 6 0 0 1 6 6z"/><path d="m360.34 220.86a3.86 3.86 0 1 1 -3.86-3.85 3.85 3.85 0 0 1 3.86 3.85z"/><path d="m272 199.09a5.43 5.43 0 0 1 -.68 7.65l-10.77 9a5.44 5.44 0 0 1 -7.65-.69 5.43 5.43 0 0 1 .68-7.65l10.77-9a5.44 5.44 0 0 1 7.65.68z"/><path d="m309.45 182.17a4.31 4.31 0 0 0 .54 6.08l8.56 7.15a4.31 4.31 0 0 0 6.08-.54 4.32 4.32 0 0 0 -.54-6.08l-8.56-7.15a4.31 4.31 0 0 0 -6.08.54z"/><path d="m366.38 240.61a2.52 2.52 0 0 1 -2.53 2.52 2.52 2.52 0 0 1 -2.52-2.52v-9.79a2.52 2.52 0 0 1 2.52-2.53 2.53 2.53 0 0 1 2.53 2.53z"/><path d="m240.77 238a2.52 2.52 0 0 1 -2.52 2.52 2.52 2.52 0 0 1 -2.53-2.52v-7.18a2.53 2.53 0 0 1 2.53-2.53 2.52 2.52 0 0 1 2.52 2.53z"/><path d="m326.76 167.68a2.54 2.54 0 0 1 -2.54 2.54h-14.36a2.54 2.54 0 0 1 -2.54-2.54 2.53 2.53 0 0 1 2.54-2.54h14.36a2.54 2.54 0 0 1 2.54 2.54z"/></g><path d="m333.86 281.67h-21c-2.72 0-3-.52-3-2.32v-25.19c0-1.8.32-3.26 3-3.26h21.51c2.72 0 3.05 1 3.05 2.79v25.19c0 1.8-.33 2.79-3.05 2.79" fill="#88d3e3"/><path d="m309.81 271.23v-4.79l20.98-15.35 6.12.94z" fill="#c0e6f0"/><path d="m310.09 275.55c-.2-.07.16-.82 0-.94v-1.41l27.29-19v2.69l-27.29 18.69" fill="#c0e6f0"/><path d="m288.74 281.83h-21c-2.72 0-3.05-.52-3.05-2.33v-25.18c0-1.8.33-3.26 3.05-3.26h21.51c2.72 0 3 1 3 2.79v25.15c0 1.81-.32 2.8-3 2.8" fill="#88d3e3"/><path d="m264.68 271.39v-4.79l20.99-15.36 6.11.95z" fill="#c0e6f0"/><path d="m265 275.71c-.19-.07.17-.82 0-.94v-1.41l27.29-19v2.64z" fill="#c0e6f0"/><g fill="#fff"><path d="m329.9 213.77a4.85 4.85 0 1 1 -4.85-4.9 4.88 4.88 0 0 1 4.85 4.9z"/><path d="m345 227.5a3.13 3.13 0 1 1 -3.12-3.16 3.15 3.15 0 0 1 3.12 3.16z"/><path d="m247.87 248a2 2 0 1 1 -2.05-2.08 2.06 2.06 0 0 1 2.05 2.08z"/><path d="m233.36 189.09a1.46 1.46 0 0 0 0 2.92c1.19 0 1.3-1.23 1.3-1.45s-.11-1.47-1.3-1.47z"/><path d="m346.31 231.31a1.43 1.43 0 0 0 -1.49 1.39 1.43 1.43 0 1 0 2.85 0c0-.15-.18-1.39-1.36-1.39z"/><path d="m291.53 160a1.34 1.34 0 0 0 -1.37 1.55 1.29 1.29 0 0 0 1.37 1.41c1.16 0 1.26-1.22 1.26-1.41s-.1-1.55-1.26-1.55z"/><path d="m306.59 160.85c-1.22 0-1.38 1.3-1.38 1.41a1.41 1.41 0 0 0 1.38 1.47 1.28 1.28 0 0 0 1.3-1.47 1.3 1.3 0 0 0 -1.3-1.41z"/><path d="m338 275.47a1.43 1.43 0 0 0 0 2.85 1.43 1.43 0 0 0 0-2.85z"/><path d="m309.81 232.17a1.42 1.42 0 0 0 0 2.84 1.42 1.42 0 0 0 0-2.84z"/><path d="m360.84 207.36a2.8 2.8 0 1 0 5.59 0c0-3.61-5.59-3.61-5.59 0z"/><path d="m350.09 269.63a1.28 1.28 0 0 0 1.34 1.45 1.41 1.41 0 0 0 1.36-1.45 1.42 1.42 0 0 0 -1.36-1.42 1.28 1.28 0 0 0 -1.34 1.42z"/><path d="m284.73 235.65a1.28 1.28 0 0 0 1.34 1.45 1.41 1.41 0 0 0 1.36-1.45 1.42 1.42 0 0 0 -1.36-1.42 1.28 1.28 0 0 0 -1.34 1.42z"/><path d="m318.45 284c-1.22 0-1.38 1.3-1.38 1.42a1.4 1.4 0 0 0 1.38 1.46 1.28 1.28 0 0 0 1.3-1.46 1.3 1.3 0 0 0 -1.3-1.42z"/><path d="m256.59 198.06c-3.71 0-3.71 5.73 0 5.73s3.56-5.73 0-5.73z"/><path d="m275.54 177.09a1.43 1.43 0 1 0 1.33 1.42 1.27 1.27 0 0 0 -1.33-1.42z"/><path d="m315.47 210c0-.37 0-1.55-1.16-1.55a1.33 1.33 0 0 0 -1.38 1.55 1.24 1.24 0 0 0 1.38 1.37c1.16 0 1.16-1.11 1.16-1.37z"/><path d="m234.26 299.22v-26.3a19.61 19.61 0 0 0 -19.5 19.72 19.89 19.89 0 0 0 1.12 6.58z"/></g><path d="m252.64 299.22a19.89 19.89 0 0 0 1.12-6.58 19.61 19.61 0 0 0 -19.5-19.72v26.3z" fill="#c9e0da"/><path d="m220.9 266.71a13.44 13.44 0 0 0 13.36 13.52v-27a13.44 13.44 0 0 0 -13.36 13.52z" fill="#fff"/><path d="m234.26 253.19v27a13.52 13.52 0 0 0 0-27z" fill="#c9e0da"/><path d="m226 247.61a8.27 8.27 0 0 0 8.22 8.32v-16.64a8.27 8.27 0 0 0 -8.22 8.32z" fill="#fff"/><path d="m234.26 239.29v16.64a8.32 8.32 0 0 0 0-16.64z" fill="#c9e0da"/><path d="m226.14 270.46a3.17 3.17 0 0 1 -3.14 3.18h-4.21a3.17 3.17 0 0 1 -3.14-3.18v-4.95a3.16 3.16 0 0 1 3.14-3.17h4.21a3.16 3.16 0 0 1 3.14 3.17z" fill="#fff"/><path d="m252.87 270.46a3.17 3.17 0 0 1 -3.14 3.18h-4.21a3.17 3.17 0 0 1 -3.14-3.18v-4.95a3.16 3.16 0 0 1 3.14-3.17h4.21a3.16 3.16 0 0 1 3.14 3.17z" fill="#fff"/><path d="m236.15 271.72a1.89 1.89 0 1 1 -1.89-1.91 1.91 1.91 0 0 1 1.89 1.91z" fill="#58595b"/><path d="m236.15 262.34a1.89 1.89 0 1 1 -1.89-1.92 1.91 1.91 0 0 1 1.89 1.92z" fill="#58595b"/><path d="m233.35 246.58a.62.62 0 0 1 -.61.62h-2.61a.62.62 0 0 1 -.61-.62.62.62 0 0 1 .61-.62h2.61a.62.62 0 0 1 .61.62z" fill="#58595b"/><path d="m239 246.58a.61.61 0 0 1 -.6.62h-2.61a.62.62 0 0 1 -.61-.62.62.62 0 0 1 .61-.62h2.61a.61.61 0 0 1 .6.62z" fill="#4f5052"/><path d="m239.45 250-4.88-1.11a1.18 1.18 0 0 0 -.5-.11 1.23 1.23 0 0 0 0 2.45 1.19 1.19 0 0 0 .5-.12z" fill="#ff9e53"/><path d="m230.05 239.65h-1.37a.86.86 0 0 0 0 1.72h5.58v-1.72z" fill="#58595b"/><path d="m239.84 239.65h-5.58v1.72h5.58a.86.86 0 0 0 0-1.72z" fill="#4f5052"/><path d="m238.47 239.65v-3.65a2 2 0 0 0 -2-2h-2.23v5.69z" fill="#4f5052"/><path d="m234.26 234h-2.26a2 2 0 0 0 -2 2v3.69h4.21v-5.69z" fill="#58595b"/><path d="m266.92 86.44a1.22 1.22 0 0 0 -.27-2.4c-28.39-.51-117.93 10-135 118.08 0 0-14.45 97.67 80 132.82a2.5 2.5 0 0 0 2.58-4.16c-17.27-16.58-50-60.89-41.9-128.66-.05 0 4.4-91.9 94.59-115.68z" fill="#f2f2f2" opacity=".15"/><ellipse cx="257.81" cy="216.68" fill="none" opacity=".65" rx="132.78" ry="136.37" stroke="#fff" stroke-miterlimit="10" stroke-width="3.4"/><path d="m180.06 327.93-3.59 17.95 163.88 1.19-3.59-19.14z" fill="#5a3a1b"/><ellipse cx="259.01" cy="385.95" fill="#b3b3b3" opacity=".66" rx="129.19" ry="23.33"/><path d="m173.54 342.3-6 40.14a3.5 3.5 0 0 0 3.33 4.11h178.57a2.55 2.55 0 0 0 2.43-3l-6.41-42.67a2.5 2.5 0 0 0 -2.46-2.18h-165.45a4.13 4.13 0 0 0 -4.01 3.6z" fill="#704d2e"/><path d="m177.55 338.7a4.13 4.13 0 0 0 -4 3.6l-.18 1.18h172.48l-.39-2.59a2.5 2.5 0 0 0 -2.46-2.19z" fill="#745638"/><g fill="#eebc5a" opacity=".2"><path d="m214.75 353.05s0 7.18-6 6v10.75s7.17-1.2 6 7.18h94.5s-1.2-7.18 6-6v-10.75s-7.18 0-6-7.18z"/><circle cx="198" cy="365.01" r="3.59"/><circle cx="324.8" cy="366.21" r="3.59"/></g><path d="m215.94 351.86s0 7.17-6 6v10.74s7.18-1.19 6 7.18h94.51s-1.2-7.18 6-6v-10.78s-7.18 0-6-7.17z" fill="#eebc5a"/><circle cx="199.2" cy="363.82" fill="#eebc5a" r="3.59"/><circle cx="326" cy="365.01" fill="#eebc5a" r="3.59"/><g opacity=".05"><path d="m234.57 369.25v-11h2.31a3.34 3.34 0 0 1 1.29.23 2.49 2.49 0 0 1 .87.62 2.36 2.36 0 0 1 .49.89 3.7 3.7 0 0 1 .15 1v.4a3.33 3.33 0 0 1 -.07.76 2 2 0 0 1 -.21.54 2.06 2.06 0 0 1 -.8.74 1.78 1.78 0 0 1 .82.78 3.13 3.13 0 0 1 .26 1.39v.62a3.26 3.26 0 0 1 -.7 2.23 2.94 2.94 0 0 1 -2.26.77zm1.58-9.53v3h.71a1.21 1.21 0 0 0 1.06-.39 2.07 2.07 0 0 0 .27-1.16 1.75 1.75 0 0 0 -.3-1.11 1.33 1.33 0 0 0 -1.09-.37zm0 4.42v3.53h.68a1.7 1.7 0 0 0 .75-.14 1 1 0 0 0 .41-.38 1.4 1.4 0 0 0 .17-.59q0-.35 0-.75a5.1 5.1 0 0 0 0-.72 1.39 1.39 0 0 0 -.19-.53.91.91 0 0 0 -.42-.32 2.1 2.1 0 0 0 -.69-.1z"/><path d="m241.07 360.83a2.87 2.87 0 0 1 .23-1.17 2.6 2.6 0 0 1 .62-.86 2.66 2.66 0 0 1 .85-.49 2.84 2.84 0 0 1 .95-.17 2.89 2.89 0 0 1 .95.17 3 3 0 0 1 .86.49 2.55 2.55 0 0 1 .6.86 2.72 2.72 0 0 1 .23 1.17v5.82a2.72 2.72 0 0 1 -.23 1.19 2.39 2.39 0 0 1 -.6.82 2.61 2.61 0 0 1 -.86.51 2.65 2.65 0 0 1 -.95.17 2.61 2.61 0 0 1 -.95-.17 2.38 2.38 0 0 1 -.85-.51 2.44 2.44 0 0 1 -.62-.82 2.87 2.87 0 0 1 -.23-1.19zm1.58 5.82a1 1 0 0 0 .32.84 1.18 1.18 0 0 0 1.5 0 1 1 0 0 0 .32-.84v-5.82a1 1 0 0 0 -.32-.84 1.18 1.18 0 0 0 -1.5 0 1 1 0 0 0 -.32.84z"/><path d="m252.86 358.23v8.54a2.51 2.51 0 0 1 -.19 1 2.38 2.38 0 0 1 -.55.81 2.55 2.55 0 0 1 -.82.56 2.37 2.37 0 0 1 -1 .2 2.29 2.29 0 0 1 -1-.2 2.64 2.64 0 0 1 -1.37-1.37 2.35 2.35 0 0 1 -.2-1v-8.54h1.57v8.39a1.23 1.23 0 0 0 .28.87 1 1 0 0 0 1.4 0 1.23 1.23 0 0 0 .27-.87v-8.39z"/><path d="m254.35 369.25v-11h2.33a2.74 2.74 0 0 1 2.07.74 3 3 0 0 1 .7 2.11v5.15a3.07 3.07 0 0 1 -.75 2.28 3 3 0 0 1 -2.15.74zm1.58-9.53v8h.72a1.19 1.19 0 0 0 1-.33 1.64 1.64 0 0 0 .28-1v-5.31a1.66 1.66 0 0 0 -.27-1 1.13 1.13 0 0 0 -1-.35z"/><path d="m268.83 366.11v.68a2.47 2.47 0 0 1 -.19 1 2.73 2.73 0 0 1 -.54.81 2.47 2.47 0 0 1 -.79.56 2.33 2.33 0 0 1 -1 .21 3.69 3.69 0 0 1 -.92-.12 2.13 2.13 0 0 1 -.83-.43 2.64 2.64 0 0 1 -.62-.8 3 3 0 0 1 -.23-1.25v-6.06a2.79 2.79 0 0 1 .18-1 2.2 2.2 0 0 1 .53-.8 2.3 2.3 0 0 1 .81-.54 2.68 2.68 0 0 1 1-.19 2.36 2.36 0 0 1 1.81.73 2.53 2.53 0 0 1 .54.84 2.81 2.81 0 0 1 .19 1.06v.62h-1.58v-.53a1.24 1.24 0 0 0 -.26-.8.85.85 0 0 0 -.71-.34.8.8 0 0 0 -.78.36 1.93 1.93 0 0 0 -.2.92v5.63a1.48 1.48 0 0 0 .21.81.81.81 0 0 0 .75.32 1 1 0 0 0 .34-.05 1.19 1.19 0 0 0 .33-.18.88.88 0 0 0 .23-.34 1.38 1.38 0 0 0 .09-.54v-.54z"/><path d="m269.4 369.25 2.46-11h1.32l2.46 11h-1.58l-.46-2.37h-2.15l-.47 2.37zm3.9-3.85-.77-4-.77 4z"/><path d="m276.41 369.25v-11h2.31a3.31 3.31 0 0 1 1.29.23 2.63 2.63 0 0 1 .88.62 2.34 2.34 0 0 1 .48.89 3.7 3.7 0 0 1 .15 1v.4a3.33 3.33 0 0 1 -.07.76 2 2 0 0 1 -.21.54 2.06 2.06 0 0 1 -.8.74 1.78 1.78 0 0 1 .82.78 3.13 3.13 0 0 1 .26 1.39v.62a3.21 3.21 0 0 1 -.7 2.23 2.94 2.94 0 0 1 -2.26.77zm1.58-9.53v3h.71a1.21 1.21 0 0 0 1.06-.39 2.07 2.07 0 0 0 .27-1.16 1.75 1.75 0 0 0 -.3-1.11 1.33 1.33 0 0 0 -1.09-.37zm0 4.42v3.53h.68a1.7 1.7 0 0 0 .75-.14 1 1 0 0 0 .41-.38 1.4 1.4 0 0 0 .17-.59q0-.35 0-.75a5.1 5.1 0 0 0 0-.72 1.24 1.24 0 0 0 -.19-.53.91.91 0 0 0 -.42-.32 2.1 2.1 0 0 0 -.69-.1z"/><path d="m283.05 369.25v-11h1.58v11z"/><path d="m286.1 369.25v-11h1.52l2.38 6.64v-6.64h1.58v11h-1.49l-2.41-6.62v6.62z"/></g><g fill="#c69a4b"><path d="m235.45 368.39v-11h2.31a3.13 3.13 0 0 1 1.29.24 2.3 2.3 0 0 1 1.36 1.5 3.7 3.7 0 0 1 .15 1.05v.4a3.33 3.33 0 0 1 -.07.76 1.9 1.9 0 0 1 -.21.54 2.06 2.06 0 0 1 -.8.74 1.78 1.78 0 0 1 .82.78 3.13 3.13 0 0 1 .26 1.39v.62a3.21 3.21 0 0 1 -.7 2.23 2.94 2.94 0 0 1 -2.26.77zm1.58-9.53v3h.71a1.21 1.21 0 0 0 1.06-.39 2.07 2.07 0 0 0 .27-1.16 1.75 1.75 0 0 0 -.3-1.11 1.33 1.33 0 0 0 -1.09-.37zm0 4.42v3.53h.68a1.57 1.57 0 0 0 .75-.14 1 1 0 0 0 .41-.38 1.36 1.36 0 0 0 .17-.59c0-.23 0-.48 0-.74a5.16 5.16 0 0 0 0-.73 1.24 1.24 0 0 0 -.19-.53.83.83 0 0 0 -.42-.31 1.84 1.84 0 0 0 -.69-.11z"/><path d="m242 360a2.87 2.87 0 0 1 .23-1.17 2.6 2.6 0 0 1 .62-.85 2.51 2.51 0 0 1 .85-.5 2.74 2.74 0 0 1 1.9 0 2.77 2.77 0 0 1 .86.5 2.42 2.42 0 0 1 .6.85 2.72 2.72 0 0 1 .23 1.17v5.82a2.69 2.69 0 0 1 -.29 1.18 2.3 2.3 0 0 1 -.6.82 2.75 2.75 0 0 1 -2.76.51 2.38 2.38 0 0 1 -.85-.51 2.47 2.47 0 0 1 -.62-.82 2.84 2.84 0 0 1 -.23-1.19zm1.58 5.82a1 1 0 0 0 .32.84 1.14 1.14 0 0 0 1.5 0 1 1 0 0 0 .32-.84v-5.82a1 1 0 0 0 -.32-.84 1.18 1.18 0 0 0 -1.5 0 1 1 0 0 0 -.32.84z"/><path d="m253.74 357.37v8.55a2.46 2.46 0 0 1 -.19 1 2.52 2.52 0 0 1 -.55.82 2.69 2.69 0 0 1 -.82.55 2.37 2.37 0 0 1 -1 .2 2.29 2.29 0 0 1 -1-.2 2.64 2.64 0 0 1 -1.37-1.37 2.31 2.31 0 0 1 -.2-1v-8.55h1.57v8.39a1.23 1.23 0 0 0 .28.87 1 1 0 0 0 1.4 0 1.23 1.23 0 0 0 .27-.87v-8.39z"/><path d="m255.23 368.39v-11h2.33a2.71 2.71 0 0 1 2.07.75 2.92 2.92 0 0 1 .71 2.1v5.15a3.08 3.08 0 0 1 -.76 2.29 3 3 0 0 1 -2.15.73zm1.58-9.53v8.05h.72a1.19 1.19 0 0 0 1-.34 1.64 1.64 0 0 0 .28-1v-5.31a1.66 1.66 0 0 0 -.27-1 1.13 1.13 0 0 0 -1-.35z"/><path d="m269.71 365.25v.68a2.47 2.47 0 0 1 -.19 1 2.73 2.73 0 0 1 -.54.81 2.45 2.45 0 0 1 -1.77.77 3.69 3.69 0 0 1 -.92-.12 2.13 2.13 0 0 1 -.83-.43 2.36 2.36 0 0 1 -.61-.8 2.84 2.84 0 0 1 -.24-1.25v-6.06a2.79 2.79 0 0 1 .18-1 2.33 2.33 0 0 1 .53-.8 2.3 2.3 0 0 1 .81-.54 2.87 2.87 0 0 1 1-.19 2.36 2.36 0 0 1 1.87.68 2.63 2.63 0 0 1 .54.84 2.85 2.85 0 0 1 .19 1.06v.62h-1.58v-.52a1.24 1.24 0 0 0 -.26-.8.83.83 0 0 0 -.71-.34.8.8 0 0 0 -.78.36 1.93 1.93 0 0 0 -.2.92v5.64a1.44 1.44 0 0 0 .21.8.82.82 0 0 0 .75.33 1.06 1.06 0 0 0 .34-.06.83.83 0 0 0 .33-.18.88.88 0 0 0 .23-.34 1.38 1.38 0 0 0 .09-.54v-.54z"/><path d="m270.28 368.39 2.46-11h1.32l2.46 11h-1.58l-.46-2.37h-2.15l-.47 2.37zm3.9-3.85-.77-4-.77 4z"/><path d="m277.29 368.39v-11h2.31a3.1 3.1 0 0 1 1.29.24 2.47 2.47 0 0 1 .88.61 2.34 2.34 0 0 1 .48.89 3.7 3.7 0 0 1 .15 1.05v.4a3.33 3.33 0 0 1 -.07.76 1.9 1.9 0 0 1 -.21.54 2.06 2.06 0 0 1 -.8.74 1.78 1.78 0 0 1 .82.78 3.13 3.13 0 0 1 .26 1.39v.62a3.21 3.21 0 0 1 -.7 2.23 2.94 2.94 0 0 1 -2.26.77zm1.58-9.53v3h.71a1.21 1.21 0 0 0 1.06-.39 2.07 2.07 0 0 0 .27-1.16 1.75 1.75 0 0 0 -.3-1.11 1.33 1.33 0 0 0 -1.09-.37zm0 4.42v3.53h.68a1.57 1.57 0 0 0 .75-.14 1 1 0 0 0 .41-.38 1.36 1.36 0 0 0 .17-.59c0-.23 0-.48 0-.74a5.16 5.16 0 0 0 0-.73 1.24 1.24 0 0 0 -.19-.53.85.85 0 0 0 -.41-.31 1.94 1.94 0 0 0 -.7-.11z"/><path d="m283.93 368.39v-11h1.58v11z"/><path d="m287 368.39v-11h1.52l2.38 6.64v-6.64h1.58v11h-1.48l-2.41-6.62v6.62z"/></g></svg>