<svg id="Layer_1" data-name="Layer 1" xmlns="http://www.w3.org/2000/svg" viewBox="0 0 512 512"><path d="M248.85,8.39h15.21a20,20,0,0,0,2.42.31c4.52.09,9,.43,13.53.85q10.55,1,20.95,2.88a239.15,239.15,0,0,1,36.12,9.43A248,248,0,0,1,488.34,169.27,240.11,240.11,0,0,1,500,211.8c1,5.52,1.74,11.09,2.42,16.66a112.61,112.61,0,0,1,1,13.73c0,1.51,0,3,.09,4.52,0,.74.2,1.48.3,2.22V262.5c-.11,1.14-.31,2.29-.31,3.44a172.57,172.57,0,0,1-1.65,21.9A234.82,234.82,0,0,1,496,318.07,247.88,247.88,0,0,1,333.34,491a241.61,241.61,0,0,1-62.8,11.75c-2.19.12-4.37.28-6.56.44a5.94,5.94,0,0,0-1.15.31H250.5a6.93,6.93,0,0,0-3-.42c-6.56-.43-13.13-.79-19.66-1.57-7.55-.91-15-2.11-22.49-3.67a243.88,243.88,0,0,1-61.18-21.64,247.43,247.43,0,0,1-134.68-210,24,24,0,0,0-.74-5.26V250.57a26.31,26.31,0,0,0,.76-5.46c.29-4.85.52-9.71,1-14.54a240.86,240.86,0,0,1,4.34-27.37A247.38,247.38,0,0,1,211,12.62q10.09-1.9,20.32-2.92c5.11-.5,10.22-.94,15.37-1A16.63,16.63,0,0,0,248.85,8.39ZM200.2,279.67a9.94,9.94,0,0,1-2.73-1.35c-7.7-4.47-15.43-8.88-23.05-13.48a5.76,5.76,0,0,0-6.65,0c-10,5.86-20.05,11.57-30.08,17.34q-.72.4-1.41.84a3.56,3.56,0,0,0-1.7,3.1v1q-.06,17.58-.11,35.15c0,3.49.16,3.78,3.2,5.54,10.07,5.84,20.17,11.64,30.19,17.57a5.31,5.31,0,0,0,6.08,0c7.12-4.24,14.34-8.32,21.52-12.45,3.21-1.84,6.42-3.67,9.66-5.46a4,4,0,0,0,2.33-4c0-.27,0-.54,0-.82q0-10,0-19.94c0-2.33,0-4.66,0-7a9.94,9.94,0,0,1,.12-1.63.85.85,0,0,1,1.21-.72,16.55,16.55,0,0,1,2,1l35,20.31c.71.41,1.44.78,2.11,1.25.3.21.44.62.74,1-1.1.67-2.07,1.3-3.08,1.87q-11,6.35-22.1,12.66c-.48.27-1,.54-1.43.82a3.71,3.71,0,0,0-1.85,3.24c0,.55,0,1.1,0,1.64q0,15,0,30c0,1.92,0,3.84,0,5.76a3.84,3.84,0,0,0,2.13,3.7c.36.19.72.4,1.07.61L251,393.4l3.72,2.19a3.18,3.18,0,0,0,3.5,0c.29-.18.59-.34.89-.51l31.17-17.91c.47-.28.95-.55,1.39-.87a2.77,2.77,0,0,0,1.22-2.26c0-.55,0-1.1,0-1.65q0-9.87,0-19.73c0-5.28,0-10.56,0-15.83,0-.55,0-1.1,0-1.65a3,3,0,0,0-1.33-2.42,11.33,11.33,0,0,0-1-.67L266,318c-.6-.34-1.2-.67-1.33-1.43a1.1,1.1,0,0,1,.22-.35,9.74,9.74,0,0,1,.86-.56l38.31-22a.29.29,0,0,1,.2,0,1.81,1.81,0,0,1,.31.15c0,.45.09,1,.09,1.51,0,3.08,0,6.17,0,9.25q0,7.2-.08,14.39c0,1.37,0,2.74,0,4.11a4.5,4.5,0,0,0,2.46,4.4c.48.26.95.55,1.42.82l29.14,16.92c.47.28.94.56,1.43.81a4,4,0,0,0,3.75.06c.49-.24,1-.51,1.44-.78l5.87-3.4c8.2-4.69,16.38-9.42,24.63-14a4.81,4.81,0,0,0,2.81-5c0-.13,0-.27,0-.41,0-11.65-.05-23.3,0-34.94a5.13,5.13,0,0,0-2.9-5.12c-10.12-5.76-20.16-11.66-30.23-17.5-.47-.28-.94-.56-1.43-.81a3.75,3.75,0,0,0-3.55,0c-.61.3-1.21.64-1.8,1l-22.25,12.82a9,9,0,0,1-1.47.7c-.75.26-1.23,0-1.34-.78a14.11,14.11,0,0,1-.13-2c0-7.33.08-14.66.1-22,0-5.28,0-10.56,0-15.83a23.61,23.61,0,0,1,.18-2.66,1.3,1.3,0,0,1,.85-1.23c.92.5,1.95,1,2.95,1.6l21.67,12.59c2.7,1.57,2.91,1.57,5.62,0l31-17.79,1.24-.73a2.91,2.91,0,0,0,1.41-2.38c0-.54,0-1.09,0-1.64,0-5.14,0-10.28,0-15.42,0-6.72-.07-13.43.07-20.14a4.94,4.94,0,0,0-2.81-4.95c-10.29-5.87-20.5-11.87-30.74-17.83l-1.07-.62a3.27,3.27,0,0,0-3.51,0l-1.07.61-30.46,17.49c-.54.31-1.08.61-1.59,1a3.27,3.27,0,0,0-1.55,2.75c0,.34,0,.68,0,1q0,12.94,0,25.9c0,.75,0,1.5,0,2.26a1.12,1.12,0,0,1-.61,1.17c-.09,0-.17,0-.22,0a7.78,7.78,0,0,1-.93-.42l-38.2-22.17a.34.34,0,0,1-.14-.15,1.23,1.23,0,0,1,0-.27,7.15,7.15,0,0,1,.76-.56c1.29-.78,2.58-1.56,3.88-2.31,7-4,13.89-8,20.88-11.91,2-1.14,3.06-2.66,2.81-5a1.48,1.48,0,0,1,0-.21q0-17.27,0-34.53c.41-2.89-.84-4.69-3.38-6.13-9.88-5.6-19.68-11.38-29.51-17.09a4.79,4.79,0,0,0-6.56-.07l-30.3,17.37-1.41.84a3.41,3.41,0,0,0-1.6,2.73c0,.62,0,1.23,0,1.85q0,17.26,0,34.53c-.45,2.77.81,4.42,3.21,5.76,8,4.47,15.92,9.12,23.87,13.7a1.9,1.9,0,0,1,1.15,1.5c-.52.33-1.07.71-1.65,1l-19.77,11.37L209.1,219a2.51,2.51,0,0,1-1.56.58c0-.49-.09-.88-.09-1.27,0-4.59,0-9.18,0-13.78s0-9.31,0-14c0-.62,0-1.24,0-1.85a3.41,3.41,0,0,0-1.69-2.89c-.34-.22-.7-.42-1.06-.63-10.24-6-20.52-11.85-30.71-17.89a5,5,0,0,0-5.68,0c-10.22,6-20.52,11.83-30.8,17.73-2.76,1.58-2.89,1.81-2.9,5q-.06,17.69-.11,35.36c0,3,.19,3.38,2.81,4.9l29.49,17.13c.77.44,1.54.9,2.3,1.35a3.3,3.3,0,0,0,3.51.06l1.07-.61,22.63-13c.89-.52,1.75-1.08,2.65-1.58.4-.22.84-.48,1.31-.1C200.49,235.51,200.46,278,200.2,279.67ZM437.73,153.23c-.59.87-1.16,1.7-1.72,2.54q-12.57,19-25.12,38.06-7.26,11-14.53,21.93a14,14,0,0,0-1,1.56,1.63,1.63,0,0,0,.62,2.46,14.14,14.14,0,0,0,1.62.89l39.87,19.88q12.86,6.42,25.7,12.88c.46.23.89.67,1.5.43.39-2.69.07-12.1-1.28-23.32a207.13,207.13,0,0,0-14.1-54.08C446.2,168.83,439.46,155.1,437.73,153.23Zm-2-3.44c-1.17-3-7.46-12.48-13.3-20.15a209.66,209.66,0,0,0-40.85-40.58c-7.16-5.39-16.91-11.78-19.66-12.84a9.67,9.67,0,0,0-.28,1.36c-.1,1.57-.14,3.15-.24,4.72q-.72,11.9-1.44,23.79c-.49,8.14-.94,16.28-1.41,24.42-.18,2.94-.4,5.87-.59,8.81q-.37,6.17-.73,12.31a5.08,5.08,0,0,0,0,1,1.56,1.56,0,0,0,1.57,1.58,12.76,12.76,0,0,0,2.05,0c5.81-.35,11.62-.73,17.44-1.06s11.9-.63,17.85-1,11.62-.72,17.44-1.05,11.62-.64,17.44-1C432.55,150.07,434.05,149.92,435.72,149.79ZM464.61,258.4c-.51.21-1,.37-1.49.61-3.36,1.68-6.72,3.39-10.09,5.07l-55.28,27.61c-.61.31-1.24.59-1.82.94-1.16.69-1.28,1.22-.61,2.34.17.29.38.57.57.85q15,22.82,30.08,45.62,5.37,8.15,10.75,16.28c.25.37.36.94,1.12.86a207.51,207.51,0,0,0,24.27-68.25C463.79,280.54,465.37,261.55,464.61,258.4ZM357.87,74c-1.4-1.27-4.8-3.13-12.3-6.67a209,209,0,0,0-61.18-18.1c-8.55-1.18-22.79-2.11-26.47-1.57a6.52,6.52,0,0,0,.91,2.23q10.34,20.67,20.69,41.33,5.61,11.2,11.18,22.43a14.58,14.58,0,0,0,1.1,2,1.48,1.48,0,0,0,2.14.56,13.14,13.14,0,0,0,1.77-1q30.35-20,60.68-40.09C356.89,74.71,357.36,74.34,357.87,74Zm3.95,361.67a209.5,209.5,0,0,0,50.35-41.31c8.59-9.64,21.55-27.49,22.9-31.56a15,15,0,0,0-1.59-.25c-3.14-.19-6.29-.35-9.43-.52l-9.43-.55c-5.54-.35-11.07-.72-16.61-1s-11.21-.65-16.81-1c-2.46-.14-4.92-.31-7.38-.47L359.68,358a2.77,2.77,0,0,0-2.14.49,5,5,0,0,0-.21,2.62q.42,7.8.86,15.59c.33,5.87.64,11.75,1,17.63q.78,13.63,1.59,27.27c.25,4.31.56,8.61.84,12.92A10.43,10.43,0,0,0,361.82,435.65Zm-208.06-361a9.62,9.62,0,0,0,2.07,1.55l30,19.79,29.65,19.57a11,11,0,0,0,1.59.93,1,1,0,0,0,1.28-.32,14.3,14.3,0,0,0,1-1.77q6.09-12.1,12.16-24.22,7.64-15.24,15.28-30.47l5.43-10.83c.2-.4.6-.78.16-1.4a206.77,206.77,0,0,0-97.59,26.45C154.49,74.07,154.18,74.32,153.76,74.61ZM357.31,437.94l-63.68-41.89a7.78,7.78,0,0,0-.87-.43,3.7,3.7,0,0,0-1.31,1.87q-3.66,7.25-7.29,14.5l-20.25,40.4c-1.72,3.42-3.45,6.84-5.16,10.28-.19.39-.62.78-.24,1.3,11.34.44,33.58-1.68,53.93-7.38C327,452.52,351.28,442.56,357.31,437.94ZM77.39,149.7c.4.51,1,.39,1.52.42,1.84.12,3.69.17,5.54.28q8.92.53,17.84,1c5.81.34,11.63.64,17.44,1q9.85.56,19.69,1.16c3.76.22,7.51.5,11.26.75a7.54,7.54,0,0,0,.82,0,1.56,1.56,0,0,0,1.65-1.26,7.33,7.33,0,0,0,.2-2c-.11-2.26-.3-4.51-.44-6.77q-.56-9-1.09-18c-.33-5.47-.64-10.94-1-16.41q-.56-9.24-1.14-18.46c-.26-4.31-.51-8.62-.78-12.92a4.25,4.25,0,0,0-.15-.76c-2.08.75-7.35,4.13-14.35,9.22a209.66,209.66,0,0,0-42.67,41.31C86,135.75,78.56,146.77,77.39,149.7ZM252.13,463.85a5.33,5.33,0,0,0-.82-2.05q-6.75-13.5-13.53-27-9-18-18-36c-.34-.67-.66-1.36-1.06-2a1.43,1.43,0,0,0-2.12-.56c-.72.38-1.4.86-2.08,1.31L179.06,421l-23.32,15.37c-.42.28-1,.42-1.05,1.22a207.57,207.57,0,0,0,58.89,22.15C227.06,462.62,246.38,464.49,252.13,463.85ZM48.45,252.79c.58-.24,1.14-.44,1.68-.71q16.23-8.15,32.47-16.31,14.87-7.44,29.77-14.83c.67-.34,1.35-.67,2-1.06,1.19-.75,1.36-1.36.72-2.57-.38-.72-.86-1.4-1.31-2.08q-13-19.64-25.93-39.25c-4.26-6.46-8.49-12.94-12.75-19.4-.28-.42-.43-1-1.21-1.11a207.19,207.19,0,0,0-21.45,58.11C49.92,225.63,47.59,248.22,48.45,252.79Zm100.3,181.14a3.93,3.93,0,0,0,.18-.69c.27-4,.55-8.07.79-12.1.34-5.61.64-11.22,1-16.82q.72-11.69,1.46-23.38.59-9.44,1.12-18.87a14.43,14.43,0,0,0,0-2.46c-.11-1-.56-1.39-1.62-1.51a4.5,4.5,0,0,0-.82,0c-1.85.11-3.69.24-5.54.36-5.33.36-10.66.74-16,1.07-5.53.35-11.08.64-16.61,1s-11.21.72-16.82,1-11.35.62-17,.93c-.32,0-.7-.07-.87.34,1.44,3.57,11,17.22,17.82,25.53a208.62,208.62,0,0,0,47.35,42.26A35.75,35.75,0,0,0,148.75,433.93ZM74.42,356.7c.35-.45.7-.85,1-1.29,1.81-2.74,3.6-5.5,5.42-8.24q16.69-25.31,33.41-50.59a16.34,16.34,0,0,0,1.13-1.94A1.16,1.16,0,0,0,115,293a19.5,19.5,0,0,0-2.32-1.31L73.15,272,50,260.39c-.53-.27-1-.72-1.8-.5a207.94,207.94,0,0,0,8.43,54.84C60.79,328.84,70.2,351,74.42,356.7Z"/></svg>