<svg id="Layer_1" data-name="Layer 1" xmlns="http://www.w3.org/2000/svg" viewBox="0 0 512 512"><path d="M255.56,137.87c24.93,22,49.25,43.48,73.63,64.89Q387,253.51,444.68,304.25c1.56,1.37,2.52,4.25,2.52,6.43q.21,75.38.06,150.74c0,10.55-5.47,15.95-16.11,16q-52.15.21-104.3,0c-11.24,0-16.29-5.51-16.31-17.35-.07-33.5,0-67,0-100.49,0-14.6-4.57-19.16-19.11-19.17q-36.15,0-72.32,0c-13.58,0-18.46,4.84-18.47,18.27,0,33.5,0,67,0,100.49,0,13.45-4.88,18.27-18.47,18.29q-49.86,0-99.73,0c-13.63,0-18.56-4.81-18.57-18.19q-.06-73.84.11-147.69c0-2.63,1.1-6.1,3-7.74q70.72-62.52,141.74-124.69C224.05,165.6,239.46,152,255.56,137.87Z"/><path d="M502,249.11c0,10.9-23.35,36.65-31.41,36.07-4.14-.3-8.76-2.77-12-5.6Q386.72,216.64,315.18,153.3q-24-21.15-48-42.24c-8.63-7.55-14.65-7.52-23.39.18Q148.9,194.76,54.11,278.36c-11.21,9.89-17.46,9.5-27.46-1.88-4-4.57-8.18-9-12.12-13.68-7.72-9.11-7.34-15.4,1.76-23.49Q57.54,202.65,99,166.18L223.33,56.29c3.23-2.86,6.45-5.74,9.77-8.49,14-11.64,31.27-11.88,45.06.2q68.71,60.19,137.07,120.81c26.45,23.34,52.91,46.67,79.15,70.24C498,242.26,500.3,246.82,502,249.11Z"/></svg>