<svg id="Layer_1" data-name="Layer 1" xmlns="http://www.w3.org/2000/svg" viewBox="0 0 512 512"><path d="M420.49,82.6c-34.58,25.42-68,50.89-102.49,75-16.28,11.38-28.06,24.94-36.22,43.14-13.58,30.26-28.94,59.73-43.57,89.53-1.6,3.27-3.3,6.49-4.9,9.62C214.14,294,201.72,273,179.06,278a93.67,93.67,0,0,0-23.72,8.86c21.41,4.61,29.18,23,41.34,36.65C141.89,300.8,93.62,266.94,44.05,234.92c-.8,9-.8,9,26.69,39.6L48,269.9l-2,3.42,31.41,21.83H58.13c-.48,1.45-1,2.9-1.43,4.35l38.62,18.85-23,1.84c13.8,11.83,29.58,12,47.07,17.23l-26.1,5.52c21.63,11.51,42.91,12.31,64.55,13.69l-25.06,5.71-.45,3.53c16.74,3,33.37,7.35,50.24,8.64,17.21,1.32,34.66-.67,52-.5,3.71,0,8.12,2.31,11,4.91,14.18,12.92,27.19,27.22,42.12,39.16,9,7.22,20.79,11,31.33,16.36l1.85-3.09-17.71-20.86L350.2,424.7l1.64-3.24L323.89,400l55.24,9.74,1.31-4.23q-19-10-38-20.08c22.38,1.37,44.3,6.69,66.62-2L360.87,370c25.78-1.95,52.07,0,75.24-15.95-52.35-.6-104.73-.2-154.38-21.24l41.08-12.41-.35-3.3L307,311.78c7.62-1.36,14.22-2,20.49-3.8s11.94-4.64,20.44-8.06l-17-7.17,36.17-8.49-.42-3.59-16.59-8,38.23-7.08c.1-1.31.21-2.63.32-3.94l-19-9.62,41-9.12-.21-4.2-25-9.23c16.42-3.52,32.65-.94,46.09-13.19L400.62,205c17.7-3.41,34.93-1.35,50.33-14.48l-37.42-10.22c19.93-5.36,40.08-3.61,54.78-21.55l-45.09-3.38L464.74,140c50.09,76.5,49,211.05-46.62,296.72C319.62,525,170,518.61,81.61,423.37-8.77,326-5.14,177.16,89.86,85,180.68-3.1,331.33-4.75,420.49,82.6Z"/><path d="M429.73,128.75c8.4-1.89,14.45-16.59,25.1-4.72Z"/></svg>